<svg width="40" height="40" viewBox="0 0 40 40" fill="none" xmlns="http://www.w3.org/2000/svg">
<path d="M21.5 13.3332C21.5 12.5047 20.8284 11.8332 20 11.8332C19.1716 11.8332 18.5 12.5047 18.5 13.3332V18.4998H13.3333C12.5049 18.4998 11.8334 19.1714 11.8334 19.9998C11.8334 20.8283 12.5049 21.4998 13.3333 21.4998H18.5V26.6665C18.5 27.4949 19.1716 28.1665 20 28.1665C20.8284 28.1665 21.5 27.4949 21.5 26.6665V21.4998H26.6666C27.4951 21.4998 28.1666 20.8283 28.1666 19.9998C28.1666 19.1714 27.4951 18.4998 26.6666 18.4998H21.5V13.3332Z" fill="#37383C" fill-opacity="0.28"/>
<path fill-rule="evenodd" clip-rule="evenodd" d="M19.9999 3.5C10.8873 3.5 3.5 10.8873 3.5 20C3.5 29.1127 10.8873 36.5 19.9999 36.5C29.1126 36.5 36.4999 29.1127 36.4999 20C36.4999 10.8873 29.1126 3.5 19.9999 3.5ZM6.49999 20C6.49999 12.5442 12.5441 6.5 19.9999 6.5C27.4557 6.5 33.4999 12.5442 33.4999 20C33.4999 27.4558 27.4557 33.5 19.9999 33.5C12.5441 33.5 6.49999 27.4558 6.49999 20Z" fill="#37383C" fill-opacity="0.28"/>
</svg>
