<svg width="20" height="20" viewBox="0 0 20 20" fill="none" xmlns="http://www.w3.org/2000/svg">
<path d="M7.46296 18.2898C8.53024 18.2898 8.99835 17.5502 10.3278 17.5502C11.6572 17.5502 11.9755 18.2617 13.1551 18.2617C14.3347 18.2617 15.0931 17.157 15.8327 16.0709C16.6565 14.8258 16.9936 13.6087 17.0217 13.5525C16.9468 13.5338 14.7186 12.5882 14.7186 9.95747C14.7186 7.67311 16.4787 6.64327 16.5723 6.56838C15.4114 4.84574 13.642 4.80829 13.1645 4.80829C11.8632 4.80829 10.7959 5.6228 10.1218 5.6228C9.40092 5.6228 8.44598 4.8551 7.31317 4.8551C5.15989 4.8551 2.97852 6.69008 2.97852 10.1447C2.97852 12.2886 3.79302 14.5636 4.7854 16.0335C5.63735 17.2787 6.38632 18.2991 7.46296 18.2991V18.2898ZM10.2061 4.60233C10.9831 4.60233 11.9661 4.05932 12.5466 3.33844C13.0709 2.68309 13.4547 1.7656 13.4547 0.848108C13.4547 0.7264 13.4453 0.59533 13.4173 0.501709C12.5466 0.539158 11.5074 1.10089 10.8801 1.85922C10.3839 2.43967 9.93456 3.33844 9.93456 4.26529C9.93456 4.39636 9.95328 4.53679 9.97201 4.5836C10.0282 4.59296 10.1124 4.60233 10.2061 4.60233Z" fill="#111111"/>
</svg>
