<svg width="24" height="24" viewBox="0 0 24 24" fill="none" xmlns="http://www.w3.org/2000/svg">
<path fill-rule="evenodd" clip-rule="evenodd" d="M6.34971 8.7489C6.34971 7.42342 7.42423 6.3489 8.7497 6.3489C10.0752 6.3489 11.1497 7.42342 11.1497 8.7489C11.1497 10.0744 10.0752 11.1489 8.7497 11.1489C7.42423 11.1489 6.34971 10.0744 6.34971 8.7489ZM8.7497 8.1489C8.41833 8.1489 8.14971 8.41753 8.14971 8.7489C8.14971 9.08028 8.41833 9.3489 8.7497 9.3489C9.08107 9.3489 9.3497 9.08028 9.3497 8.7489C9.3497 8.41753 9.08107 8.1489 8.7497 8.1489Z" fill="#989BA2"/>
<path fill-rule="evenodd" clip-rule="evenodd" d="M8.26213 2.59949C7.45411 2.59948 6.79322 2.59947 6.25616 2.64335C5.70025 2.68877 5.19817 2.78565 4.72928 3.02456C3.99545 3.39847 3.39883 3.99509 3.02493 4.72893C2.78602 5.19782 2.68914 5.69989 2.64372 6.25581C2.59984 6.79288 2.59984 7.45372 2.59985 8.26177V15.7372C2.59984 16.5452 2.59984 17.2061 2.64372 17.7432C2.68914 18.2991 2.78602 18.8012 3.02493 19.2701C3.39883 20.0039 3.99545 20.6005 4.72928 20.9744C5.19817 21.2133 5.70025 21.3102 6.25616 21.3556C6.79323 21.3995 7.45408 21.3995 8.26213 21.3995H15.7375C16.5456 21.3995 17.2064 21.3995 17.7435 21.3556C18.2994 21.3102 18.8015 21.2133 19.2704 20.9744C20.0042 20.6005 20.6008 20.0039 20.9747 19.2701C21.2136 18.8012 21.3105 18.2991 21.3559 17.7432C21.3998 17.2061 21.3998 16.5453 21.3998 15.7372V8.26179C21.3998 7.45373 21.3998 6.79288 21.3559 6.25581C21.3105 5.69989 21.2136 5.19782 20.9747 4.72893C20.6008 3.99509 20.0042 3.39847 19.2704 3.02456C18.8015 2.78565 18.2994 2.68877 17.7435 2.64335C17.2064 2.59947 16.5456 2.59948 15.7376 2.59949H8.26213ZM5.54646 4.62838C5.71931 4.54031 5.95814 4.4737 6.40274 4.43737C6.85784 4.40019 7.44491 4.39949 8.29983 4.39949H15.6998C16.5547 4.39949 17.1418 4.40019 17.5969 4.43737C18.0415 4.4737 18.2803 4.54031 18.4532 4.62838C18.8483 4.82971 19.1696 5.15097 19.3709 5.54611C19.459 5.71896 19.5256 5.95779 19.5619 6.40238C19.5991 6.85749 19.5998 7.44456 19.5998 8.29949V10.8273L19.3738 10.6013C18.9991 10.2266 18.6801 9.90756 18.3967 9.66703C18.0991 9.41433 17.7821 9.19587 17.3958 9.07034C16.8134 8.88109 16.1859 8.88109 15.6035 9.07034C15.2172 9.19587 14.9002 9.41434 14.6026 9.66703C14.3193 9.90755 14.0003 10.2266 13.6256 10.6012L5.13306 19.0938C4.92588 18.9162 4.75407 18.6989 4.62873 18.4529C4.54066 18.28 4.47406 18.0412 4.43773 17.5966C4.40055 17.1415 4.39985 16.5544 4.39985 15.6995V8.29949C4.39985 7.44456 4.40055 6.85749 4.43773 6.40238C4.47406 5.95779 4.54066 5.71896 4.62873 5.54611C4.83007 5.15097 5.15132 4.82971 5.54646 4.62838ZM7.17833 19.5941C7.49402 19.5993 7.86176 19.5995 8.29983 19.5995H15.6998C16.5547 19.5995 17.1418 19.5988 17.5969 19.5616C18.0415 19.5253 18.2803 19.4587 18.4532 19.3706C18.8483 19.1693 19.1696 18.848 19.3709 18.4529C19.459 18.28 19.5256 18.0412 19.5619 17.5966C19.5991 17.1415 19.5998 16.5544 19.5998 15.6995V13.3729L18.126 11.8991C17.7195 11.4926 17.4524 11.2265 17.2318 11.0392C17.0193 10.8588 16.9099 10.8051 16.8396 10.7822C16.6186 10.7105 16.3807 10.7105 16.1597 10.7822C16.0894 10.8051 15.98 10.8588 15.7675 11.0392C15.5469 11.2265 15.2798 11.4926 14.8733 11.8991L7.17833 19.5941Z" fill="#989BA2"/>
</svg>
