<svg width="24" height="24" viewBox="0 0 24 24" fill="none" xmlns="http://www.w3.org/2000/svg">
<path fill-rule="evenodd" clip-rule="evenodd" d="M7.73674 12.7068C7.30966 12.3495 6.68794 12.3495 6.26086 12.7068C6.07424 12.863 5.96985 13.0742 5.86933 13.2897C5.59584 13.8757 5.4923 14.0931 5.36879 14.2853C5.08976 14.7195 4.72063 15.0887 4.28642 15.3677C4.09423 15.4912 3.87681 15.5947 3.29082 15.8682C3.07532 15.9687 2.86407 16.0731 2.70793 16.2598C2.35061 16.6868 2.35061 17.3086 2.70793 17.7356C2.86407 17.9223 3.07532 18.0266 3.29082 18.1272C3.87681 18.4007 4.09423 18.5042 4.28642 18.6277C4.72063 18.9067 5.08976 19.2759 5.36879 19.7101C5.4923 19.9023 5.59584 20.1197 5.86933 20.7057C5.96983 20.9212 6.07425 21.1324 6.26086 21.2886C6.68794 21.6459 7.30966 21.6459 7.73674 21.2886C7.92336 21.1324 8.02776 20.9212 8.12828 20.7057C8.40176 20.1197 8.5053 19.9023 8.62881 19.7101C8.90784 19.2759 9.27697 18.9067 9.71118 18.6277C9.90338 18.5042 10.1208 18.4007 10.7068 18.1272C10.9223 18.0266 11.1335 17.9223 11.2897 17.7356C11.647 17.3086 11.647 16.6868 11.2897 16.2598C11.1335 16.0731 10.9223 15.9687 10.7068 15.8682C10.1208 15.5947 9.90338 15.4912 9.71118 15.3677C9.27697 15.0887 8.90784 14.7195 8.62881 14.2853C8.5053 14.0931 8.40176 13.8757 8.12828 13.2897C8.02776 13.0742 7.92336 12.863 7.73674 12.7068ZM6.88308 15.2584C6.923 15.1963 6.96124 15.133 6.9988 15.0674C7.03637 15.133 7.0746 15.1963 7.11453 15.2584C7.53307 15.9097 8.08676 16.4634 8.73807 16.882C8.80021 16.9219 8.86345 16.9601 8.92906 16.9977C8.86345 17.0353 8.80021 17.0735 8.73807 17.1134C8.08676 17.532 7.53307 18.0857 7.11453 18.737C7.0746 18.7991 7.03637 18.8624 6.9988 18.928C6.96124 18.8624 6.923 18.7991 6.88308 18.737C6.46454 18.0857 5.91084 17.532 5.25953 17.1134C5.1974 17.0735 5.13415 17.0353 5.06854 16.9977C5.13415 16.9601 5.1974 16.9219 5.25953 16.882C5.91084 16.4634 6.46454 15.9097 6.88308 15.2584Z" fill="#989BA2"/>
<path fill-rule="evenodd" clip-rule="evenodd" d="M8.78191 7.5186C8.4527 7.68267 8.01901 7.93178 7.7885 8.37666C7.64652 8.65068 7.57552 8.95065 7.5755 9.25062C7.57552 9.5506 7.64652 9.85056 7.7885 10.1246C8.01901 10.5695 8.4527 10.8186 8.78191 10.9826C9.07731 11.1299 9.45768 11.2849 9.90149 11.4608L10.9448 11.8723C11.486 12.0857 11.9144 12.5141 12.1279 13.0553L12.4743 13.9338C12.6775 14.4487 12.8526 14.8871 13.0177 15.2185C13.1818 15.5477 13.4309 15.9814 13.8758 16.2119C14.1498 16.3539 14.4498 16.4247 14.7499 16.4247C15.05 16.4247 15.3499 16.3539 15.624 16.2119C16.0689 15.9814 16.318 15.5477 16.482 15.2185C16.6472 14.8871 16.8222 14.4487 17.0254 13.9338L17.3719 13.0553C17.5853 12.5141 18.0138 12.0857 18.555 11.8723L19.5983 11.4608C20.0421 11.2849 20.4225 11.1299 20.7179 10.9826C21.0471 10.8186 21.4808 10.5695 21.7113 10.1246C21.8532 9.85056 21.9242 9.5506 21.9243 9.25062C21.9242 8.95065 21.8532 8.65068 21.7113 8.37666C21.4808 7.93178 21.0471 7.68267 20.7179 7.5186C20.4225 7.37137 20.0421 7.21632 19.5983 7.04047L18.555 6.62899C18.0138 6.41554 17.5853 5.98712 17.3719 5.44591L17.0254 4.56746C16.8222 4.05256 16.6472 3.61418 16.482 3.28277C16.318 2.95356 16.0689 2.51987 15.624 2.28936C15.3499 2.14737 15.05 2.07653 14.7499 2.07654C14.4498 2.07653 14.1498 2.14737 13.8758 2.28936C13.4309 2.51987 13.1818 2.95356 13.0177 3.28277C12.8526 3.61418 12.6775 4.05256 12.4743 4.56746L12.1279 5.44591C11.9144 5.98712 11.486 6.41554 10.9448 6.62899L9.90149 7.04047C9.45768 7.21632 9.07731 7.37137 8.78191 7.5186ZM13.9725 5.67493L14.6569 3.93965C14.6736 3.8971 14.7037 3.87634 14.7499 3.87634C14.7961 3.87634 14.8261 3.8971 14.8429 3.93965L15.5273 5.67493C15.7286 6.18239 15.8948 6.57337 16.1321 6.91422C16.3939 7.28763 16.7194 7.61238 17.0934 7.87342C17.4265 8.104 17.8078 8.26753 18.2988 8.46272L20.061 9.15771C20.1035 9.17449 20.1243 9.20457 20.1243 9.25074C20.1243 9.29691 20.1035 9.32698 20.061 9.34376L18.2988 10.0388C17.8078 10.2339 17.4265 10.3975 17.0934 10.6281C16.7194 10.8891 16.3939 11.2138 16.1321 11.5873C15.8948 11.9281 15.7286 12.3191 15.5273 12.8265L14.8429 14.5618C14.8261 14.6044 14.7961 14.6251 14.7499 14.6251C14.7037 14.6251 14.6736 14.6044 14.6569 14.5618L13.9725 12.8265C13.7711 12.3191 13.605 11.9281 13.3677 11.5873C13.1058 11.2138 12.7804 10.8891 12.4064 10.6281C12.0732 10.3975 11.692 10.2339 11.201 10.0388L9.4388 9.34376C9.39624 9.32698 9.37549 9.29691 9.37549 9.25074C9.37549 9.20457 9.39624 9.17449 9.4388 9.15771L11.201 8.46272C11.692 8.26753 12.0732 8.104 12.4064 7.87342C12.7804 7.61238 13.1058 7.28763 13.3677 6.91422C13.605 6.57337 13.7711 6.18239 13.9725 5.67493Z" fill="#989BA2"/>
</svg>
