<svg width="24" height="24" viewBox="0 0 24 24" fill="none" xmlns="http://www.w3.org/2000/svg">
<path d="M8.2625 2.59998C7.45445 2.59997 6.7936 2.59996 6.25652 2.64384C5.70061 2.68926 5.19854 2.78614 4.72965 3.02505C3.99582 3.39896 3.3992 3.99558 3.02529 4.72941C2.78638 5.1983 2.6895 5.70038 2.64408 6.25629C2.6002 6.79337 2.60021 7.45422 2.60022 8.26227V15.7377C2.60021 16.5457 2.6002 17.2066 2.64408 17.7437C2.6895 18.2996 2.78638 18.8016 3.02529 19.2705C3.3992 20.0044 3.99582 20.601 4.72965 20.9749C5.19854 21.2138 5.70061 21.3107 6.25652 21.3561C6.7936 21.4 7.45444 21.4 8.26249 21.4H15.7379C16.5459 21.4 17.2068 21.4 17.7438 21.3561C18.2998 21.3107 18.8018 21.2138 19.2707 20.9749C20.0045 20.601 20.6012 20.0044 20.9751 19.2705C21.214 18.8016 21.3109 18.2996 21.3563 17.7437C21.4002 17.2066 21.4002 16.5457 21.4001 15.7377V8.26227C21.4002 7.45422 21.4002 6.79337 21.3563 6.25629C21.3109 5.70038 21.214 5.1983 20.9751 4.72941C20.6012 3.99558 20.0045 3.39896 19.2707 3.02505C18.8018 2.78614 18.2998 2.68926 17.7438 2.64384C17.2068 2.59996 16.5459 2.59997 15.7379 2.59998H8.2625Z" fill="#989BA2"/>
</svg>
