<svg width="24" height="24" viewBox="0 0 24 24" fill="none" xmlns="http://www.w3.org/2000/svg">
<path fill-rule="evenodd" clip-rule="evenodd" d="M4.09984 2.49985C4.09984 2.0028 4.50279 1.59985 4.99984 1.59985C5.4969 1.59985 5.89984 2.0028 5.89984 2.49985C5.89984 3.38749 6.05939 3.69286 6.18311 3.81658C6.30683 3.9403 6.61219 4.09985 7.49983 4.09985C7.99689 4.09985 8.39983 4.5028 8.39983 4.99985C8.39983 5.49691 7.99689 5.89985 7.49983 5.89985C6.61219 5.89985 6.30683 6.0594 6.18311 6.18312C6.05939 6.30684 5.89984 6.61221 5.89984 7.49985C5.89984 7.99691 5.4969 8.39985 4.99984 8.39985C4.50279 8.39985 4.09984 7.99691 4.09984 7.49985C4.09984 6.61221 3.94029 6.30684 3.81657 6.18312C3.69285 6.0594 3.38749 5.89985 2.49985 5.89985C2.0028 5.89985 1.59985 5.49691 1.59985 4.99985C1.59985 4.5028 2.0028 4.09985 2.49985 4.09985C3.38749 4.09985 3.69285 3.9403 3.81657 3.81658C3.94029 3.69286 4.09984 3.38749 4.09984 2.49985ZM17.5 3.6C17.003 3.6 16.6 4.00294 16.6 4.5C16.6 5.20014 16.4717 5.38051 16.4261 5.4261C16.3806 5.4717 16.2002 5.6 15.5 5.6C15.003 5.6 14.6 6.00294 14.6 6.5C14.6 6.99706 15.003 7.4 15.5 7.4C16.2002 7.4 16.3806 7.5283 16.4261 7.5739C16.4717 7.61949 16.6 7.79986 16.6 8.5C16.6 8.99706 17.003 9.4 17.5 9.4C17.9971 9.4 18.4 8.99706 18.4 8.5C18.4 7.79986 18.5283 7.61949 18.5739 7.5739C18.6195 7.5283 18.7999 7.4 19.5 7.4C19.9971 7.4 20.4 6.99706 20.4 6.5C20.4 6.00294 19.9971 5.6 19.5 5.6C18.7999 5.6 18.6195 5.4717 18.5739 5.4261C18.5283 5.38051 18.4 5.20014 18.4 4.5C18.4 4.00294 17.9971 3.6 17.5 3.6ZM6.50008 14.6C6.00302 14.6 5.60008 15.0029 5.60008 15.5C5.60008 16.2001 5.47178 16.3805 5.42619 16.4261C5.38059 16.4717 5.20023 16.6 4.50009 16.6C4.00303 16.6 3.60009 17.0029 3.60009 17.5C3.60009 17.9971 4.00303 18.4 4.50009 18.4C5.20023 18.4 5.38059 18.5283 5.42619 18.5739C5.47178 18.6195 5.60008 18.7999 5.60008 19.5C5.60008 19.9971 6.00302 20.4 6.50008 20.4C6.99713 20.4 7.40008 19.9971 7.40008 19.5C7.40008 18.7999 7.52838 18.6195 7.57397 18.5739C7.61957 18.5283 7.79993 18.4 8.50007 18.4C8.99713 18.4 9.40007 17.9971 9.40007 17.5C9.40007 17.0029 8.99713 16.6 8.50007 16.6C7.79993 16.6 7.61957 16.4717 7.57397 16.4261C7.52838 16.3805 7.40008 16.2001 7.40008 15.5C7.40008 15.0029 6.99713 14.6 6.50008 14.6Z" fill="#989BA2"/>
<path fill-rule="evenodd" clip-rule="evenodd" d="M10.8435 7.71152C10.3118 7.44803 9.68759 7.44805 9.15595 7.71157C8.87034 7.85314 8.62976 8.09531 8.42167 8.30478L8.30479 8.42168C8.09537 8.62977 7.85324 8.87036 7.71171 9.15595C7.44826 9.68757 7.44828 10.3117 7.71176 10.8433C7.8533 11.1289 8.09544 11.3695 8.30486 11.5776L17.4216 20.6945C17.6298 20.904 17.8704 21.1462 18.156 21.2877C18.6876 21.5512 19.3118 21.5512 19.8433 21.2877C20.129 21.1462 20.3696 20.904 20.5778 20.6945L20.6947 20.5776C20.9042 20.3695 21.1463 20.1288 21.2879 19.8432C21.5513 19.3116 21.5513 18.6875 21.2879 18.1559C21.1463 17.8703 20.9042 17.6296 20.6947 17.4215L11.5778 8.30469C11.3697 8.09523 11.1291 7.85307 10.8435 7.71152ZM9.92903 9.34317C9.96808 9.30411 10.0314 9.30411 10.0705 9.34317L14.3632 13.6358L13.6361 14.363L9.3434 10.0703C9.30435 10.0312 9.30434 9.96793 9.34339 9.92887L9.92903 9.34317Z" fill="#989BA2"/>
</svg>
