<svg width="20" height="20" viewBox="0 0 20 20" fill="none" xmlns="http://www.w3.org/2000/svg">
<path fill-rule="evenodd" clip-rule="evenodd" d="M9.99981 6.33338C7.74465 6.33338 5.91649 8.16155 5.91649 10.4167C5.91649 12.6719 7.74465 14.5 9.99981 14.5C12.255 14.5 14.0831 12.6719 14.0831 10.4167C14.0831 8.16155 12.255 6.33338 9.99981 6.33338ZM7.41648 10.4167C7.41648 8.98998 8.57308 7.83338 9.99981 7.83338C11.4265 7.83338 12.5831 8.98998 12.5831 10.4167C12.5831 11.8435 11.4265 13 9.99981 13C8.57308 13 7.41648 11.8435 7.41648 10.4167Z" fill="white"/>
<path fill-rule="evenodd" clip-rule="evenodd" d="M8.88275 1.95848C8.49733 1.95814 8.17223 1.95785 7.86127 2.04152C7.58796 2.11507 7.32968 2.23605 7.09823 2.39896C6.8349 2.5843 6.62702 2.83426 6.38056 3.13059L5.27423 4.45852L4.72066 4.45852C4.2791 4.45851 3.90311 4.4585 3.59442 4.48372C3.27012 4.51022 2.95463 4.56824 2.65302 4.72192C2.19829 4.95362 1.82859 5.32332 1.5969 5.77804C1.44322 6.07965 1.38519 6.39515 1.3587 6.71945C1.33348 7.02813 1.33349 7.40409 1.3335 7.84562V14.238C1.33349 14.6796 1.33348 15.0556 1.3587 15.3643C1.38519 15.6886 1.44322 16.0041 1.5969 16.3057C1.82859 16.7604 2.19829 17.1301 2.65302 17.3618C2.95463 17.5155 3.27012 17.5735 3.59442 17.6C3.9031 17.6252 4.27907 17.6252 4.7206 17.6252H15.2796C15.7212 17.6252 16.0972 17.6252 16.4058 17.6C16.7301 17.5735 17.0456 17.5155 17.3472 17.3618C17.802 17.1301 18.1717 16.7604 18.4034 16.3057C18.557 16.0041 18.6151 15.6886 18.6416 15.3643C18.6668 15.0556 18.6668 14.6796 18.6668 14.2381V7.84568C18.6668 7.40415 18.6668 7.02813 18.6416 6.71945C18.6151 6.39515 18.557 6.07965 18.4034 5.77804C18.1717 5.32332 17.802 4.95362 17.3472 4.72192C17.0456 4.56824 16.7301 4.51022 16.4058 4.48372C16.0972 4.4585 15.7212 4.45851 15.2796 4.45852L14.7268 4.45852L13.6196 3.13011C13.3731 2.8339 13.1653 2.58404 12.902 2.39877C12.6705 2.23593 12.4123 2.115 12.1391 2.04149C11.8282 1.95785 11.5031 1.95814 11.1178 1.95848L8.88275 1.95848ZM8.32942 3.47262C8.39352 3.46127 8.46895 3.45858 8.80151 3.45858H11.1991C11.5316 3.45858 11.607 3.46127 11.6711 3.47261C11.8301 3.50076 11.9789 3.57044 12.1024 3.67459C12.1521 3.71656 12.2025 3.77277 12.4153 4.02817L13.6245 5.47892L13.6345 5.49092C13.6699 5.53386 13.7367 5.61475 13.8184 5.68365C13.9755 5.8162 14.1649 5.90489 14.3673 5.94072C14.4726 5.95935 14.5775 5.95888 14.6332 5.95863L14.6487 5.95858H15.5835C16.2623 5.95858 16.4238 5.96783 16.5334 6.00344C16.8125 6.09412 17.0313 6.31291 17.1219 6.59198C17.1575 6.70158 17.1668 6.86311 17.1668 7.54191V14.5419C17.1668 15.2207 17.1575 15.3822 17.1219 15.4918C17.0313 15.7709 16.8125 15.9897 16.5334 16.0804C16.4238 16.116 16.2623 16.1252 15.5835 16.1252H4.41685C3.73805 16.1252 3.57652 16.116 3.46692 16.0804C3.18785 15.9897 2.96906 15.7709 2.87839 15.4918C2.84277 15.3822 2.83352 15.2207 2.83352 14.5419V7.54191C2.83352 6.86311 2.84277 6.70158 2.87839 6.59198C2.96906 6.31291 3.18785 6.09412 3.46692 6.00344C3.57652 5.96783 3.73805 5.95858 4.41685 5.95858H5.35233L5.36791 5.95863C5.4236 5.95888 5.52853 5.95935 5.63379 5.94071C5.83627 5.90486 6.02567 5.81614 6.18281 5.68353C6.26451 5.61459 6.33132 5.53367 6.36677 5.49072L6.3767 5.47873L7.58507 4.0284C7.79794 3.7729 7.84829 3.71667 7.89804 3.67468C8.02152 3.57049 8.17033 3.50078 8.32942 3.47262Z" fill="white"/>
</svg>
