<svg width="12" height="12" viewBox="0 0 12 12" fill="none" xmlns="http://www.w3.org/2000/svg">
<path d="M6.9314 7.35374C6.61248 7.74626 6.45302 7.94252 6.26104 8.01378C6.09267 8.07627 5.90747 8.07627 5.7391 8.01378C5.54712 7.94252 5.38766 7.74626 5.06874 7.35374L4.3399 6.45671C3.83164 5.83115 3.5775 5.51837 3.57582 5.25479C3.57436 5.02559 3.67778 4.8083 3.85659 4.66491C4.06222 4.5 4.46522 4.5 5.27124 4.5H6.7289C7.53492 4.5 7.93793 4.5 8.14356 4.66491C8.32236 4.8083 8.42578 5.02559 8.42432 5.25479C8.42264 5.51837 8.1685 5.83115 7.66024 6.45671L6.9314 7.35374Z" fill="#171719"/>
</svg>
