<svg width="16" height="16" viewBox="0 0 16 16" fill="none" xmlns="http://www.w3.org/2000/svg">
<path d="M8.66652 5.33329C8.66652 5.70148 8.36804 5.99996 7.99985 5.99996C7.63167 5.99996 7.33319 5.70148 7.33319 5.33329C7.33319 4.9651 7.63167 4.66663 7.99985 4.66663C8.36804 4.66663 8.66652 4.9651 8.66652 5.33329Z" fill="#37383C" fill-opacity="0.28"/>
<path d="M8.59993 7.66663C8.59993 7.33526 8.3313 7.06663 7.99993 7.06663C7.66857 7.06663 7.39994 7.33526 7.39994 7.66663V10.6666C7.39994 10.998 7.66857 11.2666 7.99993 11.2666C8.3313 11.2666 8.59993 10.998 8.59993 10.6666V7.66663Z" fill="#37383C" fill-opacity="0.28"/>
<path fill-rule="evenodd" clip-rule="evenodd" d="M1.3999 8.00002C1.3999 4.35495 4.35481 1.40002 7.99987 1.40002C11.6449 1.40002 14.5998 4.35495 14.5998 8.00002C14.5998 11.6451 11.6449 14.6 7.99987 14.6C4.35481 14.6 1.3999 11.6451 1.3999 8.00002ZM7.99987 2.60002C5.01755 2.60002 2.5999 5.01769 2.5999 8.00002C2.5999 10.9824 5.01755 13.4 7.99987 13.4C10.9822 13.4 13.3998 10.9824 13.3998 8.00002C13.3998 5.01769 10.9822 2.60002 7.99987 2.60002Z" fill="#37383C" fill-opacity="0.28"/>
</svg>
