<svg width="16" height="16" viewBox="0 0 16 16" fill="none" xmlns="http://www.w3.org/2000/svg">
<path d="M8.5999 5.33329C8.5999 5.00192 8.33127 4.73329 7.9999 4.73329C7.66853 4.73329 7.3999 5.00192 7.3999 5.33329V7.39996H5.33324C5.00187 7.39996 4.73324 7.66859 4.73324 7.99996C4.73324 8.33133 5.00187 8.59996 5.33324 8.59996H7.3999V10.6666C7.3999 10.998 7.66853 11.2666 7.9999 11.2666C8.33127 11.2666 8.5999 10.998 8.5999 10.6666V8.59996H10.6666C10.9979 8.59996 11.2666 8.33133 11.2666 7.99996C11.2666 7.66859 10.9979 7.39996 10.6666 7.39996H8.5999V5.33329Z" fill="#37383C" fill-opacity="0.61"/>
<path fill-rule="evenodd" clip-rule="evenodd" d="M7.99988 1.40002C4.35481 1.40002 1.3999 4.35495 1.3999 8.00002C1.3999 11.6451 4.35481 14.6 7.99988 14.6C11.6449 14.6 14.5999 11.6451 14.5999 8.00002C14.5999 4.35495 11.6449 1.40002 7.99988 1.40002ZM2.5999 8.00002C2.5999 5.01769 5.01755 2.60002 7.99988 2.60002C10.9822 2.60002 13.3999 5.01769 13.3999 8.00002C13.3999 10.9824 10.9822 13.4 7.99988 13.4C5.01755 13.4 2.5999 10.9824 2.5999 8.00002Z" fill="#37383C" fill-opacity="0.61"/>
</svg>
