<svg width="14" height="14" viewBox="0 0 14 14" fill="none" xmlns="http://www.w3.org/2000/svg">
<path fill-rule="evenodd" clip-rule="evenodd" d="M3.4454 1.80725H10.5544C10.874 1.80724 11.1489 1.80723 11.363 1.82637C11.5676 1.84466 11.8371 1.8869 12.0509 2.06609C12.3191 2.29084 12.4654 2.62902 12.4456 2.97836C12.4298 3.25691 12.2761 3.48225 12.1493 3.64393C12.0167 3.81309 11.8284 4.01345 11.6096 4.24635L8.69158 7.35267V11.0562L8.69169 11.0651C8.69237 11.1047 8.69452 11.2299 8.65332 11.3493C8.61949 11.4474 8.56427 11.5367 8.49167 11.6109C8.40325 11.7012 8.29034 11.7552 8.25458 11.7723L8.24658 11.7762L6.46144 12.6688C6.40529 12.6969 6.3352 12.732 6.27172 12.7568C6.20438 12.7831 6.06993 12.8294 5.90594 12.8052C5.71546 12.7771 5.54499 12.6717 5.43463 12.5139C5.33963 12.3781 5.32098 12.2371 5.31439 12.1651C5.30818 12.0972 5.30822 12.0189 5.30825 11.9561L5.30826 7.35267L2.39018 4.24632C2.17139 4.01343 1.98316 3.81308 1.85053 3.64393C1.72375 3.48225 1.57001 3.25691 1.55421 2.97836C1.53439 2.62902 1.6807 2.29084 1.94889 2.06609C2.16272 1.8869 2.43222 1.84466 2.63687 1.82637C2.85095 1.80723 3.12588 1.80724 3.4454 1.80725ZM2.61824 2.95552L6.2159 6.7853C6.30735 6.88265 6.35825 7.01119 6.35825 7.14475V11.5464L7.64158 10.9048V7.14475C7.64158 7.01119 7.69249 6.88265 7.78393 6.7853L11.3816 2.95553C11.4166 2.91828 11.3902 2.85725 11.3391 2.85725H2.66076C2.60965 2.85725 2.58325 2.91828 2.61824 2.95552Z" fill="#37383C" fill-opacity="0.61"/>
</svg>
