<svg width="106" height="156" viewBox="0 0 106 156" fill="none" xmlns="http://www.w3.org/2000/svg">
<path d="M106.543 127.439C79.2378 143.204 44.3225 133.849 28.5577 106.543C12.7929 79.2378 22.1484 44.3225 49.4539 28.5577C76.7593 12.7929 111.675 22.1485 127.439 49.4539C143.204 76.7593 133.849 111.675 106.543 127.439Z" fill="#ECB14A"/>
<path d="M49.4541 28.5579C76.7595 12.7932 111.674 22.1488 127.439 49.4542C143.204 76.7596 133.848 111.675 106.543 127.439C79.4508 143.081 44.8676 133.993 28.9307 107.18L28.5578 106.543C12.9162 79.451 22.004 44.8677 48.8175 28.9309L49.4541 28.5579ZM125.32 50.6774C110.231 24.5425 76.8123 15.588 50.6773 30.677C24.5423 45.7661 15.5878 79.1849 30.6769 105.32C45.766 131.455 79.1848 140.409 105.32 125.32C131.455 110.231 140.409 76.8124 125.32 50.6774Z" fill="black"/>
<path d="M99.9757 58.3584C100.651 58.3812 101.18 58.9468 101.158 59.6221C101.135 60.2973 100.569 60.8265 99.8939 60.8039L94.9497 60.637L97.6749 64.5311C98.0621 65.0847 97.927 65.8479 97.3734 66.2353C96.8198 66.6225 96.0566 66.4874 95.6692 65.9339L91.5405 60.0337C91.2749 59.6539 91.2471 59.1567 91.4681 58.7493C91.6891 58.3418 92.121 58.0941 92.5843 58.1096L99.9757 58.3584Z" fill="black"/>
<path d="M79.9161 46.4165C80.4896 46.0593 81.2441 46.2347 81.6014 46.8082L85.5126 53.0849C85.7577 53.4784 85.7591 53.9763 85.5167 54.3714C85.2744 54.7665 84.8299 54.9911 84.3681 54.9509L77.1941 54.3255C76.521 54.2668 76.0224 53.6733 76.081 53.0003C76.1397 52.3272 76.7331 51.8286 77.4062 51.8871L82.1404 52.2997L79.5245 48.1017C79.1673 47.5283 79.3427 46.7738 79.9161 46.4165Z" fill="black"/>
<path d="M91.0066 63.8454L81.5246 57.4291C81.5246 57.4291 73.3276 69.1796 77.8647 72.741C82.4017 76.3023 91.0066 63.8454 91.0066 63.8454Z" fill="white"/>
<path d="M82.2105 56.416L91.6925 62.8323C91.9628 63.0153 92.1488 63.299 92.2091 63.6199C92.2693 63.9407 92.1987 64.2721 92.0132 64.5407L92.0108 64.5448C92.0095 64.5467 92.0077 64.5494 92.0054 64.5527C92.0005 64.5597 91.9932 64.57 91.9843 64.5828C91.9664 64.6084 91.9406 64.6454 91.907 64.6927C91.8397 64.7876 91.741 64.9244 91.6151 65.0963C91.3637 65.44 91.0009 65.9246 90.5516 66.4939C89.6559 67.6292 88.4032 69.1181 86.9942 70.5016C85.6013 71.8693 83.9809 73.2092 82.3449 73.9645C80.7035 74.7223 78.7624 75.0015 77.109 73.7037C75.5142 72.4519 75.1563 70.5468 75.3027 68.7471C75.4493 66.9461 76.1106 64.9983 76.8727 63.2589C77.6422 61.5026 78.5536 59.8731 79.2672 58.6893C79.6251 58.0956 79.9358 57.6095 80.1582 57.2703C80.2695 57.1007 80.3588 56.9674 80.421 56.8757C80.4521 56.8298 80.4765 56.794 80.4934 56.7694C80.5017 56.7573 80.508 56.7476 80.5126 56.7409C80.5148 56.7377 80.5167 56.7349 80.5181 56.733C80.5187 56.7321 80.5199 56.7313 80.5204 56.7307C80.523 56.7321 80.5722 56.7648 81.5245 57.429L80.5212 56.7293C80.9039 56.1806 81.6565 56.0411 82.2105 56.416ZM81.8666 59.1369C81.7162 59.3745 81.546 59.6483 81.3627 59.9525C80.6811 61.0831 79.8268 62.614 79.1142 64.2404C78.3943 65.8836 77.8563 67.5412 77.7419 68.9449C77.6276 70.3497 77.9466 71.2493 78.62 71.7781C79.2351 72.2609 80.0712 72.3185 81.3192 71.7423C82.5726 71.1636 83.9542 70.057 85.2796 68.7556C86.5889 67.4701 87.7711 66.0674 88.6305 64.9782C88.872 64.6721 89.0862 64.3913 89.2703 64.1473L81.8666 59.1369Z" fill="black"/>
<path d="M37.4703 68.257C35.3403 58.0793 32.9901 61.285 29.0642 67.0373C23.7756 74.7862 29.6706 98.0385 37.1453 107.158C42.3223 117.315 42.6941 106.813 41.6317 99.3872C40.5692 91.9615 38.3711 72.5613 37.4703 68.257Z" fill="#E8A125"/>
<path d="M127.476 65.2601C123.53 53.1477 120.165 47.918 114.93 42.6255C109.321 36.955 112.448 41.3556 117.33 49.8445C122.211 58.3333 122.219 71.013 124.919 78.8195C127.619 86.626 131.422 77.3725 127.476 65.2601Z" fill="#E8A125"/>
</svg>
