<svg width="123" height="174" viewBox="0 0 123 174" fill="none" xmlns="http://www.w3.org/2000/svg">
<path d="M19.895 148.198C52.7511 153.982 85.7828 138.703 98.7828 109.9C111.783 81.0966 81.0533 25.4417 55.7172 23.5116C30.3811 21.5815 7.68689 19.0459 -8.68753 48.5508C-19.4678 67.9758 -35.2947 62.7355 -31.0899 89.9318C-27.1666 115.308 -3.17163 142.028 19.895 148.198Z" fill="#ECB14A"/>
<path d="M55.7173 23.5118C30.3812 21.5817 7.68657 19.046 -8.68784 48.5509C-19.4681 67.9755 -35.2944 62.7355 -31.0897 89.9315C-27.1665 115.307 -3.17153 142.028 19.8951 148.198L20.6651 148.33C53.0092 153.7 85.3704 138.717 98.4742 110.572L98.7829 109.9C111.681 81.3216 81.5307 26.3096 56.3119 23.5666L55.7173 23.5118ZM-6.30681 49.8722C1.55492 35.7062 10.7412 29.4875 20.8352 26.8795C31.1895 24.2042 42.684 25.2499 55.5101 26.227C60.9458 26.6411 67.0513 30.0033 73.0855 35.7459C79.068 41.4393 84.7082 49.2192 89.2095 57.8835C93.709 66.5443 97.0147 75.981 98.4106 84.9411C99.8108 93.9288 99.259 102.225 96.3007 108.779C83.9028 136.248 52.2672 151.076 20.4951 145.537C9.65339 142.607 -1.63405 134.78 -10.7342 124.465C-19.8561 114.126 -26.5354 101.565 -28.3984 89.5158C-29.4166 82.93 -29.1734 78.5975 -28.2659 75.4866C-27.3803 72.451 -25.7957 70.3462 -23.6372 68.3056C-19.3747 64.2761 -11.967 60.0711 -6.30681 49.8722Z" fill="black"/>
<path d="M13.7729 68.2489C13.0215 68.2742 12.4327 68.9037 12.4579 69.6551C12.4832 70.4065 13.1126 70.9953 13.864 70.9701L19.3657 70.7844L16.3333 75.1176C15.9024 75.7336 16.0527 76.5829 16.6687 77.014C17.2847 77.4448 18.134 77.2945 18.5651 76.6785L23.1592 70.1131C23.4548 69.6905 23.4857 69.1372 23.2398 68.6838C22.9939 68.2304 22.5133 67.9548 21.9978 67.9721L13.7729 68.2489Z" fill="black"/>
<path d="M36.5482 55.7466C35.91 55.3491 35.0705 55.5443 34.6729 56.1824L30.3207 63.1669C30.048 63.6047 30.0464 64.1587 30.3161 64.5984C30.5858 65.038 31.0804 65.2879 31.5942 65.2433L39.5771 64.5473C40.3261 64.482 40.8809 63.8216 40.8158 63.0727C40.7505 62.3237 40.0902 61.7689 39.3412 61.834L34.0731 62.2932L36.984 57.6218C37.3815 56.9837 37.1863 56.1442 36.5482 55.7466Z" fill="black"/>
<path d="M26.5327 80.7389L37.6039 74.7427C37.6039 74.7427 35.7729 68.8744 30.1517 71.7241C24.5304 74.5738 26.5327 80.7389 26.5327 80.7389Z" fill="white"/>
<path d="M27.181 81.9364C26.8255 82.1288 26.4028 82.1536 26.0274 82.0036C25.652 81.8536 25.363 81.544 25.2381 81.1595L26.5325 80.7387L25.2372 81.1579L25.2368 81.1572C25.2364 81.1562 25.2361 81.1548 25.2358 81.1537C25.235 81.1513 25.2339 81.1483 25.2329 81.1451C25.2309 81.1388 25.2283 81.131 25.2255 81.1217C25.2198 81.1031 25.2124 81.0785 25.2036 81.0484C25.1861 80.9878 25.1632 80.904 25.1371 80.8002C25.085 80.5928 25.0205 80.3016 24.9635 79.9465C24.8503 79.2407 24.7635 78.2558 24.8806 77.1561C25.1197 74.9114 26.2227 72.1892 29.5355 70.5096C31.1397 69.6963 32.5969 69.446 33.8966 69.6478C35.1936 69.8492 36.1941 70.4795 36.9273 71.1815C37.652 71.8752 38.1391 72.6599 38.4414 73.2489C38.5945 73.5474 38.7062 73.807 38.7809 73.9966C38.8184 74.0917 38.8473 74.1703 38.8675 74.2281C38.8776 74.257 38.8852 74.281 38.8912 74.2993C38.8942 74.3085 38.8965 74.3164 38.8986 74.3227C38.8996 74.3259 38.9007 74.3289 38.9015 74.3313C38.9018 74.3324 38.9022 74.3338 38.9025 74.3348L38.9029 74.3356C38.9031 74.3363 38.9035 74.3372 37.6038 74.7428L38.9038 74.3371C39.0976 74.9583 38.8241 75.6298 38.2518 75.9397L27.181 81.9364ZM35.8315 74.155C35.6297 73.8177 35.3686 73.4583 35.0443 73.1479C34.6172 72.7391 34.1058 72.4358 33.4787 72.3384C32.8541 72.2414 31.9734 72.3272 30.767 72.9388C28.4591 74.1089 27.7536 75.8941 27.5884 77.4443C27.5436 77.8653 27.5403 78.2687 27.5594 78.635L35.8315 74.155Z" fill="black"/>
<path d="M7.0401 38.0357C1.57738 38.4218 -3.01502 53.591 -9.10204 61.2145C-17.6435 71.9119 -23.0964 68.7188 -24.6299 75.7669C-23.1036 86.3456 -2.91564 65.839 1.16996 59.5363C5.25556 53.2336 15.542 37.4347 7.0401 38.0357Z" fill="#E8A125"/>
<path d="M93.245 82.5851C88.9001 71.6141 85.7349 70.3809 80.9513 77.6298C76.1678 84.8788 80.5216 102.51 73.4479 111.832C66.3742 121.155 68.3318 128.845 77.5042 125.212C86.6767 121.579 97.59 93.5561 93.245 82.5851Z" fill="#E8A125"/>
</svg>
