<svg width="148" height="185" viewBox="0 0 148 185" fill="none" xmlns="http://www.w3.org/2000/svg">
<path d="M139.338 166.666C103.628 187.284 57.9654 175.049 37.348 139.338C16.7307 103.628 28.9659 57.9654 64.6762 37.348C100.387 16.7307 146.049 28.9659 166.666 64.6762C187.284 100.387 175.049 146.049 139.338 166.666Z" fill="#E8A125"/>
<path d="M64.6765 37.3482C100.387 16.731 146.049 28.9663 166.666 64.6765C187.283 100.387 175.048 146.049 139.338 166.666C103.907 187.122 58.6782 175.237 37.8359 140.17L37.3482 139.338C16.8919 103.907 28.777 58.6782 63.8439 37.8359L64.6765 37.3482ZM163.895 66.2763C144.161 32.0967 100.456 20.386 66.2762 40.1196C32.0967 59.8532 20.3859 103.559 40.1195 137.738C59.8531 171.918 103.559 183.628 137.738 163.895C171.918 144.161 183.628 100.456 163.895 66.2763Z" fill="black"/>
<path d="M103.252 69.1191L101.043 60.8757C100.814 60.0221 101.321 59.1447 102.175 58.9159C103.028 58.6872 103.906 59.1938 104.134 60.0474L106.343 68.2908C106.572 69.1445 106.065 70.0219 105.212 70.2506C104.358 70.4794 103.481 69.9728 103.252 69.1191Z" fill="black"/>
<path d="M125.026 79.077L133.269 76.8681C134.123 76.6394 135 77.146 135.229 77.9996C135.457 78.8533 134.951 79.7307 134.097 79.9594L125.854 82.1682C125 82.397 124.123 81.8904 123.894 81.0367C123.665 80.1831 124.172 79.3057 125.026 79.077Z" fill="black"/>
<path d="M102.144 94.6955C98.6375 92.6709 110.475 72.4056 110.475 72.4056L119.713 77.7393C119.713 77.7393 108 98.0761 102.144 94.6955Z" fill="white"/>
<path d="M120.514 76.3536L120.651 76.4426C121.308 76.9165 121.513 77.8203 121.1 78.5376L119.714 77.7394C121.063 78.5166 121.1 78.5367 121.1 78.5376L121.063 78.6026C121.039 78.6432 121.005 78.7026 120.96 78.7789C120.87 78.9317 120.738 79.1535 120.569 79.4336C120.231 79.9936 119.742 80.7871 119.138 81.7281C117.933 83.606 116.256 86.0884 114.384 88.4731C112.527 90.8376 110.409 93.1963 108.316 94.7557C106.351 96.2194 103.734 97.4608 101.344 96.0814C100.153 95.3933 99.9101 94.095 99.8956 93.1819C99.88 92.203 100.103 91.0698 100.427 89.9242C101.081 87.6071 102.279 84.7858 103.549 82.1058C104.827 79.4086 106.213 76.7831 107.277 74.8365C107.809 73.8621 108.262 73.0546 108.582 72.4902C108.742 72.208 108.869 71.9863 108.957 71.8345L109.093 71.5991C109.537 70.839 110.513 70.5797 111.275 71.0197L120.514 76.3536ZM111.069 74.596C110.794 75.0845 110.459 75.6856 110.085 76.3712C109.038 78.2876 107.683 80.8549 106.441 83.477C105.19 86.1162 104.086 88.7415 103.507 90.7934C103.214 91.8323 103.088 92.6145 103.096 93.1313C103.098 93.2449 103.106 93.3277 103.115 93.3863C103.692 93.5992 104.706 93.4536 106.404 92.1892C108.153 90.8862 110.063 88.7945 111.866 86.4976C113.654 84.2208 115.271 81.8295 116.445 80.0001C116.859 79.3555 117.215 78.7817 117.503 78.311L111.069 74.596Z" fill="black"/>
<path d="M49.0043 89.2671C46.2187 75.9567 43.145 80.149 38.0106 87.672C31.0942 97.8061 38.8038 128.216 48.5793 140.142C55.3498 153.426 55.836 139.691 54.4465 129.979C53.0571 120.268 50.1823 94.8962 49.0043 89.2671Z" fill="#D19220"/>
<path d="M166.715 85.3476C161.554 69.5069 157.153 62.6674 150.307 55.7458C142.971 48.3299 147.061 54.0852 153.445 65.1869C159.829 76.2887 159.839 92.8712 163.37 103.081C166.902 113.29 171.876 101.188 166.715 85.3476Z" fill="#D19220"/>
</svg>
