<svg width="150" height="205" viewBox="0 0 150 205" fill="none" xmlns="http://www.w3.org/2000/svg">
<path d="M28.3222 174.176C66.9376 180.973 105.759 163.016 121.038 129.164C136.317 95.3121 100.201 29.9014 70.4236 27.633C40.6463 25.3646 13.974 22.3845 -5.27067 57.0614C-17.9406 79.8913 -36.5418 73.7325 -31.6 105.696C-26.989 135.52 1.21211 166.924 28.3222 174.176Z" fill="#E8A125"/>
<path d="M70.4237 27.6332C40.6464 25.3648 13.9737 22.3846 -5.27104 57.0615C-17.941 79.891 -36.5415 73.7325 -31.5998 105.696C-26.9888 135.52 1.21221 166.925 28.3223 174.176L29.2272 174.331C67.2409 180.642 105.275 163.033 120.676 129.955L121.038 129.164C136.198 95.5765 100.762 30.9214 71.1226 27.6976L70.4237 27.6332ZM-2.47263 58.6144C6.76719 41.9652 17.5638 34.6563 29.4272 31.5912C41.5964 28.447 55.1059 29.676 70.1803 30.8244C76.5688 31.311 83.7445 35.2626 90.8364 42.0118C97.8677 48.7033 104.496 57.8469 109.787 68.0299C115.075 78.209 118.96 89.2998 120.601 99.8305C122.247 110.394 121.598 120.144 118.121 127.847C103.55 160.132 66.3689 177.558 29.0274 171.049C16.2852 167.605 3.01921 158.405 -7.67611 146.283C-18.397 134.131 -26.2472 119.368 -28.4367 105.207C-29.6334 97.4669 -29.3475 92.3749 -28.281 88.7188C-27.2402 85.151 -25.3778 82.6773 -22.8409 80.279C-17.8312 75.5431 -9.12496 70.601 -2.47263 58.6144Z" fill="black"/>
<path d="M18.2658 76.3215C17.3826 76.3512 16.6906 77.091 16.7202 77.9741C16.7499 78.8572 17.4897 79.5492 18.3728 79.5197L24.8389 79.3014L21.2749 84.3941C20.7685 85.1182 20.9451 86.1163 21.6691 86.6229C22.3932 87.1294 23.3913 86.9527 23.8979 86.2287L29.2974 78.5125C29.6448 78.0158 29.6811 77.3655 29.3921 76.8326C29.1031 76.2997 28.5382 75.9758 27.9324 75.9961L18.2658 76.3215Z" fill="black"/>
<path d="M44.5 60.7038C43.75 60.2367 42.7634 60.466 42.296 61.216L37.1809 69.4249C36.8604 69.9394 36.8585 70.5906 37.1755 71.1073C37.4925 71.624 38.0738 71.9177 38.6777 71.8652L48.0599 71.0472C48.9402 70.9704 49.5922 70.1944 49.5157 69.3141C49.4389 68.4338 48.6629 67.7818 47.7826 67.8583L41.5911 68.398L45.0122 62.9078C45.4794 62.1578 45.25 61.1711 44.5 60.7038Z" fill="black"/>
<path d="M29.9957 83.4975L42.3963 75.1062C42.3963 75.1062 53.1164 90.4736 47.1828 95.1312C41.2492 99.7888 29.9957 83.4975 29.9957 83.4975Z" fill="white"/>
<path d="M41.4989 73.7812L29.0983 82.1725C28.7448 82.4119 28.5015 82.783 28.4227 83.2026C28.344 83.6221 28.4363 84.0555 28.6789 84.4068L28.682 84.4122C28.6838 84.4147 28.6861 84.4182 28.6891 84.4225C28.6955 84.4316 28.705 84.4452 28.7167 84.4619C28.7401 84.4953 28.7738 84.5437 28.8178 84.6057C28.9058 84.7297 29.035 84.9086 29.1995 85.1335C29.5284 85.583 30.0029 86.2167 30.5904 86.9613C31.7619 88.4459 33.4 90.3932 35.2428 92.2026C37.0644 93.9912 39.1837 95.7435 41.3232 96.7313C43.4698 97.7224 46.0084 98.0876 48.1707 96.3903C50.2564 94.7531 50.7245 92.2616 50.533 89.9079C50.3413 87.5526 49.4764 85.0052 48.4798 82.7305C47.4734 80.4335 46.2815 78.3025 45.3482 76.7543C44.8802 75.9779 44.4739 75.3421 44.183 74.8985C44.0375 74.6767 43.9206 74.5024 43.8393 74.3824C43.7986 74.3224 43.7667 74.2755 43.7446 74.2434C43.7337 74.2276 43.7256 74.2149 43.7195 74.2062C43.7166 74.202 43.7141 74.1984 43.7123 74.1959C43.7115 74.1946 43.7099 74.1936 43.7093 74.1928C43.7059 74.1947 43.6415 74.2374 42.3962 75.1061L43.7083 74.191C43.2077 73.4734 42.2235 73.2909 41.4989 73.7812ZM41.9487 77.3397C42.1454 77.6504 42.368 78.0085 42.6078 78.4063C43.4991 79.8849 44.6164 81.8871 45.5483 84.014C46.4898 86.163 47.1934 88.3309 47.343 90.1666C47.4926 92.0039 47.0753 93.1803 46.1946 93.8719C45.3902 94.5033 44.2968 94.5787 42.6647 93.8252C41.0254 93.0683 39.2186 91.6211 37.4852 89.9191C35.7729 88.2379 34.2268 86.4034 33.1029 84.979C32.7869 84.5787 32.5068 84.2114 32.2661 83.8923L41.9487 77.3397Z" fill="black"/>
<path d="M13.2138 44.7031C6.7935 45.1569 1.3961 62.9852 -5.75793 71.9449C-15.7966 84.5175 -22.2054 80.7647 -24.0077 89.0482C-22.2138 101.481 1.51289 77.3801 6.31466 69.9726C11.1164 62.565 23.206 43.9968 13.2138 44.7031Z" fill="#D19220"/>
<path d="M114.53 97.0616C109.423 84.1675 105.703 82.7181 100.081 91.2377C94.4592 99.7573 99.5762 120.479 91.2626 131.436C82.9489 142.393 85.2496 151.43 96.0299 147.16C106.81 142.891 119.637 109.956 114.53 97.0616Z" fill="#D19220"/>
</svg>
