<svg width="14" height="14" viewBox="0 0 14 14" fill="none" xmlns="http://www.w3.org/2000/svg">
<path fill-rule="evenodd" clip-rule="evenodd" d="M3.60457 5.15691C1.89701 5.62287 0.641752 7.18499 0.641752 9.04028C0.641752 9.58377 0.749752 10.1032 0.945803 10.5773L0.578699 11.9234C0.547658 12.0371 0.515624 12.1545 0.497985 12.2544C0.479976 12.3564 0.458911 12.5271 0.52783 12.7076C0.61075 12.9247 0.782292 13.0963 0.999466 13.1792C1.17997 13.2481 1.35066 13.2271 1.45266 13.209C1.55255 13.1914 1.66989 13.1594 1.7836 13.1283L3.12968 12.7612C3.60384 12.9573 4.12325 13.0653 4.66674 13.0653C6.28588 13.0653 7.68172 12.1092 8.32055 10.7308C8.36632 10.7321 8.41225 10.7327 8.45833 10.7327C9.22248 10.7327 9.94699 10.5575 10.5927 10.2446L11.6012 10.5197C11.7899 10.5711 11.9647 10.6188 12.1099 10.6445C12.2573 10.6705 12.4607 10.6917 12.6678 10.6126C12.9315 10.5119 13.1398 10.3036 13.2405 10.0399C13.3196 9.83274 13.2984 9.62935 13.2724 9.48194C13.2467 9.33682 13.199 9.16193 13.1476 8.97328L12.8721 7.96315C13.1837 7.31847 13.3583 6.59535 13.3583 5.83274C13.3583 3.12655 11.1645 0.932739 8.45833 0.932739C5.98144 0.932739 3.93379 2.77053 3.60457 5.15691ZM4.69528 5.01538C6.90509 5.03072 8.69173 6.82685 8.69173 9.04028C8.69173 9.25746 8.67453 9.47062 8.64141 9.67848C9.23507 9.65075 9.79247 9.48883 10.2852 9.22269C10.4038 9.15857 10.5427 9.14261 10.6728 9.1781L11.8567 9.50099C12.0247 9.54679 12.139 9.57764 12.2247 9.59674C12.2056 9.51109 12.1747 9.39676 12.1289 9.22881L11.8057 8.04357C11.7702 7.91358 11.7861 7.77495 11.85 7.65635C12.1423 7.11409 12.3083 6.49359 12.3083 5.83274C12.3083 3.70644 10.5846 1.98274 8.45833 1.98274C6.61251 1.98274 5.07008 3.2817 4.69528 5.01538ZM7.64173 9.04028C7.64173 7.39723 6.30978 6.06528 4.66674 6.06528C3.0237 6.06528 1.69175 7.39723 1.69175 9.04028C1.69175 9.49596 1.79384 9.92633 1.9759 10.311C2.02948 10.4243 2.04081 10.5529 2.00785 10.6738L1.62332 12.0837L3.03327 11.6992C3.15411 11.6662 3.28275 11.6775 3.39597 11.7311C3.78069 11.9132 4.21106 12.0153 4.66674 12.0153C6.30978 12.0153 7.64173 10.6833 7.64173 9.04028Z" fill="#37383C" fill-opacity="0.61"/>
</svg>
