<svg width="14" height="14" viewBox="0 0 14 14" fill="none" xmlns="http://www.w3.org/2000/svg">
<path fill-rule="evenodd" clip-rule="evenodd" d="M0.875 5.48335C0.875 3.463 2.43249 1.80835 4.43332 1.80835C5.44976 1.80835 6.35677 2.23834 6.99998 2.92761C7.64318 2.23834 8.55019 1.80835 9.56663 1.80835C11.5675 1.80835 13.125 3.463 13.125 5.48335C13.125 6.43997 12.7787 7.24545 12.2378 7.99315C11.7069 8.72701 10.9684 9.43145 10.1572 10.1847L10.1547 10.187L7.97332 12.1866C7.87251 12.2791 7.77575 12.3678 7.68782 12.4365C7.59128 12.512 7.47362 12.5895 7.3241 12.6352C7.11285 12.6998 6.88711 12.6998 6.67586 12.6352C6.52633 12.5895 6.40867 12.512 6.31213 12.4365C6.22419 12.3678 6.12746 12.2791 6.02664 12.1867L3.84523 10.187L3.84275 10.1847C3.03152 9.43145 2.29301 8.72701 1.76213 7.99315C1.22124 7.24545 0.875 6.43997 0.875 5.48335ZM4.43331 2.85824C3.05082 2.85824 1.92499 4.00359 1.92499 5.48324C1.92499 6.15995 2.16208 6.75447 2.61285 7.37761C3.07341 8.01426 3.73446 8.65117 4.55599 9.41405L6.96055 11.6182C6.98285 11.6387 7.01708 11.6387 7.03939 11.6182L9.44397 9.41403C10.2655 8.65116 10.9265 8.01425 11.3871 7.37761C11.8379 6.75447 12.075 6.15995 12.075 5.48324C12.075 4.00359 10.9491 2.85824 9.56663 2.85824C8.67242 2.85824 7.89374 3.33264 7.44863 4.06517C7.35342 4.22188 7.18334 4.31755 6.99997 4.31755C6.8166 4.31755 6.64652 4.22188 6.55131 4.06517C6.1062 3.33264 5.32752 2.85824 4.43331 2.85824Z" fill="#37383C" fill-opacity="0.61"/>
</svg>
