<svg width="24" height="24" viewBox="0 0 24 24" fill="none" xmlns="http://www.w3.org/2000/svg">
<path fill-rule="evenodd" clip-rule="evenodd" d="M1.5 9.4001C1.5 5.93664 4.16999 3.1001 7.59998 3.1001C9.34245 3.1001 10.8973 3.83723 12 5.01883C13.1026 3.83723 14.6575 3.1001 16.3999 3.1001C19.8299 3.1001 22.4999 5.93664 22.4999 9.4001C22.4999 11.04 21.9064 12.4208 20.9791 13.7026C20.069 14.9607 18.803 16.1683 17.4123 17.4596L17.4081 17.4635L13.6686 20.8915C13.4957 21.0499 13.3299 21.202 13.1791 21.3198C13.0136 21.4492 12.8119 21.5821 12.5556 21.6605C12.1934 21.7712 11.8065 21.7712 11.4443 21.6605C11.188 21.5821 10.9863 21.4492 10.8208 21.3198C10.67 21.202 10.5042 21.0499 10.3314 20.8915L6.59183 17.4635L6.58757 17.4596C5.1969 16.1683 3.93087 14.9607 3.02079 13.7026C2.09356 12.4208 1.5 11.04 1.5 9.4001ZM7.59996 4.8999C5.22997 4.8999 3.29998 6.86336 3.29998 9.3999C3.29998 10.56 3.70642 11.5792 4.47918 12.6474C5.2687 13.7388 6.40194 14.8307 7.81027 16.1384L11.9324 19.9171C11.9706 19.9521 12.0293 19.9521 12.0675 19.917L16.1897 16.1384C17.598 14.8306 18.7312 13.7388 19.5207 12.6474C20.2935 11.5792 20.6999 10.56 20.6999 9.3999C20.6999 6.86336 18.7699 4.8999 16.3999 4.8999C14.867 4.8999 13.5321 5.71317 12.7691 6.96893C12.6059 7.23757 12.3143 7.40158 11.9999 7.40158C11.6856 7.40158 11.394 7.23757 11.2308 6.96893C10.4678 5.71317 9.13289 4.8999 7.59996 4.8999Z" fill="#37383C" fill-opacity="0.28"/>
</svg>
