<svg width="14" height="14" viewBox="0 0 14 14" fill="none" xmlns="http://www.w3.org/2000/svg">
<path fill-rule="evenodd" clip-rule="evenodd" d="M9.77061 1.37122C8.67525 1.37122 7.78729 2.25918 7.78729 3.35455C7.78729 3.51013 7.8052 3.66152 7.83908 3.80678L4.49241 5.62562C4.13154 5.25015 3.62421 5.01648 3.06231 5.01648C1.96694 5.01648 1.07898 5.90445 1.07898 6.99981C1.07898 8.09518 1.96694 8.98315 3.06231 8.98315C3.62384 8.98315 4.13086 8.74978 4.49169 8.37475L7.83896 10.1939C7.80516 10.339 7.78729 10.4903 7.78729 10.6456C7.78729 11.741 8.67525 12.629 9.77061 12.629C10.866 12.629 11.7539 11.741 11.7539 10.6456C11.7539 9.55028 10.866 8.66231 9.77061 8.66231C9.20871 8.66231 8.70138 8.89598 8.34051 9.27145L4.99372 7.45254C5.02768 7.30713 5.04563 7.15557 5.04563 6.99981C5.04563 6.84442 5.02776 6.6932 4.99396 6.54809L8.34087 4.72912C8.70172 5.10437 9.2089 5.33788 9.77061 5.33788C10.866 5.33788 11.7539 4.44991 11.7539 3.35455C11.7539 2.25918 10.866 1.37122 9.77061 1.37122ZM8.83728 3.35455C8.83728 2.83908 9.25515 2.42122 9.77061 2.42122C10.2861 2.42122 10.7039 2.83908 10.7039 3.35455C10.7039 3.87002 10.2861 4.28788 9.77061 4.28788C9.25515 4.28788 8.83728 3.87002 8.83728 3.35455ZM2.12898 6.99981C2.12898 6.48435 2.54684 6.06648 3.06231 6.06648C3.57777 6.06648 3.99564 6.48435 3.99564 6.99981C3.99564 7.51528 3.57777 7.93315 3.06231 7.93315C2.54684 7.93315 2.12898 7.51528 2.12898 6.99981ZM8.83728 10.6456C8.83728 10.1302 9.25515 9.71231 9.77061 9.71231C10.2861 9.71231 10.7039 10.1302 10.7039 10.6456C10.7039 11.1611 10.2861 11.579 9.77061 11.579C9.25515 11.579 8.83728 11.1611 8.83728 10.6456Z" fill="#37383C" fill-opacity="0.61"/>
</svg>
