<svg width="20" height="20" viewBox="0 0 20 20" fill="none" xmlns="http://www.w3.org/2000/svg">
<path fill-rule="evenodd" clip-rule="evenodd" d="M17.92 10.188C17.92 9.60312 17.8677 9.04028 17.7696 8.50037H10V11.6913H14.4403C14.2487 12.7225 13.6676 13.597 12.794 14.1819V16.2517H15.4596C17.0198 14.8153 17.92 12.7005 17.92 10.188Z" fill="#4285F4"/>
<path fill-rule="evenodd" clip-rule="evenodd" d="M10.0002 18.2503C12.2277 18.2503 14.0949 17.5115 15.4598 16.252L12.7942 14.1812C12.0553 14.6762 11.1102 14.9686 10.0002 14.9686C7.8515 14.9686 6.03284 13.5176 5.38385 11.5678H2.62744V13.7055C3.98502 16.4014 6.77534 18.2503 10.0002 18.2503Z" fill="#31A752"/>
<path fill-rule="evenodd" clip-rule="evenodd" d="M5.38365 11.5678C5.21865 11.0728 5.12515 10.5439 5.12515 10.0003C5.12515 9.45675 5.21865 8.92783 5.38365 8.43283V6.29517H2.62725C2.069 7.40892 1.75 8.66933 1.75 10.0003C1.75 11.3313 2.069 12.5918 2.62725 13.7055L5.38365 11.5678Z" fill="#F9BA00"/>
<path fill-rule="evenodd" clip-rule="evenodd" d="M10.0002 5.03167C11.2111 5.03167 12.2992 5.44783 13.1535 6.2655L15.5203 3.89958C14.0912 2.56767 12.224 1.75 10.0002 1.75C6.77534 1.75 3.98502 3.59892 2.62744 6.29575L5.38385 8.4325C6.03284 6.48275 7.8515 5.03167 10.0002 5.03167Z" fill="#E64234"/>
</svg>
