<svg width="264" height="240" viewBox="0 0 264 240" fill="none" xmlns="http://www.w3.org/2000/svg">
<path d="M133.5 202.5C167.777 202.5 198.832 203.956 221.338 206.315C232.582 207.494 241.742 208.903 248.116 210.483C251.292 211.27 253.86 212.12 255.665 213.045C256.565 213.506 257.355 214.025 257.938 214.627C258.526 215.234 259 216.031 259 217C259 217.968 258.526 218.766 257.938 219.373C257.355 219.975 256.565 220.494 255.665 220.955C253.86 221.88 251.292 222.729 248.116 223.516C241.742 225.096 232.582 226.506 221.338 227.684C198.832 230.044 167.777 231.5 133.5 231.5C99.2234 231.5 68.1685 230.044 45.6624 227.684C34.4189 226.506 25.2589 225.096 18.884 223.516C15.7086 222.729 13.1405 221.88 11.3352 220.955C10.4352 220.494 9.64561 219.975 9.06274 219.373C8.4748 218.766 8.00024 217.968 8.00024 217C8.00024 216.031 8.4748 215.234 9.06274 214.627C9.64561 214.025 10.4352 213.506 11.3352 213.045C13.1405 212.12 15.7086 211.27 18.884 210.483C25.2589 208.903 34.4189 207.494 45.6624 206.315C68.1685 203.956 99.2234 202.5 133.5 202.5Z" fill="#663A00" stroke="black" stroke-width="3"/>
<path d="M76.3852 101.111C56.608 131.042 54.3144 149.414 65.3498 175.813C76.3852 202.211 94.2521 214.812 127.121 214.812C178.332 214.812 182.523 203.007 193.715 167.559C204.906 132.112 197.805 96.3462 169.398 87.0689C131.562 74.7122 102.182 62.0703 76.3852 101.111Z" fill="#E8A125"/>
<path d="M76.3853 101.111C102.182 62.0705 131.563 74.7124 169.398 87.0691C197.805 96.3466 204.906 132.112 193.715 167.559L192.684 170.814C182.216 203.733 176.731 214.812 127.121 214.812V211.442C152.733 211.442 165.568 208.427 173.485 201.822C181.436 195.188 185.035 184.511 190.727 166.482C196.171 149.238 197.083 132.154 193.376 118.436C189.698 104.826 181.51 94.5488 168.477 90.2921C149.284 84.0239 133.089 78.0177 118.411 78.1855C111.198 78.268 104.452 79.8572 98.0036 83.6596C91.5377 87.4723 85.2005 93.6111 78.9604 103.055C69.1834 117.851 63.9875 129.419 62.4298 140.296C60.8856 151.08 62.8614 161.599 68.2288 174.438C73.5572 187.185 80.4102 196.323 89.6818 202.33C98.9864 208.359 111.046 211.442 127.121 211.442V214.812L125.591 214.803C94.2017 214.421 76.7715 202.196 65.8723 177.041L65.3498 175.813C54.4869 149.827 56.5394 131.618 75.4708 102.505L76.3853 101.111Z" fill="black"/>
<path d="M119.594 117.312H111.583C110.755 117.312 110.083 116.64 110.083 115.812C110.083 114.983 110.755 114.312 111.583 114.312H119.594C120.422 114.312 121.094 114.983 121.094 115.812C121.094 116.64 120.422 117.311 119.594 117.312Z" fill="black"/>
<path d="M141.951 117.312H133.94C133.112 117.312 132.44 116.64 132.44 115.812C132.44 114.983 133.112 114.312 133.94 114.312H141.951C142.779 114.312 143.451 114.983 143.451 115.812C143.451 116.64 142.779 117.311 141.951 117.312Z" fill="black"/>
<path d="M136.21 131.253C136.823 123.356 118.851 125.897 117.817 126.741C116.784 127.584 117.416 132.758 118.89 134.073C120.365 135.387 135.597 139.149 136.21 131.253Z" fill="white"/>
<path d="M121.023 124.491C122.913 124.249 125.33 124.092 127.713 124.221C130.06 124.348 132.541 124.761 134.444 125.774C135.413 126.289 136.294 126.992 136.904 127.952C137.526 128.931 137.806 130.083 137.706 131.368C137.505 133.951 136.05 135.627 134.101 136.562C132.25 137.449 129.964 137.677 127.83 137.615C125.666 137.553 123.495 137.186 121.766 136.751C120.901 136.533 120.124 136.293 119.498 136.054C118.944 135.843 118.305 135.56 117.892 135.193C117.246 134.617 116.825 133.768 116.547 133.008C116.252 132.205 116.045 131.301 115.927 130.433C115.809 129.569 115.771 128.679 115.849 127.906C115.888 127.521 115.96 127.12 116.091 126.748C116.213 126.398 116.437 125.931 116.869 125.578L116.984 125.491C117.259 125.302 117.565 125.196 117.725 125.143C117.976 125.059 118.274 124.98 118.595 124.906C119.243 124.758 120.078 124.613 121.023 124.491ZM127.55 127.217C125.387 127.1 123.156 127.242 121.404 127.467C120.529 127.579 119.795 127.709 119.264 127.83C119.11 127.865 118.98 127.899 118.874 127.929C118.859 128.004 118.845 128.096 118.834 128.208C118.786 128.684 118.804 129.328 118.899 130.027C118.994 130.723 119.156 131.411 119.363 131.975C119.585 132.581 119.797 132.872 119.888 132.953C119.845 132.914 120.003 133.036 120.567 133.251C121.059 133.439 121.72 133.646 122.499 133.842C124.06 134.235 126.012 134.562 127.917 134.617C129.852 134.673 131.58 134.443 132.803 133.857C133.93 133.317 134.609 132.502 134.715 131.136C134.768 130.447 134.62 129.951 134.372 129.561C134.112 129.152 133.682 128.766 133.036 128.422C131.71 127.716 129.748 127.336 127.55 127.217Z" fill="black"/>
<path d="M130.633 143.939C132.61 145.227 133.767 143.425 134.201 139.2C134.508 136.202 135.023 134.505 134.201 133.718C133.445 132.996 131.568 133.043 129.559 133.559C129.203 133.65 128.934 133.942 128.879 134.306C128.443 137.169 128.552 142.582 130.633 143.939Z" fill="#15DCFF"/>
<path d="M190.267 120.812C194.757 130.296 190.61 138.62 186.866 140.393C183.122 142.165 179.257 124.296 174.767 114.812C170.277 105.328 165.523 100.585 169.267 98.8122C173.011 97.0398 185.777 111.328 190.267 120.812Z" fill="#D19220"/>
<path d="M84.8218 196.65C91.6603 204.032 107.222 208 110.267 204.312C113.311 200.624 103.717 192.543 96.8784 185.162C90.0399 177.781 76.5044 164.769 73.4599 168.457C70.4155 172.145 77.9833 189.269 84.8218 196.65Z" fill="#D19220"/>
<path d="M59.8072 40.6053C68.0381 39.4029 82.6217 40.1818 75.1091 52.9165C67.5965 65.6513 58.1033 79.3024 54.2957 84.5361" stroke="black" stroke-width="3"/>
<rect x="54.2719" y="75.4016" width="8" height="51" rx="4" transform="rotate(21.329 54.2719 75.4016)" fill="#5A5C63" stroke="black" stroke-width="3"/>
<path d="M51.5422 29.5982C53.4161 27.1641 55.2535 25.4042 56.9686 24.5118C58.6833 23.6197 60.0706 23.7468 61.3131 24.4209C62.6586 25.151 63.946 26.5928 65.1249 28.5341C67.4729 32.4007 69.0174 37.6119 69.7795 40.6518C69.8105 40.7759 69.7838 40.8869 69.7012 40.9875C69.6124 41.0955 69.4643 41.1784 69.2786 41.1812C60.7181 41.3068 56.0146 42.9862 51.8869 45.826C49.8858 47.2027 48.0336 48.8439 46.0077 50.5863C43.9633 52.3445 41.6745 54.2665 38.7036 56.319C38.583 56.4023 38.5052 56.4079 38.4704 56.4063C38.4263 56.4043 38.3773 56.3874 38.3318 56.3509C38.2862 56.3144 38.2528 56.2649 38.2372 56.2096C38.224 56.1627 38.2134 56.0752 38.2665 55.9346C39.9899 51.3757 42.815 44.4299 46.1901 38.124C47.878 34.9703 49.686 32.0093 51.5422 29.5982Z" fill="#989BA2" stroke="black" stroke-width="3" stroke-linecap="round"/>
<path d="M54.4505 105.53C53.0193 109.196 48.8875 111.007 45.222 109.576C41.5565 108.145 39.7453 104.013 41.1765 100.347C42.6078 96.6819 46.7395 94.8707 50.4051 96.302C54.0706 97.7332 55.8818 101.865 54.4505 105.53Z" fill="#E8A125"/>
<path d="M54.4506 105.53C55.8819 101.865 54.0707 97.7332 50.4052 96.302C46.7396 94.8707 42.6079 96.6819 41.1766 100.347C39.7454 104.013 41.5566 108.145 45.2221 109.576C48.8876 111.007 53.0193 109.196 54.4506 105.53ZM56.6629 106.394C54.7546 111.282 49.2456 113.697 44.3583 111.788C39.4709 109.88 37.056 104.371 38.9643 99.4836C40.8727 94.5963 46.3817 92.1813 51.269 94.0896C56.1563 95.998 58.5713 101.507 56.6629 106.394Z" fill="black"/>
<rect x="212" y="77.3123" width="8" height="141" rx="4" fill="#5A5C63" stroke="black" stroke-width="3"/>
<path d="M244.498 35.3123C247.537 35.3123 250 37.7756 250 40.8142V72.6062C250 75.0915 247.985 77.1062 245.5 77.1062H224.584C223.756 77.1062 223.084 77.7779 223.084 78.6062V91.8123C223.084 94.2975 221.069 96.3123 218.584 96.3123H214.584C212.099 96.3123 210.084 94.2975 210.084 91.8123V78.6062C210.084 77.7778 209.412 77.1062 208.584 77.1062H187.5C185.015 77.1062 183 75.0915 183 72.6062V40.8103C183 37.7739 185.462 35.3123 188.498 35.3123C191.537 35.3123 193.999 37.7776 193.996 40.8162L193.975 61.4978C193.974 62.3268 194.646 62.9997 195.475 62.9998H199.5C200.328 62.9998 201 62.3282 201 61.4998V41.3523C201 38.0167 203.704 35.3123 207.04 35.3123C210.378 35.3125 213.083 38.0202 213.079 41.3582L213.059 61.4978C213.058 62.3268 213.73 62.9997 214.559 62.9998H219.5C220.328 62.9998 221 62.3282 221 61.4998V41.3103C221 37.9979 223.686 35.3123 226.998 35.3123C230.313 35.3124 232.999 38.0014 232.995 41.3162L232.975 61.4978C232.974 62.3268 233.646 62.9997 234.475 62.9998H237.475C238.302 62.9998 238.974 62.3293 238.975 61.5017L238.996 40.8083C238.999 37.772 241.462 35.3123 244.498 35.3123Z" fill="#B0B0B0" stroke="black" stroke-width="3"/>
<path d="M223 139C223 143.142 219.642 146.5 215.5 146.5C211.358 146.5 208 143.142 208 139C208 134.858 211.358 131.5 215.5 131.5C219.642 131.5 223 134.858 223 139Z" fill="#E8A125"/>
<path d="M223 139C223 134.858 219.642 131.5 215.5 131.5C211.358 131.5 208 134.858 208 139C208 143.142 211.358 146.5 215.5 146.5C219.642 146.5 223 143.142 223 139ZM225.5 139C225.5 144.523 221.023 149 215.5 149C209.977 149 205.5 144.523 205.5 139C205.5 133.477 209.977 129 215.5 129C221.023 129 225.5 133.477 225.5 139Z" fill="black"/>
<mask id="path-20-outside-1_1035_11224" maskUnits="userSpaceOnUse" x="103.825" y="53.8662" width="36" height="34" fill="black">
<rect fill="white" x="103.825" y="53.8662" width="36" height="34"/>
<path d="M135.418 56.8693C135.982 56.8303 136.441 57.2796 136.386 57.8415C136.207 59.6372 135.523 63.3431 132.895 65.3428C130.612 67.0793 126.639 67.6993 124.088 67.9214C123.632 67.9611 123.251 68.2949 123.192 68.7487C122.652 72.9371 123.878 77.9008 127.359 82.0947C127.888 82.7321 127.8 83.678 127.162 84.207C126.525 84.7361 125.579 84.6481 125.05 84.0107C121.225 79.4015 119.693 73.8884 120.146 68.9977C120.2 68.42 119.786 67.8933 119.21 67.8279C116.697 67.5429 113.345 66.8823 111.322 65.3428C108.694 63.343 108.009 59.6369 107.831 57.8412C107.775 57.2795 108.235 56.8303 108.798 56.8693C111.057 57.0259 116.447 57.5928 118.977 59.5176C120.744 60.8623 121.637 63.2699 122.087 65.1848C122.09 65.1945 122.098 65.2012 122.108 65.2011C122.119 65.2009 122.128 65.1939 122.13 65.1836C122.58 63.2689 123.474 60.8619 125.24 59.5176C127.77 57.5931 133.159 57.026 135.418 56.8693Z"/>
</mask>
<path d="M135.418 56.8693C135.982 56.8303 136.441 57.2796 136.386 57.8415C136.207 59.6372 135.523 63.3431 132.895 65.3428C130.612 67.0793 126.639 67.6993 124.088 67.9214C123.632 67.9611 123.251 68.2949 123.192 68.7487C122.652 72.9371 123.878 77.9008 127.359 82.0947C127.888 82.7321 127.8 83.678 127.162 84.207C126.525 84.7361 125.579 84.6481 125.05 84.0107C121.225 79.4015 119.693 73.8884 120.146 68.9977C120.2 68.42 119.786 67.8933 119.21 67.8279C116.697 67.5429 113.345 66.8823 111.322 65.3428C108.694 63.343 108.009 59.6369 107.831 57.8412C107.775 57.2795 108.235 56.8303 108.798 56.8693C111.057 57.0259 116.447 57.5928 118.977 59.5176C120.744 60.8623 121.637 63.2699 122.087 65.1848C122.09 65.1945 122.098 65.2012 122.108 65.2011C122.119 65.2009 122.128 65.1939 122.13 65.1836C122.58 63.2689 123.474 60.8619 125.24 59.5176C127.77 57.5931 133.159 57.026 135.418 56.8693Z" fill="#48AD00"/>
<path d="M132.895 65.3428L134.711 67.7302L134.711 67.7302L132.895 65.3428ZM127.359 82.0947L129.667 80.1791L129.667 80.1788L127.359 82.0947ZM127.162 84.207L129.078 86.5156L129.079 86.5151L127.162 84.207ZM125.05 84.0107L122.742 85.9266L122.742 85.9269L125.05 84.0107ZM111.322 65.3428L109.505 67.7302L109.505 67.7302L111.322 65.3428ZM118.977 59.5176L120.794 57.1303L120.793 57.1302L118.977 59.5176ZM125.24 59.5176L123.424 57.1301L123.424 57.1302L125.24 59.5176ZM120.146 68.9977L123.133 69.2744L120.146 68.9977ZM119.21 67.8279L118.872 70.8088L119.21 67.8279ZM124.088 67.9214L123.828 64.9327L124.088 67.9214ZM123.192 68.7487L120.217 68.3646L123.192 68.7487ZM122.087 65.1848L119.167 65.871L122.087 65.1848ZM122.108 65.2011L122.159 68.2006L122.108 65.2011ZM122.13 65.1836L125.051 65.8701L122.13 65.1836ZM136.386 57.8415L133.4 57.5449L136.386 57.8415ZM136.386 57.8415L133.4 57.5449C133.326 58.2923 133.149 59.392 132.748 60.4682C132.342 61.5577 131.784 62.4181 131.078 62.9554L132.895 65.3428L134.711 67.7302C136.633 66.2678 137.732 64.2754 138.37 62.563C139.013 60.8374 139.267 59.1864 139.371 58.138L136.386 57.8415ZM132.895 65.3428L131.078 62.9553C130.41 63.4637 129.303 63.9297 127.864 64.2898C126.474 64.6376 125.012 64.8296 123.828 64.9327L124.088 67.9214L124.348 70.9101C125.714 70.7911 127.515 70.562 129.321 70.1102C131.077 69.6707 133.097 68.9584 134.711 67.7302L132.895 65.3428ZM123.192 68.7487L120.217 68.3646C119.567 73.3974 121.05 79.1902 125.05 84.0106L127.359 82.0947L129.667 80.1788C126.706 76.6113 125.736 72.4769 126.168 69.1327L123.192 68.7487ZM127.359 82.0947L125.05 84.0104C124.521 83.3726 124.609 82.4278 125.246 81.899L127.162 84.207L129.079 86.5151C130.99 84.9281 131.254 82.0916 129.667 80.1791L127.359 82.0947ZM127.162 84.207L125.246 81.8985C125.884 81.3693 126.829 81.4575 127.358 82.0946L125.05 84.0107L122.742 85.9269C124.329 87.8388 127.166 88.1029 129.078 86.5156L127.162 84.207ZM125.05 84.0107L127.359 82.0948C124.031 78.0854 122.755 73.3575 123.133 69.2744L120.146 68.9977L117.159 68.7211C116.631 74.4193 118.418 80.7176 122.742 85.9266L125.05 84.0107ZM119.21 67.8279L119.548 64.847C118.387 64.7154 117.091 64.5026 115.891 64.1668C114.656 63.8213 113.721 63.3991 113.138 62.9553L111.322 65.3428L109.505 67.7302C110.945 68.8259 112.698 69.5038 114.274 69.9448C115.884 70.3954 117.52 70.6555 118.872 70.8088L119.21 67.8279ZM111.322 65.3428L113.138 62.9554C112.432 62.4181 111.875 61.5576 111.469 60.4681C111.068 59.3918 110.89 58.2921 110.816 57.5447L107.831 57.8412L104.845 58.1377C104.949 59.186 105.203 60.8371 105.846 62.5628C106.484 64.2752 107.583 66.2677 109.505 67.7302L111.322 65.3428ZM108.798 56.8693L108.59 59.8621C109.653 59.9357 111.417 60.1045 113.179 60.4684C115.053 60.8553 116.463 61.3746 117.16 61.905L118.977 59.5176L120.793 57.1302C118.961 55.7358 116.412 55.0093 114.393 54.5924C112.262 54.1525 110.202 53.9595 109.005 53.8765L108.798 56.8693ZM118.977 59.5176L117.16 61.9048C118.046 62.5795 118.746 64.0822 119.167 65.871L122.087 65.1848L125.008 64.4986C124.528 62.4576 123.441 59.1451 120.794 57.1303L118.977 59.5176ZM122.13 65.1836L125.051 65.8701C125.471 64.0812 126.171 62.5793 127.057 61.905L125.24 59.5176L123.424 57.1302C120.777 59.1446 119.69 62.4565 119.21 64.4972L122.13 65.1836ZM125.24 59.5176L127.057 61.9051C127.754 61.3747 129.164 60.8554 131.037 60.4685C132.799 60.1046 134.564 59.9358 135.626 59.8622L135.418 56.8693L135.211 53.8765C134.014 53.9595 131.954 54.1526 129.824 54.5925C127.805 55.0095 125.256 55.736 123.424 57.1301L125.24 59.5176ZM107.831 57.8412L110.816 57.5447C110.954 58.9348 109.775 59.9442 108.59 59.8621L108.798 56.8693L109.005 53.8765C106.694 53.7163 104.596 55.6241 104.845 58.1377L107.831 57.8412ZM120.146 68.9977L123.133 69.2744C123.332 67.1307 121.806 65.1032 119.548 64.847L119.21 67.8279L118.872 70.8088C117.767 70.6835 117.067 69.7093 117.159 68.7211L120.146 68.9977ZM124.088 67.9214L123.828 64.9327C122.106 65.0826 120.473 66.379 120.217 68.3646L123.192 68.7487L126.168 69.1327C126.028 70.2108 125.158 70.8396 124.348 70.9101L124.088 67.9214ZM122.087 65.1848L119.167 65.871C119.487 67.2338 120.716 68.225 122.159 68.2006L122.108 65.2011L122.057 62.2015C123.48 62.1774 124.692 63.1553 125.008 64.4986L122.087 65.1848ZM122.108 65.2011L122.159 68.2006C123.439 68.179 124.711 67.3156 125.051 65.8701L122.13 65.1836L119.21 64.4972C119.545 63.0722 120.798 62.2228 122.057 62.2015L122.108 65.2011ZM136.386 57.8415L139.371 58.138C139.621 55.6245 137.522 53.7162 135.211 53.8765L135.418 56.8693L135.626 59.8622C134.441 59.9443 133.262 58.9348 133.4 57.5449L136.386 57.8415Z" fill="black" mask="url(#path-20-outside-1_1035_11224)"/>
</svg>
