<svg width="16" height="16" viewBox="0 0 16 16" fill="none" xmlns="http://www.w3.org/2000/svg">
<path d="M8.667 5.33326C8.667 5.70145 8.36853 5.99993 8.00034 5.99993C7.63215 5.99993 7.33368 5.70145 7.33368 5.33326C7.33368 4.96507 7.63215 4.6666 8.00034 4.6666C8.36853 4.6666 8.667 4.96507 8.667 5.33326Z" fill="#37383C" fill-opacity="0.28"/>
<path d="M8.60042 7.6666C8.60042 7.33522 8.33179 7.0666 8.00042 7.0666C7.66905 7.0666 7.40043 7.33522 7.40043 7.6666V10.6666C7.40043 10.998 7.66905 11.2666 8.00042 11.2666C8.33179 11.2666 8.60042 10.998 8.60042 10.6666V7.6666Z" fill="#37383C" fill-opacity="0.28"/>
<path fill-rule="evenodd" clip-rule="evenodd" d="M1.40039 7.99999C1.40039 4.35492 4.3553 1.39999 8.00036 1.39999C11.6454 1.39999 14.6003 4.35492 14.6003 7.99999C14.6003 11.6451 11.6454 14.6 8.00036 14.6C4.3553 14.6 1.40039 11.6451 1.40039 7.99999ZM8.00036 2.59999C5.01804 2.59999 2.60039 5.01766 2.60039 7.99999C2.60039 10.9823 5.01804 13.4 8.00036 13.4C10.9827 13.4 13.4003 10.9823 13.4003 7.99999C13.4003 5.01766 10.9827 2.59999 8.00036 2.59999Z" fill="#37383C" fill-opacity="0.28"/>
</svg>
