<svg width="48" height="48" viewBox="0 0 48 48" fill="none" xmlns="http://www.w3.org/2000/svg">
<path fill-rule="evenodd" clip-rule="evenodd" d="M12.6995 17.4978C12.6995 14.8468 14.8486 12.6978 17.4995 12.6978C20.1505 12.6978 22.2995 14.8468 22.2995 17.4978C22.2995 20.1488 20.1505 22.2978 17.4995 22.2978C14.8486 22.2978 12.6995 20.1488 12.6995 17.4978ZM17.4995 16.2978C16.8368 16.2978 16.2995 16.8351 16.2995 17.4978C16.2995 18.1606 16.8368 18.6978 17.4995 18.6978C18.1623 18.6978 18.6995 18.1606 18.6995 17.4978C18.6995 16.8351 18.1623 16.2978 17.4995 16.2978Z" fill="#37383C" fill-opacity="0.16"/>
<path fill-rule="evenodd" clip-rule="evenodd" d="M16.5244 5.19898C14.9083 5.19896 13.5866 5.19894 12.5124 5.2867C11.4006 5.37754 10.3965 5.57131 9.45869 6.04913C7.99103 6.79694 6.79779 7.99019 6.04998 9.45785C5.57216 10.3956 5.37839 11.3998 5.28755 12.5116C5.19979 13.5858 5.19981 14.9074 5.19983 16.5235V31.4744C5.19981 33.0905 5.19979 34.4122 5.28755 35.4864C5.37839 36.5982 5.57216 37.6023 6.04998 38.5401C6.79779 40.0078 7.99103 41.201 9.45869 41.9488C10.3965 42.4267 11.4006 42.6204 12.5124 42.7113C13.5866 42.799 14.9083 42.799 16.5244 42.799H31.4751C33.0912 42.799 34.4129 42.799 35.4871 42.7113C36.5989 42.6204 37.6031 42.4267 38.5408 41.9488C40.0085 41.201 41.2017 40.0078 41.9496 38.5401C42.4274 37.6023 42.6211 36.5982 42.712 35.4864C42.7997 34.4122 42.7997 33.0905 42.7997 31.4744V16.5236C42.7997 14.9075 42.7997 13.5858 42.712 12.5116C42.6211 11.3998 42.4274 10.3956 41.9496 9.45785C41.2017 7.99019 40.0085 6.79694 38.5408 6.04913C37.6031 5.57131 36.5989 5.37754 35.4871 5.2867C34.413 5.19894 33.0913 5.19896 31.4753 5.19898H16.5244ZM11.093 9.25675C11.4387 9.08061 11.9164 8.9474 12.8056 8.87475C13.7158 8.80038 14.8899 8.79898 16.5998 8.79898H31.3997C33.1096 8.79898 34.2837 8.80038 35.1939 8.87475C36.0831 8.9474 36.5608 9.08061 36.9065 9.25675C37.6968 9.65942 38.3393 10.3019 38.7419 11.0922C38.9181 11.4379 39.0513 11.9156 39.1239 12.8048C39.1983 13.715 39.1997 14.8891 39.1997 16.599V21.6547L38.7476 21.2026C37.9983 20.4532 37.3602 19.8151 36.7936 19.3341C36.1983 18.8287 35.5644 18.3917 34.7917 18.1407C33.6268 17.7622 32.372 17.7622 31.2071 18.1407C30.4345 18.3917 29.8006 18.8287 29.2053 19.3341C28.6386 19.8151 28.0006 20.4531 27.2513 21.2025L10.2662 38.1877C9.85188 37.8324 9.50826 37.3977 9.25759 36.9057C9.08145 36.5601 8.94824 36.0824 8.87559 35.1932C8.80122 34.283 8.79982 33.1088 8.79982 31.399V16.599C8.79982 14.8891 8.80122 13.715 8.87559 12.8048C8.94824 11.9156 9.08145 11.4379 9.25759 11.0922C9.66026 10.3019 10.3028 9.65942 11.093 9.25675ZM14.3568 39.1883C14.9882 39.1986 15.7237 39.199 16.5998 39.199H31.3997C33.1096 39.199 34.2837 39.1976 35.1939 39.1232C36.0831 39.0506 36.5608 38.9174 36.9065 38.7412C37.6968 38.3386 38.3393 37.696 38.7419 36.9057C38.9181 36.5601 39.0513 36.0824 39.1239 35.1932C39.1983 34.283 39.1997 33.1088 39.1997 31.399V26.7459L36.2521 23.7982C35.4391 22.9852 34.9049 22.453 34.4637 22.0785C34.0387 21.7177 33.8199 21.6102 33.6793 21.5645C33.2374 21.4209 32.7614 21.4209 32.3196 21.5645C32.1789 21.6102 31.9601 21.7177 31.5351 22.0785C31.094 22.453 30.5598 22.9852 29.7467 23.7982L14.3568 39.1883Z" fill="#37383C" fill-opacity="0.16"/>
</svg>
