<svg width="160" height="110" viewBox="0 0 160 110" fill="none" xmlns="http://www.w3.org/2000/svg">
<g clip-path="url(#clip0_1800_8534)">
<path d="M132.173 121.433C112.846 154.908 70.042 166.377 36.5671 147.05C3.09223 127.724 -8.37712 84.9195 10.9496 51.4446C30.2764 17.9697 73.0806 6.50032 106.555 25.8271C140.03 45.1538 151.5 87.958 132.173 121.433Z" fill="#ECB14A"/>
<path d="M10.95 51.4445C30.2767 17.9697 73.0806 6.50064 106.555 25.8274C140.03 45.1541 151.499 87.958 132.173 121.433C112.997 154.646 70.7093 166.196 37.3533 147.497L36.5672 147.05C3.35379 127.874 -8.19633 85.5867 10.5027 52.2307L10.95 51.4445ZM105.055 28.425C73.0154 9.92674 32.0459 20.9045 13.5476 52.9445C-4.95065 84.9846 6.02716 125.954 38.0672 144.452C70.1072 162.951 111.077 151.973 129.575 119.933C148.073 87.8928 137.095 46.9233 105.055 28.425Z" fill="black"/>
<path d="M82.8552 52.1155C83.5861 51.7257 84.4946 52.0019 84.8845 52.7327C85.2743 53.4636 84.9981 54.3721 84.2673 54.762L78.9158 57.6155L84.196 60.0794C84.9465 60.4298 85.2709 61.3229 84.9206 62.0735C84.5702 62.824 83.6771 63.1484 82.9265 62.7982L74.9265 59.0648C74.4117 58.8243 74.0774 58.3134 74.0622 57.7454C74.0471 57.1774 74.3539 56.6496 74.8552 56.3821L82.8552 52.1155Z" fill="black"/>
<path d="M54.238 51.7327C54.6279 51.0019 55.5364 50.7257 56.2673 51.1155L64.2673 55.3821C64.7687 55.6496 65.0754 56.1774 65.0603 56.7454C65.0451 57.3134 64.7109 57.8243 64.196 58.0648L56.196 61.7982C55.4454 62.1484 54.5523 61.824 54.2019 61.0735C53.8516 60.3229 54.176 59.4298 54.9265 59.0794L60.2058 56.6155L54.8552 53.762C54.1244 53.3721 53.8482 52.4636 54.238 51.7327Z" fill="black"/>
<path d="M76.6963 63.4387L62.6963 62.4387C62.6963 62.4387 61.1963 79.9387 68.1963 80.9387C75.1963 81.9387 76.6963 63.4387 76.6963 63.4387Z" fill="white"/>
<path d="M62.8035 60.9427L76.8035 61.9427C77.2027 61.9713 77.5741 62.1586 77.8347 62.4622C78.0953 62.7659 78.2235 63.1611 78.1912 63.5599V63.5658C78.191 63.5687 78.1906 63.5726 78.1902 63.5775C78.1893 63.5879 78.188 63.6033 78.1863 63.6224C78.183 63.6605 78.1783 63.7156 78.1717 63.7865C78.1583 63.9284 78.1373 64.1342 78.1092 64.3939C78.0528 64.9129 77.9647 65.6498 77.8367 66.5296C77.5815 68.284 77.1643 70.6326 76.5164 72.9652C75.8759 75.271 74.9768 77.6869 73.7029 79.4915C72.4247 81.3022 70.5351 82.7886 67.9842 82.4242C65.5236 82.0727 63.9758 80.2694 63.0281 78.2689C62.0798 76.2669 61.5879 73.7936 61.3308 71.4798C61.0712 69.1434 61.0401 66.8548 61.0721 65.1605C61.0881 64.3108 61.12 63.6042 61.1482 63.1078C61.1624 62.8595 61.1755 62.6632 61.1853 62.5277C61.1902 62.4599 61.1942 62.4069 61.1971 62.3705C61.1985 62.3525 61.1992 62.3384 61.2 62.3285C61.2004 62.3237 61.2007 62.3196 61.201 62.3167C61.2011 62.3153 61.2019 62.3137 61.2019 62.3128C61.2056 62.3128 61.2779 62.3173 62.6961 62.4388L61.2019 62.3109C61.272 61.4938 61.9855 60.8843 62.8035 60.9427ZM64.1062 64.0423C64.0922 64.3868 64.0793 64.7819 64.0711 65.2171C64.0405 66.8353 64.0719 68.9843 64.3123 71.1478C64.5552 73.3337 65 75.4233 65.739 76.9837C66.4787 78.5453 67.3689 79.3048 68.408 79.4535C69.357 79.589 70.28 79.1378 71.2517 77.7611C72.2278 76.3783 73.0163 74.3566 73.6258 72.1624C74.2278 69.9951 74.6231 67.7811 74.8679 66.098C74.9368 65.6249 74.9921 65.1955 75.0379 64.8236L64.1062 64.0423Z" fill="black"/>
<path d="M22.5613 100.939C14.0613 91.4387 13.531 96.2827 12.8889 104.796C12.0239 116.265 32.5356 137.339 46.0613 142.439C57.7839 150.049 51.741 138.671 46.0613 131.439C40.3816 124.206 26.156 104.956 22.5613 100.939Z" fill="#E8A125"/>
<path d="M116.283 42.5858C104.669 32.1449 97.8909 28.6552 89.0887 26.2451C79.6579 23.6629 85.6753 26.4183 96.0613 32.4388C106.447 38.4592 114.228 51.9161 121.88 58.5493C129.532 65.1825 127.897 53.0268 116.283 42.5858Z" fill="#E8A125"/>
<rect x="117.137" y="3.56047" width="39" height="65" rx="5.5" transform="rotate(15 117.137 3.56047)" fill="#FDF6E9"/>
<rect x="117.137" y="3.56047" width="39" height="65" rx="5.5" transform="rotate(15 117.137 3.56047)" stroke="black" stroke-width="3"/>
<path d="M131.106 38.3618L139.799 40.6909C140.066 40.7624 140.224 41.0365 140.153 41.3032L136.012 56.7583C135.941 57.0249 135.667 57.183 135.4 57.1118L126.707 54.7827C126.44 54.7113 126.282 54.437 126.353 54.1704L130.494 38.7153C130.565 38.4486 130.839 38.2904 131.106 38.3618ZM116.618 34.479L125.31 36.8091C125.577 36.8806 125.736 37.1547 125.665 37.4214L121.523 52.8755C121.452 53.1422 121.177 53.3005 120.911 53.229L112.217 50.8999C111.951 50.8284 111.792 50.5543 111.864 50.2876L116.005 34.8325C116.076 34.5659 116.351 34.4076 116.618 34.479ZM136.8 17.1108L145.494 19.4409C145.76 19.5125 145.919 19.7866 145.847 20.0532L141.706 35.5073C141.634 35.7741 141.36 35.9333 141.093 35.8618L132.4 33.5317C132.133 33.4601 131.975 33.1861 132.047 32.9194L136.188 17.4644C136.26 17.1979 136.534 17.0394 136.8 17.1108ZM122.311 13.229L131.005 15.5581C131.271 15.6296 131.429 15.9037 131.358 16.1704L127.217 31.6255C127.146 31.8921 126.872 32.0503 126.605 31.979L117.912 29.6499C117.645 29.5784 117.487 29.3043 117.558 29.0376L121.699 13.5825C121.77 13.3158 122.044 13.1576 122.311 13.229Z" fill="#F2C881" stroke="black" stroke-width="3" stroke-linejoin="round"/>
<path d="M148.061 74C148.061 78.1421 144.703 81.5 140.561 81.5C136.419 81.5 133.061 78.1421 133.061 74C133.061 69.8579 136.419 66.5 140.561 66.5C144.703 66.5 148.061 69.8579 148.061 74Z" fill="#ECB14A"/>
<path d="M148.061 74C148.061 69.8579 144.703 66.5 140.561 66.5C136.419 66.5 133.061 69.8579 133.061 74C133.061 78.1421 136.419 81.5 140.561 81.5C144.703 81.5 148.061 78.1421 148.061 74ZM150.561 74C150.561 79.5228 146.084 84 140.561 84C135.038 84 130.561 79.5228 130.561 74C130.561 68.4772 135.038 64 140.561 64C146.084 64 150.561 68.4772 150.561 74Z" fill="black"/>
</g>
<defs>
<clipPath id="clip0_1800_8534">
<rect width="160" height="110" fill="white"/>
</clipPath>
</defs>
</svg>
