<svg width="160" height="92" viewBox="0 0 160 92" fill="none" xmlns="http://www.w3.org/2000/svg">
<g clip-path="url(#clip0_601_2554)">
<path d="M135.123 94C174.967 65.7558 151.724 47.5649 135.123 42" stroke="black" stroke-width="3"/>
<path d="M11.952 54.5704C30.7265 22.0521 72.3077 10.9103 104.826 29.6847C137.344 48.4591 148.486 90.0404 129.712 122.559C110.937 155.077 69.3561 166.219 36.8378 147.444C4.31947 128.67 -6.82234 87.0888 11.952 54.5704Z" fill="#EDEDED" stroke="white" stroke-width="3"/>
<path d="M50.465 54.3591L50.465 62.3591" stroke="black" stroke-width="3" stroke-linecap="round"/>
<path d="M81.2172 54.3591L81.2172 62.3591" stroke="black" stroke-width="3" stroke-linecap="round"/>
<path d="M60.8604 64.5161C60.8604 64.5161 63.3329 65.8627 66.8329 65.8627C70.3329 65.8627 72.2716 64.5161 72.2716 64.5161" stroke="black" stroke-width="3" stroke-linecap="round"/>
<path d="M30.0238 99.0332C30.515 98.7807 31.1187 98.9739 31.3713 99.465L33.7581 104.106C34.0103 104.597 33.8165 105.201 33.3255 105.453C32.8345 105.706 32.232 105.512 31.9793 105.021L29.5926 100.38C29.3401 99.8888 29.533 99.2859 30.0238 99.0332ZM22.5449 83.7918C23.0551 83.5815 23.6403 83.824 23.8512 84.334L27.7008 93.6585C27.9114 94.1687 27.6678 94.7533 27.1578 94.9642C26.6473 95.175 26.0623 94.9324 25.8515 94.4221L22.0027 85.0981C21.792 84.5878 22.0347 84.0027 22.5449 83.7918ZM31.6172 89.0117C32.1315 88.8108 32.7121 89.0654 32.9132 89.5795L35.7791 96.9163C35.9799 97.4306 35.7259 98.0104 35.2118 98.2115C34.6974 98.4124 34.1168 98.1581 33.9158 97.6437L31.0494 90.3077C30.8487 89.7934 31.1029 89.2126 31.6172 89.0117Z" fill="#6B6B6B"/>
<rect x="107.123" y="1" width="37" height="63" rx="4" fill="#E1E2E4"/>
<rect x="107.123" y="1" width="37" height="63" rx="4" stroke="white" stroke-width="2"/>
<rect x="112.123" y="7.5" width="12" height="23" rx="2" fill="white"/>
<rect x="127.123" y="7.5" width="12" height="23" rx="2" fill="white"/>
<rect x="112.123" y="34.5" width="12" height="23" rx="2" fill="white"/>
<rect x="127.123" y="34.5" width="12" height="23" rx="2" fill="white"/>
<circle cx="140.623" cy="43.5" r="6.5" fill="black"/>
</g>
<defs>
<clipPath id="clip0_601_2554">
<rect width="160" height="92" fill="white"/>
</clipPath>
</defs>
</svg>
