<svg width="160" height="92" viewBox="0 0 160 92" fill="none" xmlns="http://www.w3.org/2000/svg">
<g clip-path="url(#clip0_1036_10852)">
<path d="M11.9519 54.5704C30.7264 22.0521 72.3076 10.9103 104.826 29.6847C137.344 48.4591 148.486 90.0404 129.712 122.559C110.937 155.077 69.356 166.219 36.8376 147.444C4.31934 128.67 -6.82246 87.0888 11.9519 54.5704Z" fill="#EAEBEC" stroke="black" stroke-width="3"/>
<path d="M52.5613 70.9387L52.5613 62.9387C52.5613 62.1103 53.2329 61.4387 54.0613 61.4387C54.8897 61.4387 55.5613 62.1103 55.5613 62.9387L55.5613 70.9387C55.5613 71.7671 54.8897 72.4387 54.0613 72.4387C53.2329 72.4387 52.5613 71.7671 52.5613 70.9387Z" fill="black"/>
<path d="M83.3135 70.9387L83.3135 62.9387C83.3135 62.1103 83.985 61.4387 84.8135 61.4387C85.6419 61.4387 86.3135 62.1103 86.3135 62.9387L86.3135 70.9387C86.3135 71.7671 85.6419 72.4387 84.8135 72.4387C83.985 72.4387 83.3135 71.7671 83.3135 70.9387Z" fill="black"/>
<path d="M73.724 74.3403C74.4035 73.8769 75.3311 74.0473 75.8012 74.7241C76.2735 75.4045 76.1045 76.3394 75.4242 76.812L74.5687 75.5796C75.3688 76.7315 75.4203 76.8068 75.4232 76.812L75.4203 76.8149C75.4188 76.8159 75.4171 76.8167 75.4154 76.8178C75.4118 76.8203 75.4073 76.8235 75.4027 76.8266C75.3934 76.8329 75.3817 76.8404 75.3685 76.8491C75.3419 76.8665 75.3073 76.8895 75.265 76.9155C75.1804 76.9676 75.0638 77.0346 74.9174 77.1128C74.6246 77.2691 74.2089 77.4671 73.6762 77.6616C72.6091 78.0511 71.0757 78.4262 69.1303 78.4262C67.1908 78.4262 65.541 78.0538 64.3754 77.6821C63.7909 77.4957 63.3225 77.3075 62.9935 77.1626C62.829 77.0901 62.6989 77.0279 62.6058 76.9819C62.5594 76.9589 62.5222 76.9396 62.4945 76.9253C62.4807 76.9181 62.4684 76.9125 62.4594 76.9077C62.4551 76.9054 62.4518 76.9025 62.4486 76.9008C62.447 76.9 62.445 76.8996 62.4437 76.8989L62.4418 76.8979L62.4408 76.8969C62.4425 76.8929 62.48 76.8237 63.1576 75.5796L62.4398 76.8969C61.7125 76.5006 61.444 75.5892 61.8402 74.8618C62.2365 74.1345 63.147 73.8671 63.8744 74.2631C63.8754 74.2637 63.877 74.2635 63.8783 74.2641C63.8886 74.2695 63.9081 74.2787 63.9359 74.2924C63.9917 74.32 64.0817 74.3638 64.2035 74.4174C64.4475 74.5249 64.8164 74.6735 65.2875 74.8237C66.2331 75.1252 67.5699 75.4262 69.1303 75.4262C70.6847 75.4262 71.8706 75.128 72.6478 74.8442C73.0368 74.7022 73.3242 74.5634 73.5043 74.4672C73.5943 74.4192 73.6577 74.3814 73.6928 74.3598C73.7098 74.3493 73.7203 74.3427 73.724 74.3403Z" fill="black"/>
<path fill-rule="evenodd" clip-rule="evenodd" d="M30.0236 99.0333C30.5147 98.7808 31.1185 98.9739 31.371 99.4651L33.7578 104.106C34.0101 104.598 33.8162 105.201 33.3252 105.453C32.8343 105.706 32.2318 105.512 31.9791 105.021L29.5923 100.38C29.3398 99.8889 29.5327 99.286 30.0236 99.0333ZM22.5446 83.7919C23.0549 83.5816 23.6401 83.8241 23.8509 84.3341L27.7005 93.6585C27.9111 94.1688 27.6675 94.7534 27.1575 94.9643C26.6471 95.175 26.062 94.9325 25.8512 94.4221L22.0025 85.0982C21.7918 84.5878 22.0344 84.0028 22.5446 83.7919ZM31.617 89.0118C32.1312 88.8109 32.7118 89.0655 32.9129 89.5796L35.7789 96.9164C35.9796 97.4307 35.7256 98.0105 35.2116 98.2116C34.6971 98.4125 34.1166 98.1582 33.9156 97.6437L31.0492 90.3078C30.8485 89.7935 31.1027 89.2127 31.617 89.0118Z" fill="#989BA2"/>
<rect x="107.623" y="1.5" width="36" height="62" rx="3.5" fill="#E1E2E4"/>
<rect x="107.623" y="1.5" width="36" height="62" rx="3.5" stroke="black" stroke-width="3"/>
<rect x="112.123" y="7.5" width="12" height="23" rx="2" fill="white"/>
<rect x="127.123" y="7.5" width="12" height="23" rx="2" fill="white"/>
<rect x="112.123" y="34.5" width="12" height="23" rx="2" fill="white"/>
<rect x="127.123" y="34.5" width="12" height="23" rx="2" fill="white"/>
<path d="M143.061 64C143.061 68.1421 139.703 71.5 135.561 71.5C131.419 71.5 128.061 68.1421 128.061 64C128.061 59.8579 131.419 56.5 135.561 56.5C139.703 56.5 143.061 59.8579 143.061 64Z" fill="#EAEBEC"/>
<path d="M143.061 64C143.061 59.8579 139.703 56.5 135.561 56.5C131.419 56.5 128.061 59.8579 128.061 64C128.061 68.1421 131.419 71.5 135.561 71.5C139.703 71.5 143.061 68.1421 143.061 64ZM145.561 64C145.561 69.5228 141.084 74 135.561 74C130.038 74 125.561 69.5228 125.561 64C125.561 58.4772 130.038 54 135.561 54C141.084 54 145.561 58.4772 145.561 64Z" fill="black"/>
</g>
<defs>
<clipPath id="clip0_1036_10852">
<rect width="160" height="92" fill="white"/>
</clipPath>
</defs>
</svg>
