<svg width="20" height="20" viewBox="0 0 20 20" fill="none" xmlns="http://www.w3.org/2000/svg">
<path fill-rule="evenodd" clip-rule="evenodd" d="M13.9581 1.9588C12.3933 1.9588 11.1248 3.22733 11.1248 4.79213C11.1248 5.01439 11.1504 5.23066 11.1988 5.43818L6.41784 8.03653C5.9023 7.50014 5.17755 7.16632 4.37483 7.16632C2.81003 7.16632 1.5415 8.43485 1.5415 9.99965C1.5415 11.5645 2.81003 12.833 4.37483 12.833C5.17701 12.833 5.90134 12.4996 6.41681 11.9638L11.1986 14.5627C11.1503 14.77 11.1248 14.986 11.1248 15.208C11.1248 16.7728 12.3933 18.0413 13.9581 18.0413C15.5229 18.0413 16.7914 16.7728 16.7914 15.208C16.7914 13.6432 15.5229 12.3747 13.9581 12.3747C13.1554 12.3747 12.4307 12.7085 11.9151 13.2449L7.134 10.6464C7.1825 10.4387 7.20815 10.2222 7.20815 9.99965C7.20815 9.77766 7.18262 9.56163 7.13433 9.35434L11.9156 6.7558C12.4311 7.29187 13.1557 7.62547 13.9581 7.62547C15.5229 7.62547 16.7914 6.35694 16.7914 4.79213C16.7914 3.22733 15.5229 1.9588 13.9581 1.9588ZM12.6248 4.79213C12.6248 4.05575 13.2217 3.4588 13.9581 3.4588C14.6945 3.4588 15.2915 4.05575 15.2915 4.79213C15.2915 5.52851 14.6945 6.12547 13.9581 6.12547C13.2217 6.12547 12.6248 5.52851 12.6248 4.79213ZM3.0415 9.99965C3.0415 9.26327 3.63845 8.66632 4.37483 8.66632C5.1112 8.66632 5.70815 9.26327 5.70815 9.99965C5.70815 10.736 5.1112 11.333 4.37483 11.333C3.63845 11.333 3.0415 10.736 3.0415 9.99965ZM12.6248 15.208C12.6248 14.4716 13.2217 13.8747 13.9581 13.8747C14.6945 13.8747 15.2915 14.4716 15.2915 15.208C15.2915 15.9444 14.6945 16.5413 13.9581 16.5413C13.2217 16.5413 12.6248 15.9444 12.6248 15.208Z" fill="#EFB752"/>
</svg>
