<svg width="140" height="140" viewBox="0 0 140 140" fill="none" xmlns="http://www.w3.org/2000/svg">
<path d="M120.874 120.427C78.7553 151.481 46.3441 141.052 19.3803 120.427C-7.58363 99.8012 -4.38293 55.537 16.5212 31.8945C38.4401 9.76145 60.8355 -9.17842 94.1902 4.77168C115.156 13.5403 136.598 6.52246 136.598 46.4699C136.598 74.5463 150.893 98.2937 120.874 120.427Z" fill="#E8A125"/>
<path d="M133.555 46.4697C133.554 36.7449 132.243 30.2287 130.18 25.7303C128.162 21.3324 125.338 18.6676 121.862 16.7797C118.263 14.8252 113.987 13.7064 108.98 12.4955C104.085 11.3115 98.5681 10.0533 93.0677 7.75286C77.162 1.10056 64.0669 2.31807 52.2855 7.74137C40.3496 13.2359 29.6332 23.0998 18.6968 34.1391C8.83541 45.3255 3.08453 61.4793 3.04382 77.3009C3.00322 93.1092 8.64503 108.251 21.1679 117.83C34.3987 127.951 48.7047 135.364 64.6688 136.608C80.5748 137.846 98.5248 132.99 119.129 117.798C126.327 112.491 130.692 107.22 133.301 101.989C135.905 96.7667 136.866 91.3708 136.95 85.6271C137.035 79.8164 136.227 73.7808 135.349 67.2048C134.481 60.7113 133.555 53.7471 133.555 46.4697ZM136.598 46.4697C136.598 74.546 150.893 98.2932 120.874 120.426C79.4135 150.995 47.3598 141.368 20.6487 121.386L19.3804 120.426C-7.58332 99.8006 -4.3832 55.5365 16.5209 31.8941C38.4398 9.76099 60.8355 -9.17834 94.1903 4.77175C115.156 13.5403 136.598 6.5224 136.598 46.4697Z" fill="black"/>
<path d="M55.5962 42.7175L49.9393 37.0607C49.3536 36.4749 49.3536 35.5251 49.9393 34.9393C50.5251 34.3536 51.4749 34.3536 52.0607 34.9393L57.7175 40.5962C58.3033 41.182 58.3033 42.1317 57.7175 42.7175C57.1317 43.3033 56.182 43.3033 55.5962 42.7175Z" fill="black"/>
<path d="M77.9393 40.5962L83.5961 34.9393C84.1819 34.3536 85.1317 34.3536 85.7175 34.9393C86.3032 35.5251 86.3032 36.4749 85.7175 37.0607L80.0606 42.7175C79.4748 43.3033 78.5251 43.3033 77.9393 42.7175C77.3535 42.1317 77.3535 41.182 77.9393 40.5962Z" fill="black"/>
<path d="M66.6844 64C62.8888 64 63.0003 42 63.0003 42H73C73 42 73.0225 64 66.6844 64Z" fill="white"/>
<path d="M73 40.5L73.1533 40.5078C73.909 40.5845 74.499 41.2222 74.5 41.998L73 42C74.4597 41.9985 74.4989 41.9977 74.5 41.998V42.0684C74.4998 42.1123 74.4997 42.1767 74.499 42.2598C74.4976 42.426 74.4943 42.668 74.4883 42.9746C74.4763 43.5877 74.4515 44.4609 74.4023 45.5078C74.3042 47.5973 74.1065 50.3983 73.7041 53.2119C73.3051 56.0016 72.6914 58.9091 71.7227 61.1563C70.8133 63.2656 69.2707 65.4999 66.6846 65.5C65.3945 65.5 64.5892 64.5597 64.1494 63.8252C63.678 63.0378 63.3281 62.0132 63.0537 60.9316C62.4986 58.744 62.1488 55.8921 61.9238 53.1211C61.6974 50.3324 61.5922 47.5512 61.543 45.4727C61.5183 44.4321 61.5073 43.5645 61.5029 42.9561C61.5007 42.6518 61.5001 42.4122 61.5 42.248V41.9932C61.5043 41.1679 62.1748 40.5002 63 40.5H73ZM64.5088 43.5C64.5148 44.0253 64.5247 44.6702 64.542 45.4023C64.5905 47.4487 64.6939 50.1679 64.9141 52.8789C65.1356 55.6077 65.4704 58.2561 65.9619 60.1934C66.2108 61.1742 66.4747 61.8685 66.7236 62.2842C66.7784 62.3755 66.8242 62.4387 66.8584 62.4824C67.4266 62.3848 68.1822 61.791 68.9678 59.9688C69.7773 58.091 70.3467 55.4982 70.7344 52.7881C71.1186 50.1019 71.3106 47.4026 71.4062 45.3672C71.44 44.65 71.4598 44.0175 71.4736 43.5H64.5088Z" fill="black"/>
<path d="M26.2329 88.1257C26.7348 87.8556 27.3504 88.0626 27.6085 88.5877L30.0652 93.5852C30.3232 94.1102 30.126 94.7549 29.6245 95.0251C29.1226 95.2951 28.5056 95.0886 28.2475 94.5634L25.7913 89.565C25.5335 89.0399 25.7312 88.3957 26.2329 88.1257ZM18.5339 71.7119C19.0553 71.4869 19.6532 71.7464 19.8687 72.2916L23.8307 82.334C24.0458 82.8797 23.7972 83.5048 23.2758 83.7302C22.7542 83.9553 22.1568 83.6953 21.9414 83.1496L17.9798 73.1086C17.7647 72.563 18.0126 71.9374 18.5339 71.7119ZM27.8723 77.3339C28.3978 77.1193 28.9913 77.3912 29.1966 77.941L32.1463 85.8418C32.3516 86.3916 32.0917 87.0114 31.5665 87.2266C31.0409 87.4415 30.4484 87.17 30.243 86.62L27.292 78.7196C27.0867 78.1696 27.3466 77.5488 27.8723 77.3339Z" fill="#BD8828"/>
</svg>
