<svg width="140" height="140" viewBox="0 0 140 140" fill="none" xmlns="http://www.w3.org/2000/svg">
<path d="M125.291 112.655C102.349 143.766 85.9046 144.276 39.407 134.076C0.020855 125.436 -7.92743 99.3954 7.09861 36.1552C16.9728 -5.4024 82.8103 -11.0684 114.864 18.8151C133.463 36.1552 155.042 72.3106 125.291 112.655Z" fill="#E8A125"/>
<path d="M7.09852 36.1553C16.9727 -5.40229 82.8103 -11.0683 114.864 18.8153C133.463 36.1553 155.043 72.3108 125.291 112.656L124.22 114.091C102.538 142.836 86.2411 144.066 43.6791 135L39.4075 134.076C0.636769 125.571 -7.67089 100.205 6.41153 39.0928L7.09852 36.1553ZM112.543 20.9788C97.3515 6.81565 73.9612 0.963339 53.1261 3.7244C32.3297 6.48037 14.8566 17.6512 10.3027 36.8167C2.79637 68.4087 1.22573 90.035 5.9895 104.704C8.33585 111.929 12.2135 117.436 17.7165 121.661C23.26 125.918 30.6289 129.007 40.1586 131.097C63.5212 136.222 78.5155 138.432 90.447 135.875C102.049 133.388 111.292 126.238 122.586 110.921C136.931 91.4686 138.809 73.2238 135.01 57.7936C131.182 42.2465 121.532 29.3597 112.543 20.9788Z" fill="black"/>
<path d="M30.8075 92.6092C31.3448 92.3516 32.0044 92.5482 32.2808 93.0491L34.9105 97.8174C35.1868 98.3183 34.975 98.9328 34.4377 99.1904C33.9004 99.448 33.2408 99.2514 32.9644 98.7505L30.3348 93.9822C30.0585 93.4813 30.2703 92.8668 30.8075 92.6092ZM22.5648 76.9511C23.1231 76.7364 23.7633 76.9838 23.9939 77.5041L28.2357 87.0841C28.4659 87.6046 28.1997 88.201 27.6416 88.416C27.0831 88.6308 26.4435 88.3828 26.213 87.8621L21.9716 78.2835C21.7412 77.7629 22.0066 77.1662 22.5648 76.9511ZM32.5627 82.3142C33.1253 82.1095 33.7607 82.3688 33.9805 82.8934L37.1384 90.4304C37.3581 90.9548 37.08 91.5462 36.5178 91.7515C35.955 91.9564 35.3208 91.6973 35.1008 91.1728L31.9414 83.6361C31.7216 83.1114 31.9999 82.5192 32.5627 82.3142Z" fill="#BD8828"/>
<path d="M55.5962 42.7175L49.9393 37.0607C49.3536 36.4749 49.3536 35.5251 49.9393 34.9393C50.5251 34.3536 51.4749 34.3536 52.0607 34.9393L57.7175 40.5962C58.3033 41.182 58.3033 42.1317 57.7175 42.7175C57.1317 43.3033 56.182 43.3033 55.5962 42.7175Z" fill="black"/>
<path d="M77.9393 40.5962L83.5961 34.9393C84.1819 34.3535 85.1317 34.3535 85.7175 34.9393C86.3032 35.5251 86.3032 36.4749 85.7175 37.0606L80.0606 42.7175C79.4748 43.3033 78.5251 43.3033 77.9393 42.7175C77.3535 42.1317 77.3535 41.182 77.9393 40.5962Z" fill="black"/>
<path d="M66.6844 64C62.8888 64 63.0003 42 63.0003 42H73C73 42 73.0225 64 66.6844 64Z" fill="white"/>
<path d="M73 40.5L73.1533 40.5078C73.909 40.5845 74.499 41.2222 74.5 41.998L73 42C74.4597 41.9985 74.4989 41.9977 74.5 41.998V42.0684C74.4998 42.1123 74.4997 42.1767 74.499 42.2598C74.4976 42.426 74.4943 42.668 74.4883 42.9746C74.4763 43.5877 74.4515 44.4609 74.4023 45.5078C74.3042 47.5973 74.1065 50.3983 73.7041 53.2119C73.3051 56.0016 72.6914 58.9091 71.7227 61.1562C70.8133 63.2656 69.2707 65.4999 66.6846 65.5C65.3945 65.5 64.5892 64.5597 64.1494 63.8252C63.678 63.0378 63.3281 62.0132 63.0537 60.9316C62.4986 58.744 62.1488 55.8921 61.9238 53.1211C61.6974 50.3324 61.5922 47.5512 61.543 45.4727C61.5183 44.4321 61.5073 43.5645 61.5029 42.9561C61.5007 42.6518 61.5001 42.4122 61.5 42.248V41.9932C61.5043 41.1679 62.1748 40.5002 63 40.5H73ZM64.5088 43.5C64.5148 44.0253 64.5247 44.6702 64.542 45.4023C64.5905 47.4487 64.6939 50.1679 64.9141 52.8789C65.1356 55.6077 65.4704 58.2561 65.9619 60.1934C66.2108 61.1742 66.4747 61.8685 66.7236 62.2842C66.7784 62.3755 66.8242 62.4387 66.8584 62.4824C67.4266 62.3848 68.1822 61.791 68.9678 59.9688C69.7773 58.091 70.3467 55.4982 70.7344 52.7881C71.1186 50.1019 71.3106 47.4026 71.4062 45.3672C71.44 44.65 71.4598 44.0175 71.4736 43.5H64.5088Z" fill="black"/>
</svg>
