<svg width="140" height="140" viewBox="0 0 140 140" fill="none" xmlns="http://www.w3.org/2000/svg">
<path d="M124.356 111.577C107.031 144.431 61.3899 147.157 31.3813 128.189C1.37266 109.221 -8.90904 67.2105 8.41643 34.3566C25.7419 1.50261 64.1137 -9.75399 94.1223 9.21426C105.492 16.4011 129.069 24.3609 135.642 37.9333C146.419 60.1827 135.117 91.1715 124.356 111.577Z" fill="#E8A125"/>
<path d="M8.41627 34.3566C25.7416 1.50285 64.1134 -9.75394 94.1219 9.21381C105.492 16.4006 129.069 24.3608 135.642 37.9331C146.419 60.1823 135.117 91.1712 124.356 111.577L123.945 112.342C106.457 144.22 61.8652 146.967 32.0878 128.63L31.3813 128.189C1.60711 109.369 -8.7476 67.8651 8.01521 35.1278L8.41627 34.3566ZM92.3809 11.7349C64.1458 -6.11231 27.8205 4.27094 11.237 35.718C-5.44363 67.3496 4.58983 107.632 33.1234 125.668C47.4916 134.75 65.6238 138.635 82.1694 136.326C98.6545 134.027 113.412 125.622 121.536 110.217C126.841 100.156 132.234 87.5674 134.982 74.8353C137.74 62.0601 137.761 49.4947 132.776 39.204C129.935 33.337 123.188 28.3521 115.078 23.7825C111.09 21.5356 106.951 19.4819 103.011 17.499C99.1235 15.5424 95.3769 13.6286 92.3809 11.7349Z" fill="black"/>
<path d="M55.5962 42.7175L49.9393 37.0607C49.3536 36.4749 49.3536 35.5251 49.9393 34.9393C50.5251 34.3536 51.4749 34.3536 52.0607 34.9393L57.7175 40.5962C58.3033 41.182 58.3033 42.1317 57.7175 42.7175C57.1317 43.3033 56.182 43.3033 55.5962 42.7175Z" fill="black"/>
<path d="M77.9393 40.5962L83.5961 34.9393C84.1819 34.3536 85.1317 34.3536 85.7175 34.9393C86.3032 35.5251 86.3032 36.4749 85.7175 37.0607L80.0606 42.7175C79.4748 43.3033 78.5251 43.3033 77.9393 42.7175C77.3535 42.1317 77.3535 41.182 77.9393 40.5962Z" fill="black"/>
<path d="M66.6844 64C62.8888 64 63.0003 42 63.0003 42H73C73 42 73.0225 64 66.6844 64Z" fill="white"/>
<path d="M73 40.5L73.1533 40.5078C73.909 40.5845 74.499 41.2222 74.5 41.998L73 42C74.4597 41.9985 74.4989 41.9977 74.5 41.998V42.0684C74.4998 42.1123 74.4997 42.1767 74.499 42.2598C74.4976 42.426 74.4943 42.668 74.4883 42.9746C74.4763 43.5877 74.4515 44.4609 74.4023 45.5078C74.3042 47.5973 74.1065 50.3983 73.7041 53.2119C73.3051 56.0016 72.6914 58.9091 71.7227 61.1562C70.8133 63.2656 69.2707 65.4999 66.6846 65.5C65.3945 65.5 64.5892 64.5597 64.1494 63.8252C63.678 63.0378 63.3281 62.0132 63.0537 60.9316C62.4986 58.744 62.1488 55.8921 61.9238 53.1211C61.6974 50.3324 61.5922 47.5512 61.543 45.4727C61.5183 44.4321 61.5073 43.5645 61.5029 42.9561C61.5007 42.6518 61.5001 42.4122 61.5 42.248V41.9932C61.5043 41.1679 62.1748 40.5002 63 40.5H73ZM64.5088 43.5C64.5148 44.0253 64.5247 44.6702 64.542 45.4023C64.5905 47.4487 64.6939 50.1679 64.9141 52.8789C65.1356 55.6077 65.4704 58.2561 65.9619 60.1934C66.2108 61.1742 66.4747 61.8685 66.7236 62.2842C66.7784 62.3755 66.8242 62.4387 66.8584 62.4824C67.4266 62.3848 68.1822 61.791 68.9678 59.9688C69.7773 58.091 70.3467 55.4982 70.7344 52.7881C71.1186 50.1019 71.3106 47.4026 71.4062 45.3672C71.44 44.65 71.4598 44.0175 71.4736 43.5H64.5088Z" fill="black"/>
<path d="M28.085 89.7202C28.6022 89.4621 29.2366 89.6598 29.5025 90.1618L32.0341 94.9383C32.2999 95.4401 32.0967 96.0562 31.5799 96.3145C31.0627 96.5726 30.427 96.3752 30.161 95.8732L27.63 91.0958C27.3643 90.594 27.568 89.9782 28.085 89.7202ZM20.1514 74.0322C20.6887 73.8171 21.3048 74.0651 21.527 74.5863L25.6096 84.1846C25.8312 84.7061 25.5751 85.3036 25.0378 85.519C24.5003 85.7342 23.8847 85.4857 23.6628 84.9641L19.5805 75.3671C19.3589 74.8456 19.6143 74.2477 20.1514 74.0322ZM29.7743 79.4055C30.3159 79.2005 30.9274 79.4603 31.139 79.9858L34.1785 87.5373C34.3901 88.0627 34.1223 88.6552 33.5811 88.8608C33.0394 89.0662 32.429 88.8067 32.2173 88.281L29.1764 80.73C28.9648 80.2043 29.2327 79.6109 29.7743 79.4055Z" fill="#BD8828"/>
</svg>
