<svg width="140" height="140" viewBox="0 0 140 140" fill="none" xmlns="http://www.w3.org/2000/svg">
<path d="M138.005 86.7508C131.538 131.664 87.362 147.172 48.2804 137.012C9.19881 126.852 -7.39964 82.7574 3.07224 44.8386C17.9694 -9.10416 86.9223 -6.87566 108.09 12.6353C140.775 42.7609 142.918 52.6297 138.005 86.7508Z" fill="#E8A125"/>
<path d="M3.07252 44.8385C17.9697 -9.10404 86.9227 -6.8757 108.091 12.6353C140.775 42.7608 142.918 52.6302 138.005 86.7513L137.847 87.7982C130.849 131.905 87.0565 147.093 48.2802 137.012C9.50401 126.931 -7.13897 83.4441 2.83183 45.7282L3.07252 44.8385ZM84.1405 4.89081C74.8687 2.86868 64.2303 2.46133 53.7921 4.25981C32.9856 7.84474 13.2337 20.0943 6.17748 45.645C-4.01553 82.555 12.35 124.445 49.1132 134.002C68.011 138.915 87.9947 137.576 103.92 129.754C119.738 121.984 131.737 107.745 134.821 86.3201C137.282 69.2341 137.828 58.9587 134.132 49.2758C130.41 39.5246 122.223 29.9615 105.875 14.8935C101.139 10.5279 93.4609 6.92354 84.1405 4.89081Z" fill="black"/>
<path d="M24.0295 98.6411C24.5444 98.3791 25.1763 98.58 25.4411 99.09L27.9616 103.946C28.2264 104.456 28.0235 105.082 27.5085 105.345C26.9935 105.607 26.3617 105.406 26.0969 104.896L23.5758 100.04C23.311 99.5301 23.5144 98.9035 24.0295 98.6411ZM16.1284 82.6951C16.6636 82.4763 17.2771 82.7284 17.4982 83.2583L21.5639 93.0151C21.7845 93.5452 21.5296 94.1526 20.9944 94.3715C20.4592 94.5902 19.8462 94.3376 19.6251 93.8074L15.5598 84.0521C15.3389 83.5219 15.5934 82.9142 16.1284 82.6951ZM25.7113 88.1572C26.2507 87.9485 26.8596 88.2127 27.0703 88.747L30.0971 96.4231C30.3076 96.9572 30.0412 97.5595 29.5022 97.7685C28.9629 97.9772 28.355 97.7132 28.1441 97.1791L25.1158 89.5034C24.9051 88.9691 25.1718 88.3659 25.7113 88.1572Z" fill="#BD8828"/>
<path d="M55.5962 42.7175L49.9394 37.0607C49.3536 36.4749 49.3536 35.5251 49.9394 34.9393C50.5252 34.3536 51.4749 34.3536 52.0607 34.9393L57.7175 40.5962C58.3033 41.182 58.3033 42.1317 57.7175 42.7175C57.1318 43.3033 56.182 43.3033 55.5962 42.7175Z" fill="black"/>
<path d="M77.9393 40.5962L83.5962 34.9394C84.182 34.3536 85.1317 34.3536 85.7175 34.9394C86.3033 35.5251 86.3033 36.4749 85.7175 37.0607L80.0606 42.7175C79.4748 43.3033 78.5251 43.3033 77.9393 42.7175C77.3535 42.1317 77.3535 41.182 77.9393 40.5962Z" fill="black"/>
<path d="M66.6845 64C62.8888 64 63.0004 42 63.0004 42H73C73 42 73.0225 64 66.6845 64Z" fill="white"/>
<path d="M73 40.5L73.1533 40.5078C73.909 40.5845 74.499 41.2222 74.5 41.998L73 42C74.4597 41.9985 74.499 41.9977 74.5 41.998V42.0684C74.4999 42.1123 74.4998 42.1767 74.4991 42.2598C74.4976 42.426 74.4943 42.668 74.4883 42.9746C74.4763 43.5877 74.4516 44.4609 74.4024 45.5078C74.3042 47.5973 74.1065 50.3983 73.7041 53.2119C73.3051 56.0016 72.6915 58.9091 71.7227 61.1562C70.8133 63.2656 69.2708 65.4999 66.6846 65.5C65.3945 65.5 64.5892 64.5597 64.1494 63.8252C63.678 63.0378 63.3282 62.0132 63.0537 60.9316C62.4987 58.744 62.1488 55.8921 61.9239 53.1211C61.6974 50.3324 61.5922 47.5512 61.543 45.4727C61.5184 44.4321 61.5074 43.5645 61.503 42.9561C61.5008 42.6518 61.5001 42.4122 61.5 42.248V41.9932C61.5043 41.1679 62.1748 40.5002 63 40.5H73ZM64.5088 43.5C64.5148 44.0253 64.5247 44.6702 64.542 45.4023C64.5905 47.4487 64.694 50.1679 64.9141 52.8789C65.1357 55.6077 65.4704 58.2561 65.9619 60.1934C66.2108 61.1742 66.4748 61.8685 66.7237 62.2842C66.7784 62.3755 66.8242 62.4387 66.8584 62.4824C67.4267 62.3848 68.1822 61.791 68.9678 59.9688C69.7773 58.091 70.3468 55.4982 70.7344 52.7881C71.1186 50.1019 71.3106 47.4026 71.4063 45.3672C71.44 44.65 71.4598 44.0175 71.4737 43.5H64.5088Z" fill="black"/>
</svg>
