<svg width="152" height="152" viewBox="0 0 152 152" fill="none" xmlns="http://www.w3.org/2000/svg">
<g clip-path="url(#clip0_542_4792)">
<g clip-path="url(#clip1_542_4792)">
<path d="M61.8401 148.84C43.8829 166.797 14.7687 166.797 -3.18848 148.84C-21.1456 130.883 -21.1456 101.769 -3.18848 83.8115C14.7687 65.8544 43.8829 65.8544 61.8401 83.8115C79.7972 101.769 79.7972 130.883 61.8401 148.84Z" fill="#E8A125"/>
<path d="M-3.18819 83.8117C14.769 65.8546 43.883 65.8547 61.8401 83.8118C79.7972 101.769 79.7971 130.883 61.84 148.84C44.0231 166.657 15.2229 166.796 -2.76549 149.257L-3.18833 148.84C-21.0052 131.023 -21.1443 102.223 -3.6057 84.2345L-3.18819 83.8117ZM60.4465 85.2052C43.259 68.0178 15.3927 68.0179 -1.79475 85.2053C-18.9821 102.393 -18.9821 130.259 -1.79469 147.447C15.3927 164.634 43.2591 164.634 60.4465 147.446C77.6339 130.259 77.6339 102.393 60.4465 85.2052Z" fill="white"/>
<path d="M25.3783 101.816L22.2194 97.6148C21.8923 97.1798 21.9886 96.5741 22.4344 96.2619C22.8803 95.9497 23.5069 96.0493 23.834 96.4843L26.9928 100.685C27.3199 101.12 27.2236 101.726 26.7778 102.038C26.332 102.35 25.7054 102.251 25.3783 101.816Z" fill="black"/>
<path d="M39.8487 104.057L44.6954 102.024C45.1973 101.813 45.7907 102.043 46.0207 102.536C46.2507 103.029 46.0303 103.6 45.5284 103.81L40.6816 105.844C40.1797 106.054 39.5864 105.825 39.3564 105.332C39.1264 104.838 39.3468 104.268 39.8487 104.057Z" fill="black"/>
<path d="M32.4792 103.818C32.8952 103.65 33.3782 103.785 33.6459 104.154L37.3146 109.218C37.6339 109.659 37.5355 110.275 37.0948 110.594C36.654 110.913 36.0382 110.815 35.7189 110.374L32.5463 105.995L28.083 108.292C27.599 108.541 27.0052 108.35 26.7562 107.866C26.5072 107.382 26.6975 106.789 27.1815 106.54L32.3973 103.856L32.4792 103.818Z" fill="black"/>
</g>
<g clip-path="url(#clip2_542_4792)">
<path d="M83.6865 25.0722C96.1418 46.6455 88.7503 74.2311 67.177 86.6865C45.6037 99.1418 18.018 91.7503 5.56269 70.177C-6.89266 48.6037 0.498898 21.018 22.0722 8.56268C43.6455 -3.89267 71.2311 3.49889 83.6865 25.0722Z" fill="#E8A125"/>
<path d="M5.56294 70.1768C-6.89234 48.6035 0.499238 21.0181 22.0725 8.56277C43.6458 -3.89251 71.2312 3.49907 83.6865 25.0723C96.0445 46.4771 88.8645 73.8004 67.6799 86.3917L67.1769 86.6863C45.7721 99.0443 18.4488 91.8644 5.85757 70.6797L5.56294 70.1768ZM23.039 10.237C2.39042 22.1585 -4.68429 48.5618 7.23716 69.2103C19.1586 89.8589 45.5619 96.9336 66.2105 85.0121C86.859 73.0906 93.9337 46.6874 82.0123 26.0388C70.0908 5.39025 43.6875 -1.68445 23.039 10.237Z" fill="white"/>
<path d="M26.2954 45.228L23.7176 49.693C23.4507 50.1553 22.8594 50.3137 22.3971 50.0468C21.9347 49.7799 21.7763 49.1886 22.0432 48.7263L24.6211 44.2613C24.888 43.799 25.4793 43.6405 25.9416 43.9075C26.404 44.1744 26.5624 44.7656 26.2954 45.228Z" fill="black"/>
<path d="M32.0183 31.4361L34.5961 26.9712C34.8631 26.5088 35.4543 26.3504 35.9166 26.6173C36.379 26.8843 36.5374 27.4755 36.2705 27.9378L33.6926 32.4028C33.4257 32.8652 32.8345 33.0236 32.3721 32.7566C31.9097 32.4897 31.7513 31.8985 32.0183 31.4361Z" fill="black"/>
<path d="M38.8571 42.8955C38.8082 46.744 36.3883 47.4786 36.3883 47.4786L30.5696 41.6256L30.7609 37.1069C30.7609 37.1069 38.9008 39.4629 38.8571 42.8955Z" fill="white"/>
<path d="M29.7768 36.7926C29.7894 36.4962 29.9375 36.2223 30.1783 36.0491C30.4193 35.8759 30.7262 35.8228 31.0112 35.9053L31.0144 35.9057C31.0158 35.9061 31.0176 35.9069 31.0198 35.9076C31.0247 35.909 31.032 35.9112 31.0407 35.9138C31.0581 35.9189 31.083 35.9265 31.1148 35.9361C31.1786 35.9555 31.2704 35.9839 31.3863 36.021C31.6183 36.0951 31.9475 36.2042 32.3412 36.3459C33.1259 36.6284 34.1805 37.045 35.2407 37.5768C36.2916 38.1041 37.3972 38.7684 38.2505 39.5615C39.0892 40.341 39.8212 41.3756 39.8053 42.6343C39.778 44.7796 39.0809 46.1589 38.2975 47.011C37.9141 47.4281 37.5273 47.7003 37.2257 47.8712C37.075 47.9566 36.9446 48.0173 36.8459 48.0585C36.7965 48.079 36.7547 48.0953 36.7219 48.107C36.7055 48.1129 36.6909 48.1173 36.6791 48.1211C36.6733 48.1231 36.668 48.1248 36.6633 48.1263C36.661 48.127 36.6587 48.1281 36.6567 48.1287C36.6556 48.129 36.6544 48.1293 36.6534 48.1296L36.6521 48.1301C36.6514 48.1302 36.6484 48.1227 36.3699 47.2054L36.6508 48.1306C36.3084 48.2345 35.9363 48.1404 35.6841 47.8866L29.8655 42.0336L29.7986 41.9589C29.6521 41.777 29.5756 41.5469 29.5856 41.3112L29.7768 36.7926ZM31.5348 40.9711L36.5426 46.0083C36.6463 45.9281 36.7597 45.8277 36.8746 45.7028C37.3133 45.2255 37.8505 44.3131 37.8722 42.6102C37.8781 42.1527 37.6093 41.6053 36.9341 40.9778C36.2735 40.3638 35.3518 39.7956 34.3734 39.3047C33.4042 38.8186 32.4265 38.4317 31.6865 38.1652C31.6756 38.1613 31.6643 38.1577 31.6535 38.1538L31.5348 40.9711Z" fill="black"/>
<path d="M37.4476 74.0646C37.4649 73.7091 37.767 73.4348 38.1225 73.4521L41.5063 73.6166C41.8617 73.634 42.1358 73.9366 42.1185 74.292C42.1011 74.6473 41.7986 74.9215 41.4431 74.9042L38.0596 74.7391C37.7043 74.7217 37.4305 74.4199 37.4476 74.0646ZM32.3317 69.9169C32.3854 69.5651 32.7141 69.3229 33.0659 69.3765L38.1201 70.1471C38.4719 70.2007 38.7135 70.5292 38.66 70.881C38.6063 71.2327 38.2778 71.4744 37.9261 71.4209L32.8718 70.6517C32.5199 70.5981 32.2781 70.2688 32.3317 69.9169ZM26.4524 73.3232C26.4993 72.9704 26.8233 72.7218 27.176 72.7685L33.6669 73.631C34.0196 73.678 34.268 74.0023 34.2212 74.3551C34.1742 74.7077 33.8501 74.9555 33.4974 74.9088L27.0065 74.0464C26.6539 73.9994 26.4058 73.6757 26.4524 73.3232Z" fill="#BD8828"/>
</g>
<g clip-path="url(#clip3_542_4792)">
<path d="M145.211 90.2112C123.541 111.882 88.4059 111.882 66.7354 90.2112C45.065 68.5407 45.065 33.406 66.7354 11.7355C88.4059 -9.93501 123.541 -9.93501 145.211 11.7355C166.882 33.4059 166.882 68.5407 145.211 90.2112Z" fill="#E8A125"/>
<path d="M66.7357 11.7356C88.4062 -9.93481 123.541 -9.9347 145.211 11.7358C166.882 33.4062 166.881 68.5407 145.211 90.2112C123.71 111.712 88.9541 111.88 67.2459 90.7149L66.7356 90.211C45.2344 68.7098 45.0665 33.9541 66.2319 12.2459L66.7357 11.7356ZM143.529 13.4173C122.788 -7.32422 89.1589 -7.32417 68.4173 13.4174C47.6758 34.159 47.6758 67.7878 68.4174 88.5294C89.159 109.271 122.788 109.271 143.529 88.5294C164.271 67.7878 164.271 34.1589 143.529 13.4173Z" fill="white"/>
<path d="M105.62 26.2539L99.4931 24.6123C98.8587 24.4423 98.4822 23.7901 98.6522 23.1557C98.8222 22.5212 99.4743 22.1447 100.109 22.3147L106.235 23.9564C106.87 24.1264 107.246 24.7785 107.076 25.413C106.906 26.0474 106.254 26.4239 105.62 26.2539Z" fill="black"/>
<path d="M120.324 27.8397L126.45 29.4813C127.085 29.6513 127.461 30.3034 127.291 30.9379C127.121 31.5723 126.469 31.9488 125.835 31.7788L119.708 30.1372C119.074 29.9672 118.697 29.3151 118.867 28.6806C119.037 28.0462 119.689 27.6697 120.324 27.8397Z" fill="black"/>
<path d="M109.529 31.1235C104.739 28.1456 98.2853 37.5115 100.615 40.9605C102.946 44.4094 114.82 51.7901 117.035 39.9065C119.25 28.0228 113.802 33.7795 109.529 31.1235Z" fill="white"/>
<path d="M115.944 31.0746C116.481 31.2 117.023 31.4396 117.476 31.8982C117.927 32.3542 118.216 32.9529 118.379 33.6717C118.694 35.0601 118.581 37.1041 118.025 40.0907C117.439 43.2318 116.176 45.2962 114.401 46.42C112.637 47.5371 110.571 47.5949 108.649 47.1652C106.725 46.735 104.838 45.796 103.292 44.757C101.758 43.7268 100.464 42.5338 99.7818 41.524C98.9612 40.3094 98.9953 38.7257 99.3795 37.2896C99.7727 35.8198 100.582 34.2954 101.617 33.0029C102.648 31.7148 103.959 30.5863 105.404 29.9894C106.877 29.3809 108.53 29.3174 110.061 30.2686C110.899 30.7898 111.823 30.9209 112.834 30.9392C113.386 30.9492 113.801 30.9284 114.369 30.9299C114.874 30.9312 115.424 30.953 115.944 31.0746ZM115.486 33.0348C115.197 32.9674 114.836 32.9441 114.363 32.9428C113.953 32.9418 113.323 32.961 112.798 32.9515C111.656 32.9308 110.296 32.7848 108.998 31.978C108.133 31.4404 107.184 31.4318 106.172 31.8496C105.133 32.2791 104.078 33.1488 103.188 34.2609C102.302 35.3688 101.635 36.6467 101.324 37.8099C101.003 39.0068 101.105 39.8874 101.449 40.3972C101.932 41.1118 102.996 42.1344 104.414 43.0866C105.818 44.0301 107.475 44.8404 109.088 45.2011C110.703 45.5622 112.167 45.4526 113.325 44.7194C114.472 43.9925 115.524 42.5227 116.046 39.722C116.597 36.7672 116.634 35.0745 116.416 34.117C116.313 33.6628 116.166 33.4359 116.045 33.3126C115.925 33.192 115.759 33.0986 115.486 33.0348Z" fill="black"/>
<path d="M72.2683 50.8635C72.6963 50.7709 73.1184 51.0425 73.2111 51.4705L74.0931 55.544C74.1855 55.9718 73.9133 56.3939 73.4854 56.4866C73.0576 56.579 72.6355 56.3068 72.5428 55.8789L71.6616 51.8056C71.5692 51.3778 71.8406 50.9563 72.2683 50.8635ZM75.5682 43.4633C76.0033 43.4151 76.3959 43.7287 76.4442 44.1638L77.1378 50.4153C77.1861 50.8503 76.8726 51.2421 76.4376 51.2905C76.0025 51.3387 75.6107 51.0253 75.5623 50.5903L74.867 44.3392C74.8186 43.9039 75.133 43.5117 75.5682 43.4633ZM69.6484 37.5614C70.0824 37.5047 70.481 37.8106 70.5378 38.2446L71.5797 46.2326C71.6362 46.6667 71.3299 47.0653 70.8958 47.1219C70.4618 47.1784 70.0641 46.8721 70.0073 46.4381L68.9653 38.4501C68.9089 38.0162 69.2146 37.6183 69.6484 37.5614Z" fill="#BD8828"/>
</g>
<g clip-path="url(#clip4_542_4792)">
<path d="M170.898 134.683C162.162 167.286 128.65 186.634 96.0464 177.898C63.4429 169.162 44.0945 135.65 52.8306 103.046C61.5667 70.4429 95.079 51.0945 127.683 59.8306C160.286 68.5667 179.634 102.079 170.898 134.683Z" fill="#E8A125"/>
<path d="M52.8309 103.046C61.5671 70.4429 95.0792 51.0948 127.683 59.8309C160.286 68.567 179.634 102.079 170.898 134.683C162.23 167.031 129.172 186.331 96.8106 178.098L96.0464 177.898C63.6976 169.23 44.3978 136.172 52.6313 103.811L52.8309 103.046ZM127.005 62.361C95.7986 53.9994 63.7226 72.5185 55.361 103.724C46.9994 134.93 65.5185 167.006 96.7245 175.368C127.93 183.73 160.006 165.21 168.368 134.005C176.73 102.799 158.211 70.7226 127.005 62.361Z" fill="white"/>
<path d="M115.32 86.9089C115.849 86.4149 116.677 86.4426 117.171 86.9709C117.665 87.4992 117.638 88.328 117.109 88.822L113.24 92.4384L118.251 93.3232C118.963 93.4492 119.439 94.1292 119.313 94.8415C119.187 95.5537 118.507 96.0292 117.795 95.9034L110.203 94.5624C109.715 94.476 109.317 94.1206 109.176 93.6449C109.035 93.1692 109.174 92.6547 109.537 92.3158L115.32 86.9089Z" fill="black"/>
<path d="M91.0957 93.0538C91.2594 92.3493 91.9633 91.911 92.6678 92.0746L100.38 93.8653C100.863 93.9776 101.241 94.3534 101.357 94.836C101.473 95.3185 101.306 95.825 100.926 96.1441L95.0221 101.101C94.4681 101.566 93.6415 101.495 93.1763 100.941C92.7112 100.387 92.783 99.5602 93.3368 99.095L97.2329 95.8236L92.0749 94.626C91.3704 94.4623 90.9321 93.7584 91.0957 93.0538Z" fill="black"/>
<path d="M112.684 97.8519L100.65 100.173C100.65 100.173 103.34 115.273 109.47 114.534C115.6 113.795 112.684 97.8519 112.684 97.8519Z" fill="white"/>
<path d="M100.402 98.8864L112.437 96.5657C112.78 96.4997 113.136 96.5736 113.424 96.7709C113.712 96.9682 113.91 97.2725 113.973 97.6162L113.974 97.6211C113.975 97.6236 113.975 97.627 113.976 97.6312C113.978 97.6402 113.98 97.6536 113.983 97.67C113.989 97.7029 113.997 97.7504 114.007 97.8117C114.028 97.9345 114.057 98.1128 114.092 98.3382C114.162 98.7887 114.254 99.4302 114.345 100.201C114.526 101.739 114.705 103.814 114.686 105.928C114.667 108.018 114.454 110.259 113.788 112.069C113.119 113.885 111.861 115.566 109.627 115.835C107.472 116.094 105.759 114.923 104.507 113.45C103.255 111.976 102.281 110.001 101.541 108.107C100.794 106.195 100.251 104.272 99.8948 102.835C99.7163 102.115 99.5835 101.512 99.4951 101.087C99.4509 100.874 99.4177 100.706 99.3953 100.589C99.3841 100.531 99.3755 100.485 99.3697 100.454C99.3668 100.438 99.3642 100.426 99.3627 100.418C99.3619 100.414 99.3613 100.41 99.3608 100.408C99.3606 100.406 99.3609 100.405 99.3608 100.404C99.3639 100.403 99.4259 100.391 100.65 100.173L99.3603 100.402C99.2347 99.6973 99.6988 99.022 100.402 98.8864ZM102.201 101.206C102.267 101.5 102.346 101.836 102.437 102.205C102.777 103.577 103.289 105.383 103.981 107.153C104.68 108.942 105.528 110.604 106.504 111.753C107.48 112.903 108.403 113.343 109.313 113.233C110.144 113.133 110.821 112.544 111.329 111.163C111.84 109.776 112.048 107.893 112.066 105.904C112.084 103.94 111.917 101.983 111.743 100.508C111.694 100.094 111.644 99.7188 111.599 99.3948L102.201 101.206Z" fill="black"/>
<path d="M79.6554 137.321C80.0125 136.997 80.5648 137.023 80.8888 137.381L83.9733 140.78C84.2971 141.137 84.2699 141.69 83.9128 142.014C83.5556 142.338 83.0031 142.311 82.6791 141.953L79.5954 138.553C79.2717 138.196 79.2985 137.645 79.6554 137.321ZM78.7276 128.445C79.1161 128.16 79.6632 128.242 79.9489 128.631L84.0532 134.212C84.3388 134.6 84.2555 135.146 83.8672 135.432C83.4788 135.718 82.9325 135.635 82.6468 135.246L78.5411 129.667C78.2553 129.278 78.3392 128.731 78.7276 128.445ZM69.831 126.076C70.2139 125.783 70.7624 125.855 71.0556 126.238L76.4484 133.283C76.7413 133.666 76.6686 134.215 76.2857 134.508C75.9029 134.801 75.3548 134.728 75.0617 134.345L69.6689 127.299C69.3762 126.917 69.4486 126.369 69.831 126.076Z" fill="#BD8828"/>
</g>
</g>
<defs>
<clipPath id="clip0_542_4792">
<rect x="12" y="12" width="128" height="128" rx="20" fill="white"/>
</clipPath>
<clipPath id="clip1_542_4792">
<rect width="91.9796" height="91.9796" fill="white" transform="translate(-3.19391 60) rotate(15)"/>
</clipPath>
<clipPath id="clip2_542_4792">
<rect width="90.2247" height="90.2247" fill="white" transform="translate(-17 64.1368) rotate(-60)"/>
</clipPath>
<clipPath id="clip3_542_4792">
<rect width="111" height="111" fill="white" transform="translate(66.7289 -17) rotate(15)"/>
</clipPath>
<clipPath id="clip4_542_4792">
<rect width="122.253" height="122.253" fill="white" transform="translate(37 75.6415) rotate(-15)"/>
</clipPath>
</defs>
</svg>
