<svg width="140" height="140" viewBox="0 0 140 140" fill="none" xmlns="http://www.w3.org/2000/svg">
<path d="M103.299 134.355C74.971 147.056 66.1879 134.355 28.1008 134.355C-9.98633 134.355 -1.77257 78.9502 9.04363 38.4961C13.8356 20.5734 27.6218 3.68415 44.5826 1.11447C66.2995 -2.17581 113.785 1.11447 125.447 20.5734C149.322 60.4116 145.086 115.619 103.299 134.355Z" fill="#E8A125"/>
<path d="M44.583 1.11432C66.3 -2.17584 113.784 1.11468 125.446 20.5733C149.322 60.4115 145.086 115.618 103.299 134.355C74.9708 147.056 66.1877 134.355 28.1006 134.355C-9.39114 134.354 -2.01754 80.6683 8.53906 40.4034L9.04395 38.4962C13.7611 20.8535 27.1932 4.21195 43.79 1.24518L44.583 1.11432ZM88.2617 5.26666C72.5114 2.47499 55.5406 2.48809 45.0322 4.08014C29.6991 6.40322 16.5626 21.9872 11.9414 39.2706C6.54583 59.4508 1.90835 83.0043 3.22559 101.381C3.88449 110.573 6.01138 118.092 9.9248 123.254C13.715 128.253 19.4147 131.355 28.1006 131.355C47.4449 131.355 59.5976 134.607 69.8086 136.151C79.8486 137.67 88.527 137.69 102.071 131.617C121.872 122.739 132.861 105.229 136.032 84.9151C139.214 64.5385 134.479 41.4805 122.873 22.1153C120.388 17.9691 115.832 14.4449 109.68 11.5811C103.561 8.73289 96.1249 6.66037 88.2617 5.26666Z" fill="black"/>
<path d="M55.5962 42.7176L49.9393 37.0607C49.3536 36.4749 49.3536 35.5252 49.9393 34.9394C50.5251 34.3536 51.4749 34.3536 52.0607 34.9394L57.7175 40.5963C58.3033 41.182 58.3033 42.1318 57.7175 42.7176C57.1317 43.3034 56.182 43.3034 55.5962 42.7176Z" fill="black"/>
<path d="M77.9393 40.5963L83.5961 34.9394C84.1819 34.3536 85.1317 34.3536 85.7175 34.9394C86.3032 35.5252 86.3032 36.4749 85.7175 37.0607L80.0606 42.7176C79.4748 43.3034 78.5251 43.3034 77.9393 42.7176C77.3535 42.1318 77.3535 41.1821 77.9393 40.5963Z" fill="black"/>
<path d="M66.6844 64.0001C62.8888 64.0001 63.0003 42.0001 63.0003 42.0001H73C73 42.0001 73.0225 64.0001 66.6844 64.0001Z" fill="white"/>
<path d="M73 40.5001L73.1533 40.5079C73.909 40.5846 74.499 41.2222 74.5 41.9981L73 42.0001C74.4597 41.9986 74.4989 41.9977 74.5 41.9981V42.0684C74.4998 42.1124 74.4997 42.1768 74.499 42.2598C74.4976 42.4261 74.4943 42.668 74.4883 42.9747C74.4763 43.5877 74.4515 44.461 74.4023 45.5079C74.3042 47.5973 74.1065 50.3984 73.7041 53.212C73.3051 56.0017 72.6914 58.9091 71.7227 61.1563C70.8133 63.2657 69.2707 65.5 66.6846 65.5001C65.3945 65.5001 64.5892 64.5597 64.1494 63.8253C63.678 63.0379 63.3281 62.0133 63.0537 60.9317C62.4986 58.744 62.1488 55.8922 61.9238 53.1212C61.6974 50.3325 61.5922 47.5513 61.543 45.4727C61.5183 44.4322 61.5073 43.5645 61.5029 42.9561C61.5007 42.6519 61.5001 42.4123 61.5 42.2481V41.9932C61.5043 41.168 62.1748 40.5002 63 40.5001H73ZM64.5088 43.5001C64.5148 44.0254 64.5247 44.6702 64.542 45.4024C64.5905 47.4487 64.6939 50.1679 64.9141 52.879C65.1356 55.6078 65.4704 58.2562 65.9619 60.1934C66.2108 61.1742 66.4747 61.8685 66.7236 62.2842C66.7784 62.3756 66.8242 62.4388 66.8584 62.4825C67.4266 62.3848 68.1822 61.791 68.9678 59.9688C69.7773 58.0911 70.3467 55.4982 70.7344 52.7881C71.1186 50.1019 71.3106 47.4027 71.4062 45.3672C71.44 44.6501 71.4598 44.0175 71.4736 43.5001H64.5088Z" fill="black"/>
<path d="M29.7656 98.5602C30.2887 98.303 30.9304 98.5001 31.1994 99.0002L33.7601 103.759C34.0291 104.26 33.8233 104.874 33.3002 105.132C32.7771 105.389 32.1345 105.191 31.8655 104.691L29.3053 99.9309C29.0366 99.4308 29.2426 98.8173 29.7656 98.5602ZM21.7403 82.9296C22.2839 82.7151 22.907 82.9622 23.1316 83.4817L27.2612 93.0454C27.4852 93.5651 27.2264 94.1605 26.6828 94.375C26.1393 94.5891 25.5165 94.3416 25.292 93.8221L21.1628 84.2597C20.9384 83.7402 21.1971 83.1445 21.7403 82.9296ZM31.4738 88.2836C32.0218 88.079 32.6401 88.338 32.8542 88.8618L35.9287 96.386C36.1424 96.9096 35.872 97.5001 35.3244 97.7048C34.7767 97.9092 34.1591 97.6505 33.9449 97.1271L30.869 89.6032C30.655 89.0795 30.926 88.4883 31.4738 88.2836Z" fill="#BD8828"/>
</svg>
