<svg width="152" height="152" viewBox="0 0 152 152" fill="none" xmlns="http://www.w3.org/2000/svg">
<g clip-path="url(#clip0_542_4792)">
<g clip-path="url(#clip1_542_4792)">
<path d="M61.7575 148.562C43.8004 166.519 14.6861 166.519 -3.27105 148.562C-21.2282 130.604 -21.2282 101.49 -3.27104 83.5331C14.6861 65.5759 43.8004 65.5759 61.7575 83.5331C79.7147 101.49 79.7147 130.604 61.7575 148.562Z" fill="#EFB752"/>
<path d="M-3.27083 83.5331C14.6863 65.5761 43.8003 65.5762 61.7575 83.5333C79.7145 101.49 79.7144 130.604 61.7573 148.562C43.9404 166.378 15.1403 166.518 -2.84813 148.979L-3.27097 148.561C-21.0878 130.745 -21.2269 101.944 -3.68835 83.956L-3.27083 83.5331ZM60.3638 84.9267C43.1764 67.7393 15.31 67.7393 -1.87739 84.9268C-19.0648 102.114 -19.0647 129.981 -1.87734 147.168C15.3101 164.355 43.1765 164.355 60.3639 147.168C77.5513 129.981 77.5512 102.114 60.3638 84.9267Z" fill="white"/>
<path d="M23.4562 101.301L20.2974 97.0998C19.9703 96.6648 20.0666 96.0591 20.5124 95.7469C20.9582 95.4347 21.5848 95.5343 21.9119 95.9693L25.0708 100.17C25.3979 100.605 25.3016 101.211 24.8558 101.523C24.4099 101.835 23.7833 101.736 23.4562 101.301Z" fill="black"/>
<path d="M37.9267 103.542L42.7734 101.509C43.2753 101.298 43.8687 101.528 44.0987 102.021C44.3287 102.514 44.1083 103.085 43.6064 103.295L38.7596 105.329C38.2577 105.539 37.6644 105.31 37.4344 104.817C37.2044 104.323 37.4248 103.753 37.9267 103.542Z" fill="black"/>
<path d="M30.5572 103.303C30.9732 103.135 31.4562 103.27 31.7239 103.639L35.3926 108.703C35.7119 109.144 35.6135 109.76 35.1728 110.079C34.732 110.398 34.1162 110.3 33.7969 109.859L30.6243 105.48L26.161 107.777C25.677 108.026 25.0832 107.835 24.8342 107.351C24.5852 106.867 24.7755 106.274 25.2595 106.025L30.4753 103.341L30.5572 103.303Z" fill="black"/>
</g>
<g clip-path="url(#clip2_542_4792)">
<path d="M83.4017 25.0797C95.8571 46.653 88.4655 74.2387 66.8922 86.694C45.3189 99.1494 17.7332 91.7578 5.2779 70.1845C-7.17745 48.6112 0.214108 21.0256 21.7874 8.57022C43.3607 -3.88513 70.9464 3.50642 83.4017 25.0797Z" fill="#EFB752"/>
<path d="M5.27801 70.1843C-7.17727 48.611 0.21431 21.0256 21.7876 8.57031C43.3609 -3.88497 70.9463 3.50661 83.4016 25.0799C95.7596 46.4847 88.5796 73.808 67.395 86.3992L66.892 86.6939C45.4872 99.0519 18.1639 91.8719 5.57265 70.6873L5.27801 70.1843ZM22.754 10.2445C2.10549 22.166 -4.96921 48.5693 6.95224 69.2179C18.8737 89.8664 45.277 96.9411 65.9256 85.0197C86.5741 73.0982 93.6488 46.6949 81.7274 26.0463C69.8059 5.39779 43.4026 -1.67691 22.754 10.2445Z" fill="white"/>
<path d="M25.2393 47.0574L22.6614 51.5223C22.3945 51.9847 21.8033 52.1431 21.3409 51.8762C20.8785 51.6092 20.7201 51.018 20.9871 50.5556L23.5649 46.0907C23.8319 45.6283 24.4231 45.4699 24.8854 45.7368C25.3478 46.0038 25.5062 46.595 25.2393 47.0574Z" fill="black"/>
<path d="M30.9621 33.2655L33.5399 28.8005C33.8069 28.3382 34.3981 28.1797 34.8605 28.4467C35.3228 28.7136 35.4812 29.3049 35.2143 29.7672L32.6365 34.2322C32.3695 34.6945 31.7783 34.853 31.3159 34.586C30.8536 34.3191 30.6951 33.7279 30.9621 33.2655Z" fill="black"/>
<path d="M37.801 44.7249C37.752 48.5734 35.3321 49.308 35.3321 49.308L29.5135 43.455L29.7047 38.9363C29.7047 38.9363 37.8446 41.2922 37.801 44.7249Z" fill="white"/>
<path d="M28.7206 38.6219C28.7333 38.3256 28.8813 38.0517 29.1222 37.8785C29.3631 37.7052 29.67 37.6522 29.9551 37.7347L29.9582 37.7351C29.9596 37.7355 29.9614 37.7363 29.9637 37.737C29.9686 37.7384 29.9758 37.7406 29.9845 37.7431C30.0019 37.7483 30.0268 37.7559 30.0586 37.7655C30.1224 37.7849 30.2143 37.8133 30.3302 37.8503C30.5621 37.9245 30.8914 38.0336 31.2851 38.1753C32.0698 38.4578 33.1243 38.8744 34.1845 39.4062C35.2355 39.9334 36.341 40.5978 37.1943 41.3909C38.033 42.1704 38.7651 43.205 38.7491 44.4637C38.7218 46.609 38.0247 47.9883 37.2413 48.8404C36.858 49.2575 36.4711 49.5297 36.1696 49.7006C36.0189 49.786 35.8885 49.8467 35.7897 49.8878C35.7403 49.9084 35.6986 49.9247 35.6657 49.9364C35.6493 49.9422 35.6348 49.9466 35.6229 49.9505C35.6171 49.9524 35.6118 49.9542 35.6071 49.9557C35.6048 49.9564 35.6025 49.9575 35.6005 49.9581C35.5995 49.9584 35.5982 49.9587 35.5973 49.959L35.5959 49.9595C35.5952 49.9596 35.5922 49.9521 35.3138 49.0348L35.5946 49.96C35.2523 50.0639 34.8802 49.9697 34.6279 49.716L28.8093 43.863L28.7425 43.7882C28.5959 43.6064 28.5194 43.3762 28.5294 43.1406L28.7206 38.6219ZM30.4787 42.8005L35.4865 47.8376C35.5901 47.7574 35.7036 47.6571 35.8184 47.5322C36.2571 47.0549 36.7944 46.1425 36.8161 44.4395C36.8219 43.9821 36.5531 43.4347 35.878 42.8072C35.2174 42.1932 34.2957 41.6249 33.3172 41.1341C32.3481 40.648 31.3704 40.261 30.6303 39.9946C30.6194 39.9907 30.6082 39.9871 30.5974 39.9832L30.4787 42.8005Z" fill="black"/>
<path d="M37.1628 74.0721C37.1801 73.7166 37.4822 73.4423 37.8377 73.4596L41.2215 73.6241C41.5769 73.6415 41.851 73.9441 41.8337 74.2995C41.8163 74.6548 41.5137 74.929 41.1583 74.9117L37.7748 74.7467C37.4195 74.7292 37.1457 74.4274 37.1628 74.0721ZM32.0469 69.9244C32.1005 69.5726 32.4293 69.3304 32.7811 69.384L37.8353 70.1546C38.1871 70.2082 38.4287 70.5367 38.3752 70.8885C38.3215 71.2402 37.993 71.4819 37.6413 71.4284L32.587 70.6592C32.2351 70.6056 31.9933 70.2763 32.0469 69.9244ZM26.1676 73.3307C26.2145 72.9779 26.5384 72.7294 26.8912 72.776L33.3821 73.6385C33.7348 73.6855 33.9832 74.0098 33.9364 74.3626C33.8894 74.7152 33.5652 74.963 33.2126 74.9163L26.7217 74.0539C26.3691 74.0069 26.121 73.6832 26.1676 73.3307Z" fill="#CD9733"/>
</g>
<g clip-path="url(#clip3_542_4792)">
<path d="M145.112 89.8752C123.441 111.546 88.3063 111.546 66.6358 89.8752C44.9653 68.2047 44.9653 33.0699 66.6358 11.3994C88.3063 -10.271 123.441 -10.271 145.112 11.3994C166.782 33.0699 166.782 68.2047 145.112 89.8752Z" fill="#EFB752"/>
<path d="M66.6361 11.3995C88.3066 -10.2709 123.441 -10.2708 145.112 11.3997C166.782 33.0702 166.782 68.2046 145.111 89.8751C123.61 111.376 88.8544 111.544 67.1462 90.3788L66.6359 89.8749C45.1348 68.3737 44.9669 33.618 66.1322 11.9098L66.6361 11.3995ZM143.43 13.0812C122.688 -7.66031 89.0593 -7.66026 68.3177 13.0813C47.5761 33.8229 47.5762 67.4518 68.3177 88.1933C89.0593 108.935 122.688 108.935 143.43 88.1933C164.171 67.4517 164.171 33.8228 143.43 13.0812Z" fill="white"/>
<path d="M104.171 25.8656L98.0443 24.2239C97.4098 24.0539 97.0333 23.4018 97.2033 22.7674C97.3733 22.1329 98.0254 21.7564 98.6599 21.9264L104.787 23.5681C105.421 23.7381 105.798 24.3902 105.628 25.0246C105.458 25.6591 104.805 26.0356 104.171 25.8656Z" fill="black"/>
<path d="M118.875 27.4513L125.002 29.093C125.636 29.263 126.013 29.9151 125.843 30.5495C125.673 31.184 125.02 31.5605 124.386 31.3905L118.259 29.7488C117.625 29.5788 117.248 28.9267 117.418 28.2923C117.588 27.6578 118.24 27.2813 118.875 27.4513Z" fill="black"/>
<path d="M108.081 30.7351C103.291 27.7573 96.8365 37.1232 99.1667 40.5721C101.497 44.0211 113.372 51.4018 115.586 39.5181C117.801 27.6345 112.353 33.3912 108.081 30.7351Z" fill="white"/>
<path d="M114.495 30.6863C115.032 30.8117 115.574 31.0513 116.027 31.5098C116.478 31.9659 116.767 32.5646 116.93 33.2833C117.245 34.6717 117.132 36.7158 116.576 39.7024C115.99 42.8435 114.727 44.9079 112.952 46.0316C111.188 47.1488 109.122 47.2065 107.2 46.7768C105.277 46.3467 103.389 45.4076 101.843 44.3687C100.309 43.3384 99.0153 42.1455 98.333 41.1357C97.5124 39.9211 97.5465 38.3374 97.9307 36.9013C98.3239 35.4315 99.1335 33.9071 100.168 32.6145C101.199 31.3265 102.51 30.198 103.955 29.6011C105.428 28.9925 107.082 28.9291 108.612 29.8803C109.45 30.4015 110.374 30.5325 111.385 30.5509C111.937 30.5608 112.353 30.5401 112.92 30.5415C113.425 30.5429 113.975 30.5646 114.495 30.6863ZM114.037 32.6465C113.749 32.579 113.387 32.5557 112.914 32.5545C112.504 32.5534 111.875 32.5726 111.349 32.5631C110.207 32.5425 108.847 32.3965 107.549 31.5897C106.685 31.0521 105.735 31.0435 104.724 31.4613C103.684 31.8907 102.63 32.7605 101.739 33.8726C100.853 34.9804 100.186 36.2584 99.8749 37.4216C99.5547 38.6185 99.6559 39.499 100 40.0089C100.483 40.7235 101.547 41.7461 102.965 42.6982C104.369 43.6418 106.026 44.4521 107.639 44.8128C109.254 45.1739 110.718 45.0643 111.876 44.331C113.024 43.6042 114.075 42.1343 114.597 39.3336C115.148 36.3788 115.185 34.6861 114.968 33.7287C114.865 33.2745 114.718 33.0475 114.596 32.9243C114.477 32.8037 114.31 32.7103 114.037 32.6465Z" fill="black"/>
<path d="M72.1687 50.5275C72.5966 50.4349 73.0188 50.7065 73.1114 51.1344L73.9934 55.208C74.0859 55.6358 73.8136 56.0579 73.3858 56.1505C72.9579 56.2429 72.5358 55.9707 72.4432 55.5429L71.5619 51.4695C71.4695 51.0418 71.741 50.6203 72.1687 50.5275ZM75.4686 43.1273C75.9037 43.0791 76.2962 43.3926 76.3446 43.8278L77.0382 50.0792C77.0865 50.5143 76.773 50.906 76.3379 50.9545C75.9029 51.0027 75.511 50.6893 75.4627 50.2542L74.7674 44.0031C74.719 43.5679 75.0333 43.1757 75.4686 43.1273ZM69.5487 37.2253C69.9828 37.1687 70.3814 37.4745 70.4382 37.9086L71.4801 45.8966C71.5365 46.3307 71.2302 46.7292 70.7961 46.7859C70.3621 46.8423 69.9644 46.536 69.9076 46.1021L68.8657 38.1141C68.8092 37.6801 69.1149 37.2823 69.5487 37.2253Z" fill="#CD9733"/>
</g>
<g clip-path="url(#clip4_542_4792)">
<path d="M170.618 134.417C161.882 167.02 128.37 186.369 95.7663 177.633C63.1628 168.897 43.8144 135.384 52.5505 102.781C61.2866 70.1772 94.799 50.8289 127.402 59.565C160.006 68.301 179.354 101.813 170.618 134.417Z" fill="#EFB752"/>
<path d="M52.5508 102.781C61.2869 70.1772 94.7991 50.8291 127.403 59.5652C160.006 68.3013 179.354 101.813 170.618 134.417C161.95 166.766 128.892 186.065 96.5304 177.832L95.7663 177.632C63.4174 168.965 44.1177 135.906 52.3512 103.545L52.5508 102.781ZM126.724 62.0953C95.5184 53.7337 63.4425 72.2528 55.0809 103.459C46.7193 134.665 65.2384 166.741 96.4444 175.102C127.65 183.464 159.726 164.945 168.088 133.739C176.449 102.533 157.93 70.4569 126.724 62.0953Z" fill="white"/>
<path d="M113.266 87.4593C113.795 86.9653 114.623 86.9929 115.117 87.5212C115.611 88.0496 115.584 88.8783 115.055 89.3724L111.186 92.9888L116.197 93.8736C116.909 93.9996 117.385 94.6796 117.259 95.3919C117.133 96.1041 116.453 96.5796 115.741 96.4537L108.149 95.1128C107.66 95.0263 107.263 94.671 107.122 94.1953C106.981 93.7195 107.12 93.2051 107.483 92.8661L113.266 87.4593Z" fill="black"/>
<path d="M89.0415 93.6042C89.2052 92.8996 89.9091 92.4613 90.6137 92.6249L98.3259 94.4157C98.8092 94.528 99.1872 94.9038 99.3028 95.3863C99.4184 95.8689 99.2519 96.3754 98.872 96.6945L92.968 101.652C92.414 102.117 91.5874 102.045 91.1222 101.491C90.6571 100.937 90.7288 100.111 91.2827 99.6453L95.1788 96.3739L90.0207 95.1763C89.3162 95.0126 88.8779 94.3087 89.0415 93.6042Z" fill="black"/>
<path d="M110.63 98.4022L98.5956 100.723C98.5956 100.723 101.286 115.823 107.416 115.084C113.546 114.346 110.63 98.4022 110.63 98.4022Z" fill="white"/>
<path d="M98.3479 99.4367L110.383 97.1161C110.726 97.05 111.081 97.124 111.37 97.3212C111.658 97.5185 111.856 97.8228 111.919 98.1665L111.92 98.1715C111.92 98.1739 111.921 98.1773 111.922 98.1816C111.923 98.1905 111.926 98.2039 111.929 98.2203C111.934 98.2532 111.943 98.3007 111.953 98.362C111.974 98.4848 112.003 98.6631 112.038 98.8885C112.108 99.339 112.2 99.9805 112.291 100.752C112.472 102.289 112.651 104.364 112.632 106.478C112.613 108.568 112.4 110.809 111.734 112.619C111.065 114.435 109.807 116.116 107.573 116.385C105.418 116.645 103.705 115.473 102.453 114C101.201 112.526 100.227 110.551 99.4872 108.657C98.7402 106.745 98.1967 104.822 97.8407 103.386C97.6622 102.665 97.5294 102.062 97.441 101.637C97.3968 101.424 97.3636 101.256 97.3412 101.139C97.33 101.081 97.3214 101.035 97.3156 101.004C97.3127 100.989 97.3101 100.977 97.3086 100.968C97.3078 100.964 97.3072 100.96 97.3067 100.958C97.3065 100.957 97.3068 100.955 97.3067 100.954C97.3098 100.953 97.3718 100.941 98.5954 100.723L97.3062 100.953C97.1806 100.248 97.6447 99.5723 98.3479 99.4367ZM100.147 101.757C100.213 102.05 100.292 102.387 100.383 102.756C100.723 104.127 101.235 105.933 101.927 107.704C102.626 109.492 103.473 111.154 104.449 112.304C105.426 113.454 106.349 113.893 107.259 113.784C108.09 113.683 108.766 113.094 109.275 111.713C109.786 110.326 109.994 108.443 110.012 106.454C110.03 104.49 109.863 102.533 109.689 101.058C109.64 100.644 109.59 100.269 109.544 99.9451L100.147 101.757Z" fill="black"/>
<path d="M79.3753 137.055C79.7325 136.731 80.2847 136.758 80.6088 137.115L83.6933 140.515C84.0171 140.872 83.9898 141.424 83.6327 141.748C83.2755 142.072 82.723 142.045 82.3991 141.688L79.3154 138.288C78.9917 137.931 79.0184 137.379 79.3753 137.055ZM78.4476 128.179C78.836 127.894 79.3831 127.977 79.6689 128.365L83.7731 133.946C84.0588 134.334 83.9755 134.881 83.5872 135.166C83.1987 135.452 82.6524 135.369 82.3667 134.981L78.2611 129.401C77.9753 129.012 78.0591 128.465 78.4476 128.179ZM69.551 125.81C69.9338 125.517 70.4824 125.589 70.7756 125.972L76.1683 133.017C76.4612 133.4 76.3885 133.949 76.0057 134.242C75.6228 134.535 75.0748 134.462 74.7816 134.079L69.3889 127.034C69.0961 126.651 69.1685 126.103 69.551 125.81Z" fill="#CD9733"/>
</g>
</g>
<defs>
<clipPath id="clip0_542_4792">
<rect x="12" y="12" width="128" height="128" rx="20" fill="white"/>
</clipPath>
<clipPath id="clip1_542_4792">
<rect width="91.9796" height="91.9796" fill="white" transform="translate(-3.19392 60) rotate(15)"/>
</clipPath>
<clipPath id="clip2_542_4792">
<rect width="90.2247" height="90.2247" fill="white" transform="translate(-17 64.1368) rotate(-60)"/>
</clipPath>
<clipPath id="clip3_542_4792">
<rect width="111" height="111" fill="white" transform="translate(66.7289 -17) rotate(15)"/>
</clipPath>
<clipPath id="clip4_542_4792">
<rect width="122.253" height="122.253" fill="white" transform="translate(37 75.6414) rotate(-15)"/>
</clipPath>
</defs>
</svg>
