<svg width="140" height="140" viewBox="0 0 140 140" fill="none" xmlns="http://www.w3.org/2000/svg">
<path d="M130.612 104.994C111.285 138.469 68.4807 149.938 35.0058 130.612C1.53095 111.285 -9.9384 68.4807 9.38834 35.0058C28.7151 1.53095 71.5193 -9.9384 104.994 9.38834C138.469 28.7151 149.938 71.5193 130.612 104.994Z" fill="#E8A125"/>
<path d="M9.38869 35.0059C28.7155 1.53106 71.5193 -9.93805 104.994 9.38866C138.469 28.7154 149.938 71.5193 130.611 104.994C111.436 138.207 69.148 149.758 35.792 131.059L35.0059 130.611C1.79251 111.435 -9.75761 69.148 8.94142 35.792L9.38869 35.0059ZM103.494 11.9863C71.4541 -6.51195 30.4846 4.46585 11.9863 36.5059C-6.51192 68.5459 4.46588 109.515 36.5059 128.014C68.5459 146.512 109.515 135.534 128.014 103.494C146.512 71.4541 135.534 30.4846 103.494 11.9863Z" fill="black"/>
<path d="M55.5962 42.7175L49.9393 37.0607C49.3536 36.4749 49.3536 35.5251 49.9393 34.9393C50.5251 34.3536 51.4749 34.3536 52.0607 34.9393L57.7175 40.5962C58.3033 41.182 58.3033 42.1317 57.7175 42.7175C57.1317 43.3033 56.182 43.3033 55.5962 42.7175Z" fill="black"/>
<path d="M77.9393 40.5962L83.5961 34.9393C84.1819 34.3536 85.1317 34.3536 85.7175 34.9393C86.3032 35.5251 86.3032 36.4749 85.7175 37.0607L80.0606 42.7175C79.4748 43.3033 78.5251 43.3033 77.9393 42.7175C77.3535 42.1317 77.3535 41.182 77.9393 40.5962Z" fill="black"/>
<path d="M66.6844 64C62.8888 64 63.0003 42 63.0003 42H73C73 42 73.0225 64 66.6844 64Z" fill="white"/>
<path d="M73 40.5L73.1533 40.5078C73.909 40.5845 74.499 41.2222 74.5 41.998L73 42C74.4597 41.9985 74.4989 41.9977 74.5 41.998V42.0684C74.4998 42.1123 74.4997 42.1767 74.499 42.2598C74.4976 42.426 74.4943 42.668 74.4883 42.9746C74.4763 43.5877 74.4515 44.4609 74.4023 45.5078C74.3042 47.5973 74.1065 50.3983 73.7041 53.2119C73.3051 56.0016 72.6914 58.9091 71.7227 61.1562C70.8133 63.2656 69.2707 65.4999 66.6846 65.5C65.3945 65.5 64.5892 64.5597 64.1494 63.8252C63.678 63.0378 63.3281 62.0132 63.0537 60.9316C62.4986 58.744 62.1488 55.8921 61.9238 53.1211C61.6974 50.3324 61.5922 47.5512 61.543 45.4727C61.5183 44.4321 61.5073 43.5645 61.5029 42.9561C61.5007 42.6518 61.5001 42.4122 61.5 42.248V41.9932C61.5043 41.1679 62.1748 40.5002 63 40.5H73ZM64.5088 43.5C64.5148 44.0253 64.5247 44.6702 64.542 45.4023C64.5905 47.4487 64.6939 50.1679 64.9141 52.8789C65.1356 55.6077 65.4704 58.2561 65.9619 60.1934C66.2108 61.1742 66.4747 61.8685 66.7236 62.2842C66.7784 62.3755 66.8242 62.4387 66.8584 62.4824C67.4266 62.3848 68.1822 61.791 68.9678 59.9688C69.7773 58.091 70.3467 55.4982 70.7344 52.7881C71.1186 50.1019 71.3106 47.4026 71.4062 45.3672C71.44 44.65 71.4598 44.0175 71.4736 43.5H64.5088Z" fill="black"/>
<path d="M28.9018 80.8689C29.393 80.6163 29.9959 80.8094 30.2485 81.3005L32.6528 85.9753C32.9051 86.4664 32.7112 87.0695 32.2202 87.322C31.7291 87.5743 31.126 87.3804 30.8735 86.8894L28.4702 82.2146C28.218 81.7236 28.4111 81.1215 28.9018 80.8689ZM30.5063 70.7761C31.0207 70.5753 31.6013 70.8292 31.8022 71.3435L34.688 78.7331C34.8888 79.2474 34.6348 79.827 34.1206 80.0281C33.6063 80.2288 33.0266 79.9749 32.8257 79.4607L29.938 72.072C29.737 71.5576 29.9919 70.9771 30.5063 70.7761ZM21.3676 65.5183C21.878 65.3076 22.4634 65.5501 22.6743 66.0603L26.5512 75.4519C26.7617 75.9623 26.5186 76.5478 26.0083 76.7585C25.498 76.969 24.9135 76.7257 24.7026 76.2156L20.8257 66.824C20.6152 66.3138 20.8577 65.7292 21.3676 65.5183Z" fill="#BD8828"/>
</svg>
