<svg width="140" height="140" viewBox="0 0 140 140" fill="none" xmlns="http://www.w3.org/2000/svg">
<path d="M114.262 125.264C62.7491 134.902 56.8185 149.527 28.6544 131.342C0.490209 113.158 -10.1899 47.8568 11.6448 27.0126C34.5394 7.49914 71.575 -10.6852 99.7391 7.49919C110.41 14.389 130.714 35.453 136.072 54.1409C144.075 82.0577 141.271 118.5 114.262 125.264Z" fill="#E8A125"/>
<path d="M11.645 27.0126C34.5397 7.49919 71.5753 -10.6851 99.7395 7.49914C110.411 14.389 130.714 35.4529 136.072 54.1408C144.075 82.0574 141.272 118.5 114.263 125.264L111.881 125.719C63.3413 135.198 56.5854 148.803 29.9582 132.171L28.6546 131.342C0.710503 113.3 -10.022 48.8746 11.1388 27.5094L11.645 27.0126ZM97.9682 9.89612C84.9352 1.48134 69.7277 1.35612 54.6717 5.89199C39.6098 10.4298 25.0353 19.5557 13.816 29.1042C9.01458 33.7202 5.7758 41.0219 4.20592 50.019C2.63887 59.0002 2.7894 69.3737 4.48084 79.7358C6.17167 90.0938 9.38479 100.33 13.8545 109.041C18.3412 117.785 23.9897 124.79 30.4259 128.946C37.2818 133.372 42.5425 135.641 47.3036 136.567C52.0204 137.485 56.5161 137.139 61.9698 135.906C67.5509 134.643 73.7652 132.552 82.1729 130.06C90.4579 127.605 100.567 124.861 113.534 122.429C125.404 119.422 132.306 109.886 135.249 97.0257C138.198 84.1395 136.971 68.5293 133.062 54.8946C130.538 46.0908 124.405 36.5125 117.443 28.1902C110.485 19.8726 102.963 13.121 97.9682 9.89612Z" fill="black"/>
<path d="M28.8078 85.2885C29.3171 85.0266 29.9418 85.2273 30.2038 85.7366L32.6969 90.5836C32.9587 91.0928 32.7586 91.718 32.2496 91.9801C31.7403 92.242 31.1142 92.0417 30.8523 91.5324L28.3597 86.6845C28.098 86.1752 28.2986 85.5504 28.8078 85.2885ZM20.9947 69.3689C21.5238 69.1506 22.1306 69.4023 22.3493 69.9312L26.37 79.6712C26.5882 80.2004 26.336 80.8067 25.8069 81.0253C25.2775 81.2437 24.6712 80.9915 24.4527 80.4622L20.4324 70.7235C20.2142 70.1944 20.4657 69.5876 20.9947 69.3689ZM30.4714 74.8216C31.0048 74.6135 31.607 74.8771 31.8154 75.4104L34.8087 83.0733C35.0171 83.6066 34.7534 84.2078 34.2204 84.4164C33.687 84.6249 33.0858 84.3615 32.8773 83.8281L29.8826 76.1656C29.6742 75.6321 29.938 75.03 30.4714 74.8216Z" fill="#BD8828"/>
<path d="M55.5962 42.7175L49.9393 37.0607C49.3536 36.4749 49.3536 35.5251 49.9393 34.9393C50.5251 34.3536 51.4749 34.3536 52.0607 34.9393L57.7175 40.5962C58.3033 41.182 58.3033 42.1317 57.7175 42.7175C57.1317 43.3033 56.182 43.3033 55.5962 42.7175Z" fill="black"/>
<path d="M77.9393 40.5962L83.5961 34.9393C84.1819 34.3536 85.1317 34.3536 85.7175 34.9393C86.3032 35.5251 86.3032 36.4749 85.7175 37.0607L80.0606 42.7175C79.4748 43.3033 78.5251 43.3033 77.9393 42.7175C77.3535 42.1317 77.3535 41.182 77.9393 40.5962Z" fill="black"/>
<path d="M66.6844 64C62.8888 64 63.0003 42 63.0003 42H73C73 42 73.0225 64 66.6844 64Z" fill="white"/>
<path d="M73 40.5L73.1533 40.5078C73.909 40.5845 74.499 41.2222 74.5 41.998L73 42C74.4597 41.9985 74.4989 41.9977 74.5 41.998V42.0684C74.4998 42.1123 74.4997 42.1767 74.499 42.2598C74.4976 42.426 74.4943 42.668 74.4883 42.9746C74.4763 43.5877 74.4515 44.4609 74.4023 45.5078C74.3042 47.5973 74.1065 50.3983 73.7041 53.2119C73.3051 56.0016 72.6914 58.9091 71.7227 61.1563C70.8133 63.2656 69.2707 65.4999 66.6846 65.5C65.3945 65.5 64.5892 64.5597 64.1494 63.8252C63.678 63.0378 63.3281 62.0132 63.0537 60.9316C62.4986 58.744 62.1488 55.8921 61.9238 53.1211C61.6974 50.3324 61.5922 47.5512 61.543 45.4727C61.5183 44.4321 61.5073 43.5645 61.5029 42.9561C61.5007 42.6518 61.5001 42.4122 61.5 42.248V41.9932C61.5043 41.1679 62.1748 40.5002 63 40.5H73ZM64.5088 43.5C64.5148 44.0253 64.5247 44.6702 64.542 45.4023C64.5905 47.4487 64.6939 50.1679 64.9141 52.8789C65.1356 55.6077 65.4704 58.2561 65.9619 60.1934C66.2108 61.1742 66.4747 61.8685 66.7236 62.2842C66.7784 62.3755 66.8242 62.4387 66.8584 62.4824C67.4266 62.3848 68.1822 61.791 68.9678 59.9688C69.7773 58.091 70.3467 55.4982 70.7344 52.7881C71.1186 50.1019 71.3106 47.4026 71.4062 45.3672C71.44 44.65 71.4598 44.0175 71.4736 43.5H64.5088Z" fill="black"/>
</svg>
