<svg width="140" height="140" viewBox="0 0 140 140" fill="none" xmlns="http://www.w3.org/2000/svg">
<path d="M117.748 121.92C74.1276 143.052 43.8144 143.714 28.0665 133.855C-8.43173 111.004 -2.36681 74.4609 7.74968 43.9509C15.1432 21.653 36.1946 7.85616 55.2007 3.59256C86.8265 -3.50197 97.9676 -0.506974 113.223 16.3293C130.345 35.2256 161.368 100.789 117.748 121.92Z" fill="#E8A125"/>
<path d="M55.201 3.59303C86.8266 -3.50145 97.9677 -0.507102 113.223 16.3291C130.345 35.2254 161.368 100.788 117.748 121.92L115.713 122.896C73.1839 143.07 43.5683 143.56 28.0664 133.854C-7.86134 111.36 -2.5457 75.5994 7.27883 45.3853L7.74983 43.9506C15.0279 22.0012 35.5401 8.2889 54.3084 3.79895L55.201 3.59303ZM89.7253 4.33546C81.7372 2.51856 71.5759 3.40858 55.8182 6.94345C37.4235 11.0699 17.5506 24.3435 10.6596 45.126C5.63773 60.2712 1.81544 76.3916 3.50174 91.3529C5.15661 106.035 12.1568 119.962 29.5954 130.88C36.7277 135.345 47.5387 137.64 62.1621 136.105C76.7494 134.574 94.907 129.25 116.503 118.788C126.663 113.866 132.263 106.507 134.923 98.0437C137.624 89.448 137.39 79.384 135.244 69.0509C130.935 48.3064 119.197 27.7578 111.032 18.7467C103.618 10.5643 97.5375 6.11242 89.7253 4.33546Z" fill="black"/>
<path d="M55.5962 42.7175L49.9393 37.0607C49.3536 36.4749 49.3536 35.5251 49.9393 34.9393C50.5251 34.3536 51.4749 34.3536 52.0607 34.9393L57.7175 40.5962C58.3033 41.182 58.3033 42.1317 57.7175 42.7175C57.1317 43.3033 56.182 43.3033 55.5962 42.7175Z" fill="black"/>
<path d="M77.9393 40.5962L83.5961 34.9394C84.1819 34.3536 85.1317 34.3536 85.7175 34.9394C86.3032 35.5251 86.3032 36.4749 85.7175 37.0607L80.0606 42.7175C79.4748 43.3033 78.5251 43.3033 77.9393 42.7175C77.3535 42.1317 77.3535 41.182 77.9393 40.5962Z" fill="black"/>
<path d="M66.6844 64C62.8888 64 63.0003 42 63.0003 42H73C73 42 73.0225 64 66.6844 64Z" fill="white"/>
<path d="M73 40.5L73.1533 40.5078C73.909 40.5845 74.499 41.2222 74.5 41.998L73 42C74.4597 41.9985 74.4989 41.9977 74.5 41.998V42.0684C74.4998 42.1123 74.4997 42.1767 74.499 42.2598C74.4976 42.426 74.4943 42.668 74.4883 42.9746C74.4763 43.5877 74.4515 44.4609 74.4023 45.5078C74.3042 47.5973 74.1065 50.3983 73.7041 53.2119C73.3051 56.0016 72.6914 58.9091 71.7227 61.1562C70.8133 63.2656 69.2707 65.4999 66.6846 65.5C65.3945 65.5 64.5892 64.5597 64.1494 63.8252C63.678 63.0378 63.3281 62.0132 63.0537 60.9316C62.4986 58.744 62.1488 55.8921 61.9238 53.1211C61.6974 50.3324 61.5922 47.5512 61.543 45.4727C61.5183 44.4321 61.5073 43.5645 61.5029 42.9561C61.5007 42.6518 61.5001 42.4122 61.5 42.248V41.9932C61.5043 41.1679 62.1748 40.5002 63 40.5H73ZM64.5088 43.5C64.5148 44.0253 64.5247 44.6702 64.542 45.4023C64.5905 47.4487 64.6939 50.1679 64.9141 52.8789C65.1356 55.6077 65.4704 58.2561 65.9619 60.1934C66.2108 61.1742 66.4747 61.8685 66.7236 62.2842C66.7784 62.3755 66.8242 62.4387 66.8584 62.4824C67.4266 62.3848 68.1822 61.791 68.9678 59.9688C69.7773 58.091 70.3467 55.4982 70.7344 52.7881C71.1186 50.1019 71.3106 47.4026 71.4062 45.3672C71.44 44.65 71.4598 44.0175 71.4736 43.5H64.5088Z" fill="black"/>
<path d="M28.2762 101.01C28.7833 100.723 29.406 100.942 29.6669 101.502L32.1492 106.83C32.4101 107.39 32.2102 108.077 31.703 108.365C31.1957 108.653 30.5731 108.433 30.3122 107.873L27.8299 102.545C27.5691 101.985 27.769 101.298 28.2762 101.01ZM20.4952 83.5132C21.0222 83.2734 21.6265 83.5498 21.8443 84.1312L25.8484 94.8365C26.0657 95.4182 25.8145 96.0846 25.2876 96.3248C24.7604 96.5649 24.1566 96.2877 23.939 95.7059L19.9352 85.0021C19.7177 84.4204 19.9683 83.7536 20.4952 83.5132ZM29.933 89.5063C30.4641 89.2776 31.0639 89.5673 31.2714 90.1535L34.2524 98.5758C34.4598 99.1618 34.1972 99.8227 33.6665 100.052C33.1353 100.281 32.5366 99.9916 32.3289 99.4054L29.3465 90.9835C29.139 90.3971 29.4017 89.7354 29.933 89.5063Z" fill="#BD8828"/>
</svg>
