<svg width="152" height="152" viewBox="0 0 152 152" fill="none" xmlns="http://www.w3.org/2000/svg">
<g clip-path="url(#clip0_542_4792)">
<circle cx="43" cy="111" r="49.5" fill="#EFB752" stroke="white" stroke-width="3"/>
<circle cx="46.5" cy="44.5" r="45" fill="#EFB752" stroke="white" stroke-width="3"/>
<circle cx="110" cy="36" r="40.5" fill="#EFB752" stroke="white" stroke-width="3"/>
<circle cx="108.5" cy="105.5" r="55" fill="#EFB752" stroke="white" stroke-width="3"/>
<path d="M33.4247 45.8529L37.4247 52.7811" stroke="black" stroke-width="3" stroke-linecap="round"/>
<path d="M94 33.5L98 40.4282" stroke="black" stroke-width="3" stroke-linecap="round"/>
<path d="M55.0753 33.3529L59.0753 40.2811" stroke="black" stroke-width="3" stroke-linecap="round"/>
<path d="M115.651 21L119.651 27.9282" stroke="black" stroke-width="3" stroke-linecap="round"/>
<path d="M82.6747 93.7859L86.6747 100.714" stroke="black" stroke-width="3" stroke-linecap="round"/>
<path d="M104.325 81.2859L108.325 88.2141" stroke="black" stroke-width="3" stroke-linecap="round"/>
<path d="M17 113.5L21 120.428" stroke="black" stroke-width="3" stroke-linecap="round"/>
<path d="M38.6506 101L42.6506 107.928" stroke="black" stroke-width="3" stroke-linecap="round"/>
<path d="M43.8489 47.9082C43.8489 47.9082 46.1785 49.1755 49.0233 47.212C51.5607 45.4606 51.1471 42.549 51.1471 42.549" stroke="black" stroke-width="3" stroke-linecap="round"/>
<path d="M104.424 35.5554C104.424 35.5554 106.754 36.8227 109.599 34.8591C112.136 33.1077 111.722 30.1962 111.722 30.1962" stroke="black" stroke-width="3" stroke-linecap="round"/>
<path d="M94.4961 97.3592C94.4961 97.3592 96.8256 98.6265 99.6704 96.6629C102.208 94.9115 101.794 92 101.794 92" stroke="black" stroke-width="3" stroke-linecap="round"/>
<path d="M28.8214 117.073C28.8214 117.073 31.1509 118.341 33.9957 116.377C36.5332 114.626 36.1195 111.714 36.1195 111.714" stroke="black" stroke-width="3" stroke-linecap="round"/>
<path d="M18.5 64L25 69" stroke="#CD9733" stroke-width="2" stroke-linecap="round"/>
<path d="M76 127L82.5 132" stroke="#CD9733" stroke-width="2" stroke-linecap="round"/>
<path d="M27 64L32 68" stroke="#CD9733" stroke-width="2" stroke-linecap="round"/>
<path d="M84.5 127L89.5 131" stroke="#CD9733" stroke-width="2" stroke-linecap="round"/>
<path d="M30 71.6347L33.5668 73.9321" stroke="#CD9733" stroke-width="2" stroke-linecap="round"/>
<path d="M87.5 134.635L91.0668 136.932" stroke="#CD9733" stroke-width="2" stroke-linecap="round"/>
</g>
<defs>
<clipPath id="clip0_542_4792">
<rect x="12" y="12" width="128" height="128" rx="20" fill="white"/>
</clipPath>
</defs>
</svg>
