<svg width="140" height="140" viewBox="0 0 140 140" fill="none" xmlns="http://www.w3.org/2000/svg">
<path d="M17.6184 26.2984C-2.15885 56.2293 -4.45244 74.602 6.58293 101.001C17.6183 127.399 35.4852 140 68.3544 140C119.565 140 123.757 128.195 134.948 92.7472C146.139 57.2997 139.038 21.5339 110.631 12.2566C72.7955 -0.100105 43.4148 -12.742 17.6184 26.2984Z" fill="#E8A125"/>
<path d="M17.6185 26.2987C43.4149 -12.7417 72.7957 -0.0998069 110.632 12.2569C139.038 21.5344 146.139 57.2996 134.948 92.7469L133.918 96.0018C123.449 128.921 117.964 140 68.3547 140V136.63C93.9666 136.63 106.802 133.615 114.719 127.01C122.669 120.376 126.268 109.699 131.96 91.6697C137.405 74.4255 138.316 57.3414 134.609 43.6238C130.931 30.014 122.744 19.7366 109.71 15.4799C90.5169 9.21174 74.3224 3.20546 59.6439 3.37331C52.4314 3.4558 45.6852 5.04505 39.2368 8.8474C32.7709 12.6601 26.4337 18.7989 20.1937 28.2426C10.4166 43.0392 5.22072 54.6072 3.66306 65.484C2.11877 76.2675 4.09463 86.7866 9.46201 99.6263C14.7904 112.372 21.6435 121.51 30.915 127.518C40.2196 133.547 52.2794 136.63 68.3547 136.63V140L66.8244 139.991C35.4349 139.609 18.0047 127.384 7.10548 102.228L6.58306 101.001C-4.27988 75.0148 -2.22734 56.8054 16.704 27.693L17.6185 26.2987Z" fill="black"/>
<path d="M55.5962 42.7175L49.9393 37.0607C49.3536 36.4749 49.3536 35.5251 49.9393 34.9393C50.5251 34.3536 51.4749 34.3536 52.0607 34.9393L57.7175 40.5962C58.3033 41.182 58.3033 42.1317 57.7175 42.7175C57.1317 43.3033 56.182 43.3033 55.5962 42.7175Z" fill="black"/>
<path d="M77.9393 40.5962L83.5961 34.9393C84.1819 34.3535 85.1317 34.3535 85.7175 34.9393C86.3032 35.5251 86.3032 36.4749 85.7175 37.0606L80.0606 42.7175C79.4748 43.3033 78.5251 43.3033 77.9393 42.7175C77.3535 42.1317 77.3535 41.182 77.9393 40.5962Z" fill="black"/>
<path d="M66.6844 64C62.8888 64 63.0003 42 63.0003 42H73C73 42 73.0225 64 66.6844 64Z" fill="white"/>
<path d="M73 40.5L73.1533 40.5078C73.909 40.5845 74.499 41.2222 74.5 41.998L73 42C74.4597 41.9985 74.4989 41.9977 74.5 41.998V42.0684C74.4998 42.1123 74.4997 42.1767 74.499 42.2598C74.4976 42.426 74.4943 42.668 74.4883 42.9746C74.4763 43.5877 74.4515 44.4609 74.4023 45.5078C74.3042 47.5973 74.1065 50.3983 73.7041 53.2119C73.3051 56.0016 72.6914 58.9091 71.7227 61.1562C70.8133 63.2656 69.2707 65.4999 66.6846 65.5C65.3945 65.5 64.5892 64.5597 64.1494 63.8252C63.678 63.0378 63.3281 62.0132 63.0537 60.9316C62.4986 58.744 62.1488 55.8921 61.9238 53.1211C61.6974 50.3324 61.5922 47.5512 61.543 45.4727C61.5183 44.4321 61.5073 43.5645 61.5029 42.9561C61.5007 42.6518 61.5001 42.4122 61.5 42.248V41.9932C61.5043 41.1679 62.1748 40.5002 63 40.5H73ZM64.5088 43.5C64.5148 44.0253 64.5247 44.6702 64.542 45.4023C64.5905 47.4487 64.6939 50.1679 64.9141 52.8789C65.1356 55.6077 65.4704 58.2561 65.9619 60.1934C66.2108 61.1742 66.4747 61.8685 66.7236 62.2842C66.7784 62.3755 66.8242 62.4387 66.8584 62.4824C67.4266 62.3848 68.1822 61.791 68.9678 59.9688C69.7773 58.091 70.3467 55.4982 70.7344 52.7881C71.1186 50.1019 71.3106 47.4026 71.4062 45.3672C71.44 44.65 71.4598 44.0175 71.4736 43.5H64.5088Z" fill="black"/>
<path d="M25.4344 85.2651C25.9255 84.9814 26.5284 85.198 26.781 85.7496L29.1846 91.0009C29.4371 91.5526 29.2436 92.2294 28.7524 92.5131C28.2613 92.7968 27.6584 92.5803 27.4058 92.0286L25.0023 86.7773C24.7498 86.2256 24.9433 85.5488 25.4344 85.2651ZM17.9003 68.0207C18.4106 67.7843 18.9957 68.0567 19.2066 68.6297L23.0836 79.1803C23.2941 79.7536 23.0508 80.4103 22.5406 80.6471C22.0302 80.8837 21.4456 80.6105 21.2349 80.0371L17.3582 69.488C17.1475 68.9148 17.3901 68.2576 17.9003 68.0207ZM27.0386 73.9271C27.5529 73.7018 28.1337 73.9873 28.3346 74.565L31.221 82.8656C31.4218 83.4432 31.1676 84.0944 30.6537 84.3205C30.1394 84.5462 29.5596 84.2609 29.3586 83.6832L26.4708 75.383C26.2698 74.8051 26.5242 74.1529 27.0386 73.9271Z" fill="#BD8828"/>
</svg>
