<svg width="152" height="152" viewBox="0 0 152 152" fill="none" xmlns="http://www.w3.org/2000/svg">
<g clip-path="url(#clip0_651_7841)">
<path d="M61.8401 148.84C43.8829 166.797 14.7687 166.797 -3.18848 148.84C-21.1456 130.883 -21.1456 101.769 -3.18848 83.8115C14.7687 65.8544 43.8829 65.8544 61.8401 83.8115C79.7972 101.769 79.7972 130.883 61.8401 148.84Z" fill="#E8A125"/>
<path d="M-3.18822 83.8117C14.7689 65.8546 43.883 65.8547 61.8401 83.8118C79.7971 101.769 79.7971 130.883 61.8399 148.84C44.023 166.657 15.2229 166.796 -2.76552 149.257L-3.18836 148.84C-21.0052 131.023 -21.1443 102.223 -3.60573 84.2345L-3.18822 83.8117ZM60.4464 85.2053C43.259 68.0179 15.3926 68.0179 -1.79478 85.2053C-18.9822 102.393 -18.9821 130.259 -1.79473 147.447C15.3927 164.634 43.2591 164.634 60.4465 147.446C77.6339 130.259 77.6339 102.393 60.4464 85.2053Z" fill="black"/>
<path d="M24.109 101.476L20.9502 97.2747C20.6231 96.8397 20.7194 96.234 21.1652 95.9218C21.611 95.6097 22.2376 95.7092 22.5647 96.1442L25.7236 100.345C26.0507 100.78 25.9544 101.386 25.5086 101.698C25.0628 102.01 24.4361 101.911 24.109 101.476Z" fill="black"/>
<path d="M38.5795 103.717L43.4262 101.684C43.9281 101.473 44.5215 101.703 44.7515 102.196C44.9815 102.689 44.7611 103.26 44.2592 103.47L39.4124 105.503C38.9105 105.714 38.3172 105.485 38.0872 104.992C37.8572 104.498 38.0776 103.928 38.5795 103.717Z" fill="black"/>
<path d="M31.21 103.478C31.626 103.31 32.109 103.445 32.3768 103.814L36.0454 108.878C36.3647 109.319 36.2663 109.935 35.8256 110.254C35.3848 110.573 34.769 110.475 34.4497 110.034L31.2771 105.655L26.8138 107.952C26.3298 108.201 25.736 108.01 25.487 107.526C25.238 107.042 25.4283 106.449 25.9123 106.2L31.1281 103.516L31.21 103.478Z" fill="black"/>
<path d="M83.6865 25.0722C96.1418 46.6455 88.7503 74.2311 67.177 86.6865C45.6037 99.1418 18.018 91.7503 5.56269 70.177C-6.89266 48.6037 0.498898 21.018 22.0722 8.56268C43.6455 -3.89267 71.2311 3.49889 83.6865 25.0722Z" fill="#E8A125"/>
<path d="M5.56294 70.1768C-6.89234 48.6035 0.499238 21.0181 22.0725 8.56275C43.6458 -3.89252 71.2312 3.49906 83.6865 25.0723C96.0445 46.4771 88.8645 73.8004 67.6799 86.3917L67.1769 86.6863C45.7721 99.0443 18.4488 91.8644 5.85757 70.6797L5.56294 70.1768ZM23.039 10.237C2.39042 22.1584 -4.68429 48.5617 7.23716 69.2103C19.1586 89.8588 45.5619 96.9335 66.2105 85.0121C86.859 73.0906 93.9337 46.6873 82.0123 26.0388C70.0908 5.39024 43.6875 -1.68447 23.039 10.237Z" fill="black"/>
<path d="M25.533 45.9041L22.9552 50.369C22.6882 50.8314 22.097 50.9898 21.6347 50.7229C21.1723 50.4559 21.0139 49.8647 21.2808 49.4023L23.8587 44.9374C24.1256 44.475 24.7168 44.3166 25.1792 44.5835C25.6416 44.8505 25.8 45.4417 25.533 45.9041Z" fill="black"/>
<path d="M30.6199 33.2136L33.1978 28.7487C33.4647 28.2863 34.056 28.1279 34.5183 28.3948C34.9807 28.6618 35.1391 29.253 34.8722 29.7154L32.2943 34.1803C32.0274 34.6427 31.4361 34.8011 30.9738 34.5342C30.5114 34.2672 30.353 33.676 30.6199 33.2136Z" fill="black"/>
<path d="M38.2127 44.0118C38.1637 47.8603 35.7438 48.5949 35.7438 48.5949L29.9252 42.7419L30.1164 38.2232C30.1164 38.2232 38.2563 40.5791 38.2127 44.0118Z" fill="white"/>
<path d="M29.1323 37.9088C29.145 37.6125 29.293 37.3385 29.5339 37.1654C29.7748 36.9921 30.0817 36.9391 30.3668 37.0216L30.3699 37.0219C30.3713 37.0224 30.3731 37.0232 30.3754 37.0238C30.3803 37.0253 30.3875 37.0274 30.3962 37.03C30.4136 37.0352 30.4385 37.0427 30.4703 37.0524C30.5341 37.0718 30.626 37.1002 30.7419 37.1372C30.9738 37.2114 31.3031 37.3204 31.6968 37.4622C32.4815 37.7447 33.536 38.1613 34.5962 38.6931C35.6472 39.2203 36.7527 39.8847 37.606 40.6778C38.4447 41.4573 39.1768 42.4919 39.1608 43.7506C39.1335 45.8959 38.4364 47.2751 37.653 48.1273C37.2696 48.5443 36.8828 48.8166 36.5813 48.9875C36.4306 49.0729 36.3002 49.1336 36.2014 49.1747C36.152 49.1953 36.1103 49.2116 36.0774 49.2233C36.061 49.2291 36.0465 49.2335 36.0346 49.2374C36.0288 49.2393 36.0235 49.2411 36.0188 49.2426C36.0165 49.2433 36.0142 49.2444 36.0122 49.245C36.0112 49.2453 36.0099 49.2456 36.009 49.2459L36.0076 49.2464C36.0069 49.2465 36.0039 49.2389 35.7255 48.3217L36.0063 49.2468C35.664 49.3508 35.2919 49.2566 35.0396 49.0029L29.221 43.1499L29.1542 43.0751C29.0076 42.8932 28.9311 42.6631 28.9411 42.4275L29.1323 37.9088ZM30.8904 42.0874L35.8982 47.1245C36.0018 47.0443 36.1153 46.9439 36.2301 46.8191C36.6688 46.3418 37.2061 45.4294 37.2278 43.7264C37.2336 43.269 36.9648 42.7216 36.2897 42.0941C35.6291 41.4801 34.7074 40.9118 33.7289 40.421C32.7598 39.9349 31.7821 39.5479 31.042 39.2815C31.0311 39.2775 31.0199 39.274 31.0091 39.2701L30.8904 42.0874Z" fill="black"/>
<path d="M37.4476 74.0646C37.4649 73.7091 37.767 73.4348 38.1225 73.4521L41.5063 73.6166C41.8617 73.634 42.1358 73.9365 42.1185 74.2919C42.1011 74.6473 41.7985 74.9215 41.4431 74.9042L38.0596 74.7391C37.7043 74.7217 37.4305 74.4199 37.4476 74.0646ZM32.3317 69.9169C32.3853 69.5651 32.7141 69.3229 33.0659 69.3765L38.1201 70.147C38.4719 70.2006 38.7135 70.5292 38.66 70.881C38.6063 71.2327 38.2778 71.4744 37.9261 71.4209L32.8718 70.6517C32.5199 70.5981 32.2781 70.2688 32.3317 69.9169ZM26.4524 73.3231C26.4993 72.9704 26.8232 72.7218 27.1759 72.7685L33.6669 73.631C34.0196 73.678 34.268 74.0023 34.2212 74.3551C34.1742 74.7077 33.85 74.9555 33.4974 74.9088L27.0065 74.0464C26.6539 73.9994 26.4058 73.6757 26.4524 73.3231Z" fill="#BD8828"/>
<path d="M145.211 90.2112C123.541 111.882 88.4059 111.882 66.7355 90.2112C45.065 68.5407 45.065 33.406 66.7355 11.7355C88.4059 -9.93501 123.541 -9.93501 145.211 11.7355C166.882 33.4059 166.882 68.5407 145.211 90.2112Z" fill="#E8A125"/>
<path d="M66.7358 11.7356C88.4063 -9.93478 123.541 -9.93467 145.211 11.7358C166.882 33.4063 166.881 68.5408 145.211 90.2112C123.71 111.712 88.9541 111.88 67.2459 90.7149L66.7356 90.211C45.2344 68.7098 45.0666 33.9541 66.2319 12.2459L66.7358 11.7356ZM143.529 13.4174C122.788 -7.32419 89.1589 -7.32414 68.4173 13.4174C47.6758 34.159 47.6758 67.7879 68.4174 88.5295C89.159 109.271 122.788 109.271 143.529 88.5294C164.271 67.7878 164.271 34.1589 143.529 13.4174Z" fill="black"/>
<path d="M104.088 25.8434L97.9615 24.2018C97.327 24.0318 96.9505 23.3797 97.1205 22.7452C97.2905 22.1108 97.9427 21.7343 98.5771 21.9043L104.704 23.5459C105.338 23.7159 105.715 24.368 105.545 25.0025C105.375 25.6369 104.723 26.0134 104.088 25.8434Z" fill="black"/>
<path d="M118.792 27.4292L124.919 29.0708C125.553 29.2408 125.93 29.8929 125.76 30.5274C125.59 31.1618 124.938 31.5383 124.303 31.3683L118.176 29.7267C117.542 29.5567 117.166 28.9046 117.336 28.2701C117.506 27.6357 118.158 27.2592 118.792 27.4292Z" fill="black"/>
<path d="M107.998 30.713C103.208 27.7351 96.7537 37.101 99.0839 40.55C101.414 43.9989 113.289 51.3797 115.504 39.496C117.718 27.6124 112.27 33.3691 107.998 30.713Z" fill="white"/>
<path d="M114.413 30.6641C114.949 30.7895 115.492 31.0291 115.945 31.4877C116.395 31.9437 116.685 32.5424 116.848 33.2612C117.163 34.6496 117.05 36.6936 116.493 39.6802C115.908 42.8213 114.644 44.8857 112.87 46.0095C111.105 47.1266 109.039 47.1844 107.118 46.7547C105.194 46.3245 103.307 45.3855 101.76 44.3465C100.227 43.3163 98.9326 42.1233 98.2503 41.1135C97.4297 39.8989 97.4637 38.3152 97.8479 36.8791C98.2412 35.4093 99.0508 33.8849 100.085 32.5924C101.116 31.3043 102.427 30.1758 103.872 29.5789C105.345 28.9704 106.999 28.9069 108.529 29.8581C109.367 30.3793 110.291 30.5104 111.303 30.5287C111.854 30.5387 112.27 30.5179 112.837 30.5194C113.342 30.5207 113.892 30.5425 114.413 30.6641ZM113.955 32.6243C113.666 32.5569 113.305 32.5336 112.832 32.5324C112.421 32.5313 111.792 32.5505 111.267 32.541C110.124 32.5203 108.764 32.3743 107.467 31.5676C106.602 31.0299 105.652 31.0213 104.641 31.4391C103.601 31.8686 102.547 32.7383 101.657 33.8505C100.77 34.9583 100.103 36.2362 99.7921 37.3994C99.4719 38.5963 99.5731 39.4769 99.9175 39.9867C100.4 40.7013 101.465 41.7239 102.882 42.6761C104.286 43.6196 105.943 44.4299 107.556 44.7907C109.171 45.1517 110.635 45.0422 111.793 44.3089C112.941 43.582 113.992 42.1122 114.514 39.3115C115.065 36.3567 115.102 34.664 114.885 33.7065C114.782 33.2524 114.635 33.0254 114.513 32.9022C114.394 32.7816 114.228 32.6881 113.955 32.6243Z" fill="black"/>
<path d="M72.2683 50.8636C72.6963 50.7709 73.1184 51.0425 73.2111 51.4705L74.0931 55.544C74.1855 55.9719 73.9133 56.394 73.4854 56.4866C73.0576 56.579 72.6355 56.3068 72.5428 55.8789L71.6616 51.8056C71.5692 51.3778 71.8406 50.9563 72.2683 50.8636ZM75.5682 43.4634C76.0033 43.4151 76.3959 43.7287 76.4442 44.1638L77.1378 50.4153C77.1861 50.8504 76.8726 51.2421 76.4376 51.2906C76.0025 51.3387 75.6107 51.0254 75.5623 50.5903L74.867 44.3392C74.8186 43.904 75.133 43.5117 75.5682 43.4634ZM69.6484 37.5614C70.0824 37.5048 70.481 37.8106 70.5378 38.2446L71.5797 46.2327C71.6362 46.6667 71.3299 47.0653 70.8958 47.1219C70.4618 47.1784 70.0641 46.8721 70.0073 46.4382L68.9653 38.4501C68.9089 38.0162 69.2146 37.6183 69.6484 37.5614Z" fill="#BD8828"/>
<path d="M170.898 134.683C162.162 167.286 128.65 186.634 96.0464 177.898C63.4429 169.162 44.0945 135.65 52.8306 103.046C61.5667 70.4429 95.079 51.0945 127.683 59.8306C160.286 68.5667 179.634 102.079 170.898 134.683Z" fill="#E8A125"/>
<path d="M52.8309 103.046C61.5671 70.4429 95.0792 51.0948 127.683 59.8309C160.286 68.567 179.634 102.079 170.898 134.683C162.23 167.031 129.172 186.331 96.8106 178.098L96.0464 177.898C63.6976 169.23 44.3978 136.172 52.6313 103.811L52.8309 103.046ZM127.005 62.361C95.7986 53.9994 63.7226 72.5185 55.361 103.724C46.9994 134.93 65.5185 167.006 96.7245 175.368C127.93 183.73 160.006 165.21 168.368 134.005C176.73 102.799 158.211 70.7226 127.005 62.361Z" fill="black"/>
<path d="M113.633 87.3609C114.162 86.8669 114.99 86.8946 115.484 87.4228C115.978 87.9512 115.951 88.7799 115.423 89.274L111.553 92.8904L116.564 93.7752C117.276 93.9012 117.752 94.5812 117.626 95.2935C117.5 96.0057 116.82 96.4812 116.108 96.3554L108.516 95.0144C108.028 94.928 107.63 94.5726 107.489 94.0969C107.348 93.6212 107.487 93.1067 107.85 92.7678L113.633 87.3609Z" fill="black"/>
<path d="M89.4087 93.5058C89.5724 92.8012 90.2763 92.3629 90.9809 92.5265L98.693 94.3173C99.1763 94.4296 99.5544 94.8054 99.67 95.2879C99.7856 95.7705 99.6191 96.277 99.2392 96.5961L93.3351 101.553C92.7812 102.018 91.9545 101.947 91.4893 101.393C91.0242 100.839 91.096 100.012 91.6498 99.547L95.546 96.2756L90.3879 95.078C89.6834 94.9142 89.2451 94.2104 89.4087 93.5058Z" fill="black"/>
<path d="M110.998 98.3038L98.9628 100.624C98.9628 100.624 101.653 115.724 107.783 114.986C113.913 114.247 110.998 98.3038 110.998 98.3038Z" fill="white"/>
<path d="M98.7151 99.3383L110.75 97.0177C111.093 96.9516 111.449 97.0256 111.737 97.2228C112.025 97.4201 112.223 97.7244 112.286 98.0681L112.287 98.0731C112.288 98.0756 112.288 98.0789 112.289 98.0832C112.291 98.0922 112.293 98.1055 112.296 98.1219C112.302 98.1548 112.31 98.2024 112.321 98.2636C112.341 98.3864 112.37 98.5647 112.405 98.7901C112.475 99.2406 112.567 99.8821 112.658 100.653C112.839 102.191 113.018 104.266 112.999 106.38C112.98 108.469 112.767 110.71 112.101 112.521C111.432 114.337 110.174 116.018 107.94 116.287C105.785 116.546 104.072 115.375 102.82 113.902C101.568 112.428 100.594 110.453 99.8544 108.559C99.1074 106.647 98.5638 104.724 98.2079 103.287C98.0294 102.567 97.8966 101.964 97.8082 101.539C97.764 101.326 97.7308 101.157 97.7084 101.041C97.6972 100.983 97.6885 100.937 97.6827 100.906C97.6799 100.89 97.6773 100.878 97.6757 100.87C97.675 100.866 97.6743 100.862 97.6739 100.86C97.6737 100.858 97.674 100.857 97.6738 100.856C97.677 100.855 97.7389 100.843 98.9626 100.625L97.6734 100.854C97.5478 100.149 98.0119 99.4739 98.7151 99.3383ZM100.514 101.658C100.58 101.952 100.659 102.288 100.75 102.657C101.09 104.029 101.602 105.835 102.294 107.605C102.993 109.394 103.841 111.056 104.817 112.205C105.793 113.355 106.716 113.795 107.626 113.685C108.457 113.585 109.134 112.996 109.642 111.615C110.153 110.228 110.361 108.345 110.379 106.356C110.397 104.392 110.23 102.435 110.056 100.96C110.007 100.545 109.957 100.171 109.912 99.8467L100.514 101.658Z" fill="black"/>
<path d="M79.6554 137.321C80.0125 136.997 80.5648 137.023 80.8888 137.381L83.9734 140.78C84.2971 141.137 84.2699 141.69 83.9128 142.014C83.5556 142.338 83.0031 142.31 82.6791 141.953L79.5954 138.553C79.2717 138.196 79.2985 137.645 79.6554 137.321ZM78.7277 128.445C79.1161 128.159 79.6632 128.242 79.949 128.631L84.0532 134.212C84.3388 134.6 84.2555 135.146 83.8673 135.432C83.4788 135.718 82.9325 135.635 82.6468 135.246L78.5411 129.667C78.2554 129.278 78.3392 128.731 78.7277 128.445ZM69.831 126.076C70.2139 125.783 70.7625 125.855 71.0557 126.237L76.4484 133.283C76.7413 133.666 76.6686 134.215 76.2857 134.508C75.9029 134.801 75.3548 134.727 75.0617 134.345L69.669 127.299C69.3762 126.917 69.4486 126.369 69.831 126.076Z" fill="#BD8828"/>
</g>
<defs>
<clipPath id="clip0_651_7841">
<rect x="12" y="12" width="128" height="128" rx="20" fill="white"/>
</clipPath>
</defs>
</svg>
