<svg width="140" height="140" viewBox="0 0 140 140" fill="none" xmlns="http://www.w3.org/2000/svg">
<path d="M118.994 119.83C90.8317 143.447 50.899 147.065 22.629 126.745C-5.64112 106.424 -6.97962 36.3955 16.1308 20.5973C39.2413 4.79913 59.4974 -10.1215 91.3736 9.00969C112.36 21.6049 124.574 7.88675 135.543 36.1515C145.778 62.524 137.604 101.237 118.994 119.83Z" fill="#E8A125"/>
<path d="M16.1308 20.5975C39.2413 4.79934 59.4978 -10.1216 91.374 9.00962C112.36 21.6045 124.574 7.88688 135.543 36.1512C145.778 62.5238 137.604 101.237 118.994 119.83L118.332 120.38C90.4301 143.32 51.3002 146.852 23.2939 127.217L22.6289 126.745C-5.42035 106.583 -6.95701 37.4865 15.5937 20.9774L16.1308 20.5975ZM89.8301 11.5819C74.5256 2.39657 62.3351 1.52351 51.2676 4.59556C39.9147 7.74683 29.5236 15.0764 17.8242 23.0741C12.8661 26.4634 8.89277 33.0347 6.29881 41.8377C3.72707 50.5655 2.63136 61.0954 3.10935 71.8417C3.58718 82.5838 5.63148 93.4084 9.23533 102.726C12.8503 112.073 17.9467 119.684 24.3799 124.308C51.3407 143.688 89.6926 140.408 116.956 117.622C125.686 108.854 132.144 95.1676 135.145 80.3133C138.152 65.4235 137.606 49.7596 132.746 37.2372C130.09 30.3927 127.471 26.3929 124.892 23.9247C122.374 21.5161 119.703 20.3808 116.52 19.6229C110.233 18.1263 100.849 18.1949 89.8301 11.5819Z" fill="black"/>
<path d="M55.5962 42.7175L49.9393 37.0607C49.3536 36.4749 49.3536 35.5251 49.9393 34.9393C50.5251 34.3536 51.4749 34.3536 52.0607 34.9393L57.7175 40.5962C58.3033 41.182 58.3033 42.1317 57.7175 42.7175C57.1317 43.3033 56.182 43.3033 55.5962 42.7175Z" fill="black"/>
<path d="M77.9393 40.5962L83.5961 34.9393C84.1819 34.3536 85.1317 34.3536 85.7175 34.9393C86.3032 35.5251 86.3032 36.4749 85.7175 37.0607L80.0606 42.7175C79.4748 43.3033 78.5251 43.3033 77.9393 42.7175C77.3535 42.1317 77.3535 41.182 77.9393 40.5962Z" fill="black"/>
<path d="M66.6844 64C62.8888 64 63.0003 42 63.0003 42H73C73 42 73.0225 64 66.6844 64Z" fill="white"/>
<path d="M73 40.5L73.1533 40.5078C73.909 40.5845 74.499 41.2222 74.5 41.998L73 42C74.4597 41.9985 74.4989 41.9977 74.5 41.998V42.0684C74.4998 42.1123 74.4997 42.1767 74.499 42.2598C74.4976 42.426 74.4943 42.668 74.4883 42.9746C74.4763 43.5877 74.4515 44.4609 74.4023 45.5078C74.3042 47.5973 74.1065 50.3983 73.7041 53.2119C73.3051 56.0016 72.6914 58.9091 71.7227 61.1563C70.8133 63.2656 69.2707 65.4999 66.6846 65.5C65.3945 65.5 64.5892 64.5597 64.1494 63.8252C63.678 63.0378 63.3281 62.0132 63.0537 60.9316C62.4986 58.744 62.1488 55.8921 61.9238 53.1211C61.6974 50.3324 61.5922 47.5512 61.543 45.4727C61.5183 44.4321 61.5073 43.5645 61.5029 42.9561C61.5007 42.6518 61.5001 42.4122 61.5 42.248V41.9932C61.5043 41.1679 62.1748 40.5002 63 40.5H73ZM64.5088 43.5C64.5148 44.0253 64.5247 44.6702 64.542 45.4023C64.5905 47.4487 64.6939 50.1679 64.9141 52.8789C65.1356 55.6077 65.4704 58.2561 65.9619 60.1934C66.2108 61.1742 66.4747 61.8685 66.7236 62.2842C66.7784 62.3755 66.8242 62.4387 66.8584 62.4824C67.4266 62.3848 68.1822 61.791 68.9678 59.9688C69.7773 58.091 70.3467 55.4982 70.7344 52.7881C71.1186 50.1019 71.3106 47.4026 71.4062 45.3672C71.44 44.65 71.4598 44.0175 71.4736 43.5H64.5088Z" fill="black"/>
<path d="M29.1217 93.788C29.6386 93.5182 30.2726 93.7249 30.5384 94.2496L33.0685 99.2427C33.3343 99.7674 33.131 100.412 32.6141 100.682C32.0972 100.952 31.4623 100.745 31.1965 100.22L28.6669 95.226C28.4014 94.7014 28.6049 94.0577 29.1217 93.788ZM21.1921 77.3894C21.7292 77.1644 22.3449 77.4236 22.5669 77.9686L26.6472 88.0022C26.8686 88.5475 26.6128 89.1721 26.0757 89.3972C25.5387 89.6218 24.9233 89.3621 24.7015 88.8171L20.6215 78.7849C20.3998 78.2398 20.6554 77.6149 21.1921 77.3894ZM30.8095 83.0065C31.3509 82.7918 31.962 83.0635 32.1735 83.6131L35.2112 91.507C35.4224 92.0563 35.1552 92.6758 34.6142 92.8905C34.073 93.105 33.4628 92.8336 33.2511 92.2845L30.212 84.391C30.0005 83.8415 30.2683 83.2213 30.8095 83.0065Z" fill="#BD8828"/>
</svg>
