<svg width="140" height="140" viewBox="0 0 140 140" fill="none" xmlns="http://www.w3.org/2000/svg">
<path d="M76.5885 139.756C15.5585 136.132 0 119.389 0 96.1793C0 52.129 14.1647 37.4778 39.6192 16.7334C66.3091 -2.68664 77.2356 -4.52569 117.851 7.71441C143.38 15.4082 139.832 42.6558 139.832 77.7066C139.832 102.341 140.412 143.545 76.5885 139.756Z" fill="#E8A125"/>
<path d="M136.527 77.7064C136.527 59.9001 137.398 44.7803 135.158 32.9618C134.053 27.1332 132.228 22.3907 129.358 18.7043C126.532 15.075 122.565 12.302 116.812 10.568C96.4846 4.44215 84.2605 2.07586 73.9522 3.33113C63.7911 4.56859 55.0113 9.3894 41.7564 19.0282C29.0775 29.3639 19.6069 37.8897 13.1975 49.1032C6.80206 60.2923 3.30559 74.4417 3.30556 96.1789C3.30556 107.061 6.88129 116.026 17.3391 122.872C28.0901 129.909 46.4715 134.955 76.8037 136.755C92.3909 137.681 103.737 135.839 112.02 132.39C120.249 128.963 125.649 123.871 129.25 117.938C136.595 105.835 136.527 90.2173 136.527 77.7064ZM139.832 77.7064C139.832 102.149 140.403 142.902 78.0723 139.836L76.5885 139.756C15.5585 136.133 0 119.388 0 96.1789C5.8748e-05 53.5054 13.2934 38.422 37.2661 18.6612L39.6194 16.7334C66.3093 -2.68661 77.2359 -4.5257 117.851 7.71438C143.38 15.4082 139.832 42.6558 139.832 77.7064Z" fill="black"/>
<path d="M55.5962 42.7175L49.9393 37.0607C49.3536 36.4749 49.3536 35.5251 49.9393 34.9393C50.5251 34.3536 51.4749 34.3536 52.0607 34.9393L57.7175 40.5962C58.3033 41.182 58.3033 42.1317 57.7175 42.7175C57.1317 43.3033 56.182 43.3033 55.5962 42.7175Z" fill="black"/>
<path d="M77.9393 40.5962L83.5961 34.9393C84.1819 34.3536 85.1317 34.3536 85.7175 34.9393C86.3032 35.5251 86.3032 36.4749 85.7175 37.0607L80.0606 42.7175C79.4748 43.3033 78.5251 43.3033 77.9393 42.7175C77.3535 42.1317 77.3535 41.182 77.9393 40.5962Z" fill="black"/>
<path d="M66.6844 64C62.8888 64 63.0003 42 63.0003 42H73C73 42 73.0225 64 66.6844 64Z" fill="white"/>
<path d="M73 40.5L73.1533 40.5078C73.909 40.5845 74.499 41.2222 74.5 41.998L73 42C74.4597 41.9985 74.4989 41.9977 74.5 41.998V42.0684C74.4998 42.1123 74.4997 42.1767 74.499 42.2598C74.4976 42.426 74.4943 42.668 74.4883 42.9746C74.4763 43.5877 74.4515 44.4609 74.4023 45.5078C74.3042 47.5973 74.1065 50.3983 73.7041 53.2119C73.3051 56.0016 72.6914 58.9091 71.7227 61.1563C70.8133 63.2656 69.2707 65.4999 66.6846 65.5C65.3945 65.5 64.5892 64.5597 64.1494 63.8252C63.678 63.0378 63.3281 62.0132 63.0537 60.9316C62.4986 58.744 62.1488 55.8921 61.9238 53.1211C61.6974 50.3324 61.5922 47.5512 61.543 45.4727C61.5183 44.4321 61.5073 43.5645 61.5029 42.9561C61.5007 42.6518 61.5001 42.4122 61.5 42.248V41.9932C61.5043 41.1679 62.1748 40.5002 63 40.5H73ZM64.5088 43.5C64.5148 44.0253 64.5247 44.6702 64.542 45.4023C64.5905 47.4487 64.6939 50.1679 64.9141 52.8789C65.1356 55.6077 65.4704 58.2561 65.9619 60.1934C66.2108 61.1742 66.4747 61.8685 66.7236 62.2842C66.7784 62.3755 66.8242 62.4387 66.8584 62.4824C67.4266 62.3848 68.1822 61.791 68.9678 59.9688C69.7773 58.091 70.3467 55.4982 70.7344 52.7881C71.1186 50.1019 71.3106 47.4026 71.4062 45.3672C71.44 44.65 71.4598 44.0175 71.4736 43.5H64.5088Z" fill="black"/>
<path d="M28.2851 97.9992C28.8263 97.7461 29.49 97.9401 29.7683 98.4322L32.4172 103.116C32.6954 103.608 32.4828 104.212 31.942 104.465C31.4009 104.719 30.7356 104.525 30.4573 104.033L27.8089 99.3482C27.5309 98.8561 27.7441 98.2523 28.2851 97.9992ZM19.9837 82.6158C20.5458 82.4049 21.1905 82.6481 21.423 83.1591L25.6949 92.5711C25.9268 93.0825 25.6588 93.6684 25.0966 93.8796C24.5342 94.0906 23.89 93.847 23.6578 93.3355L19.3863 83.9248C19.1543 83.4135 19.4216 82.8271 19.9837 82.6158ZM30.0527 87.8849C30.6194 87.6838 31.2593 87.9385 31.4807 88.4539L34.6611 95.8587C34.8825 96.374 34.6023 96.9549 34.036 97.1565C33.4692 97.3579 32.8304 97.1035 32.609 96.588L29.4271 89.1836C29.2057 88.6681 29.4859 88.0863 30.0527 87.8849Z" fill="#BD8828"/>
</svg>
