<svg width="140" height="140" viewBox="0 0 140 140" fill="none" xmlns="http://www.w3.org/2000/svg">
<path d="M139.28 80.3085C143.66 120.189 127.374 127.13 108.89 132.997C84.4785 140.745 48.6082 141.7 34.1605 137.646C7.75599 130.237 -6.51094 110.366 2.90649 68.0686C12.3239 25.7716 30.8302 11.7398 45.0084 8.08775C75.2682 0.29343 127.822 -24.0356 139.28 80.3085Z" fill="#E8A125"/>
<path d="M45.009 8.08771C75.2688 0.293296 127.822 -24.0353 139.281 80.3084C143.66 120.189 127.374 127.13 108.891 132.997L107.738 133.355C83.7497 140.656 49.4907 141.607 34.8537 137.832L34.1604 137.646C7.75601 130.237 -6.51093 110.365 2.90648 68.0682C12.1768 26.4321 30.2545 12.1849 44.341 8.26642L45.009 8.08771ZM98.2649 4.99787C89.7722 2.22773 80.5804 2.65454 71.4436 4.35919C62.1959 6.08456 53.6143 8.96912 45.7571 10.993C33.0215 14.2734 15.0974 27.1208 5.83519 68.7205C1.20465 89.518 2.52565 104.265 7.77464 114.579C12.9771 124.802 22.3158 131.206 34.9709 134.758C41.7186 136.651 53.907 137.446 67.6369 136.751C81.2984 136.059 96.0973 133.91 107.983 130.138C117.273 127.189 125.098 124.2 130.297 117.558C135.434 110.995 138.45 100.229 136.298 80.6356C130.602 28.7682 114.855 10.4093 98.2649 4.99787Z" fill="black"/>
<path d="M33.8098 93.4663C34.3009 93.2005 34.9038 93.4035 35.1564 93.9203L37.56 98.8411C37.8125 99.3581 37.6189 99.9922 37.1278 100.258C36.6367 100.524 36.0338 100.321 35.7812 99.8041L33.3777 94.8833C33.1252 94.3663 33.3187 93.7322 33.8098 93.4663ZM26.2757 77.3074C26.786 77.0858 27.3711 77.3411 27.582 77.8781L31.459 87.7645C31.6695 88.3017 31.4262 88.9172 30.916 89.139C30.4056 89.3607 29.821 89.1047 29.6103 88.5674L25.7335 78.6824C25.5229 78.1452 25.7655 77.5293 26.2757 77.3074ZM35.414 82.842C35.9283 82.6308 36.5091 82.8984 36.71 83.4397L39.5964 91.2179C39.7972 91.7591 39.5429 92.3694 39.0291 92.5812C38.5147 92.7927 37.935 92.5253 37.734 91.984L34.8462 84.2062C34.6452 83.6647 34.8996 83.0536 35.414 82.842Z" fill="#BD8828"/>
<path d="M55.5962 42.7175L49.9393 37.0607C49.3536 36.4749 49.3536 35.5251 49.9393 34.9393C50.5251 34.3536 51.4749 34.3536 52.0607 34.9393L57.7175 40.5962C58.3033 41.182 58.3033 42.1317 57.7175 42.7175C57.1317 43.3033 56.182 43.3033 55.5962 42.7175Z" fill="black"/>
<path d="M77.9393 40.5962L83.5961 34.9394C84.1819 34.3536 85.1317 34.3536 85.7175 34.9394C86.3032 35.5251 86.3032 36.4749 85.7175 37.0607L80.0606 42.7175C79.4748 43.3033 78.5251 43.3033 77.9393 42.7175C77.3535 42.1317 77.3535 41.182 77.9393 40.5962Z" fill="black"/>
<path d="M66.6844 64C62.8888 64 63.0003 42 63.0003 42H73C73 42 73.0225 64 66.6844 64Z" fill="white"/>
<path d="M73 40.5L73.1533 40.5078C73.909 40.5845 74.499 41.2222 74.5 41.998L73 42C74.4597 41.9985 74.4989 41.9977 74.5 41.998V42.0684C74.4998 42.1123 74.4997 42.1767 74.499 42.2598C74.4976 42.426 74.4943 42.668 74.4883 42.9746C74.4763 43.5877 74.4515 44.4609 74.4023 45.5078C74.3042 47.5973 74.1065 50.3983 73.7041 53.2119C73.3051 56.0016 72.6914 58.9091 71.7227 61.1562C70.8133 63.2656 69.2707 65.4999 66.6846 65.5C65.3945 65.5 64.5892 64.5597 64.1494 63.8252C63.678 63.0378 63.3281 62.0132 63.0537 60.9316C62.4986 58.744 62.1488 55.8921 61.9238 53.1211C61.6974 50.3324 61.5922 47.5512 61.543 45.4727C61.5183 44.4321 61.5073 43.5645 61.5029 42.9561C61.5007 42.6518 61.5001 42.4122 61.5 42.248V41.9932C61.5043 41.1679 62.1748 40.5002 63 40.5H73ZM64.5088 43.5C64.5148 44.0253 64.5247 44.6702 64.542 45.4023C64.5905 47.4487 64.6939 50.1679 64.9141 52.8789C65.1356 55.6077 65.4704 58.2561 65.9619 60.1934C66.2108 61.1742 66.4747 61.8685 66.7236 62.2842C66.7784 62.3755 66.8242 62.4387 66.8584 62.4824C67.4266 62.3848 68.1822 61.791 68.9678 59.9688C69.7773 58.091 70.3467 55.4982 70.7344 52.7881C71.1186 50.1019 71.3106 47.4026 71.4062 45.3672C71.44 44.65 71.4598 44.0175 71.4736 43.5H64.5088Z" fill="black"/>
</svg>
