<svg width="16" height="16" viewBox="0 0 16 16" fill="none" xmlns="http://www.w3.org/2000/svg">
<path fill-rule="evenodd" clip-rule="evenodd" d="M7.99979 5.39957C6.56385 5.39957 5.39979 6.56363 5.39979 7.99957C5.39979 9.43551 6.56385 10.5996 7.99979 10.5996C9.43573 10.5996 10.5998 9.43551 10.5998 7.99957C10.5998 6.56363 9.43573 5.39957 7.99979 5.39957ZM6.59979 7.99957C6.59979 7.22637 7.22659 6.59957 7.99979 6.59957C8.77299 6.59957 9.39979 7.22637 9.39979 7.99957C9.39979 8.77277 8.77299 9.39957 7.99979 9.39957C7.22659 9.39957 6.59979 8.77277 6.59979 7.99957Z" fill="#2E2F33" fill-opacity="0.88"/>
<path fill-rule="evenodd" clip-rule="evenodd" d="M7.99986 12.9326C11.0373 12.9326 13.6395 11.0689 14.7254 8.4227C14.8366 8.15159 14.8366 7.84731 14.7254 7.57621C13.6395 4.92998 11.0373 3.06633 7.99986 3.06633C4.96238 3.06633 2.36019 4.92998 1.27435 7.57621C1.16311 7.84731 1.16311 8.15159 1.27435 8.4227C2.36019 11.0689 4.96238 12.9326 7.99986 12.9326ZM2.39822 7.99945C3.31253 5.80721 5.47625 4.26633 7.99986 4.26633C10.5235 4.26633 12.6872 5.80721 13.6015 7.99945C12.6872 10.1917 10.5235 11.7326 7.99986 11.7326C5.47625 11.7326 3.31253 10.1917 2.39822 7.99945Z" fill="#2E2F33" fill-opacity="0.88"/>
</svg>
