<svg width="24" height="24" viewBox="0 0 24 24" fill="none" xmlns="http://www.w3.org/2000/svg">
<path d="M2.60034 11.998C2.60034 6.80655 6.80885 2.59802 12.0003 2.59802C13.8175 2.59802 15.5149 3.11423 16.953 4.00727L17.9024 3.05787C18.1598 2.80047 18.5469 2.72347 18.8832 2.86277C19.2195 3.00208 19.4388 3.33025 19.4388 3.69426V6.87624C19.4388 7.11494 19.3439 7.34386 19.1751 7.51264C19.0064 7.68142 18.7775 7.77624 18.5388 7.77624H15.3568C14.9928 7.77624 14.6646 7.55697 14.5253 7.22066C14.386 6.88435 14.463 6.49725 14.7204 6.23985L15.6373 5.32292C14.5571 4.73297 13.3181 4.39802 12.0003 4.39802C7.80296 4.39802 4.40033 7.80066 4.40033 11.998C4.40034 12.5075 4.45035 13.0045 4.54545 13.4845C4.64206 13.972 4.32512 14.4456 3.83755 14.5422C3.34997 14.6388 2.8764 14.3219 2.77979 13.8343C2.66197 13.2397 2.60034 12.6256 2.60034 11.998Z" fill="#37383C" fill-opacity="0.61"/>
<path d="M20.1632 9.45715C20.6508 9.36057 21.1244 9.67753 21.2209 10.1651C21.3387 10.7596 21.4003 11.3735 21.4003 12.0009C21.4003 17.1924 17.1918 21.4009 12.0003 21.4009C10.1837 21.4009 8.48672 20.885 7.04893 19.9925L6.0958 20.9456C5.8384 21.203 5.45129 21.28 5.11499 21.1407C4.77868 21.0014 4.55941 20.6732 4.55941 20.3092L4.55941 17.1272C4.55941 16.8885 4.65423 16.6596 4.82301 16.4908C4.99179 16.322 5.22071 16.2272 5.4594 16.2272H8.64137C9.00538 16.2272 9.33356 16.4465 9.47286 16.7828C9.61216 17.1191 9.53516 17.5062 9.27776 17.7636L8.36463 18.6768C9.44457 19.2662 10.683 19.6009 12.0003 19.6009C16.1977 19.6009 19.6003 16.1983 19.6003 12.0009C19.6003 11.4916 19.5503 10.9948 19.4553 10.5149C19.3587 10.0273 19.6756 9.55373 20.1632 9.45715Z" fill="#37383C" fill-opacity="0.61"/>
</svg>
