<svg width="20" height="20" viewBox="0 0 20 20" fill="none" xmlns="http://www.w3.org/2000/svg">
<path d="M10 2.16632C10.4143 2.16632 10.75 2.50211 10.75 2.91632V10.6894L13.2197 8.21973C13.5126 7.92684 13.9875 7.92684 14.2804 8.21973C14.5732 8.51262 14.5732 8.9875 14.2804 9.28039L10.5304 13.0304C10.2375 13.3233 9.7626 13.3233 9.46971 13.0304L5.71972 9.28039C5.42683 8.9875 5.42683 8.51262 5.71972 8.21973C6.01261 7.92684 6.48749 7.92684 6.78038 8.21973L9.25004 10.6894V2.91632C9.25004 2.50211 9.58582 2.16632 10 2.16632Z" fill="white"/>
<path d="M17.6252 12.4164C17.6252 12.0022 17.2894 11.6664 16.8752 11.6664C16.461 11.6664 16.1252 12.0022 16.1252 12.4164V14.5415C16.1252 15.2203 16.116 15.3818 16.0804 15.4914C15.9897 15.7705 15.7709 15.9893 15.4918 16.0799C15.3822 16.1156 15.2207 16.1248 14.5419 16.1248H5.45859C4.77979 16.1248 4.61826 16.1156 4.50866 16.0799C4.22959 15.9893 4.0108 15.7705 3.92013 15.4914C3.88451 15.3818 3.87526 15.2203 3.87526 14.5415V12.4164C3.87526 12.0022 3.53947 11.6664 3.12525 11.6664C2.71104 11.6664 2.37524 12.0022 2.37524 12.4164V14.2377C2.37524 14.6792 2.37523 15.0552 2.40045 15.3639C2.42694 15.6882 2.48497 16.0037 2.63865 16.3053C2.87034 16.76 3.24004 17.1297 3.69477 17.3614C3.99638 17.5151 4.31187 17.5731 4.63617 17.5996C4.94485 17.6248 5.32081 17.6248 5.76234 17.6248H14.2381C14.6796 17.6248 15.0556 17.6248 15.3643 17.5996C15.6886 17.5731 16.0041 17.5151 16.3057 17.3614C16.7604 17.1297 17.1301 16.76 17.3618 16.3053C17.5155 16.0037 17.5735 15.6882 17.6 15.3639C17.6252 15.0552 17.6252 14.6793 17.6252 14.2377V12.4164Z" fill="white"/>
</svg>
