<svg width="160" height="73" viewBox="0 0 160 73" fill="none" xmlns="http://www.w3.org/2000/svg">
<g clip-path="url(#clip0_601_2215)">
<path d="M136.123 74.5612C172.344 44.6876 151.215 25.4472 136.123 19.5612" stroke="black" stroke-width="3"/>
<path d="M12.952 35.1317C31.7265 2.61336 73.3077 -8.52845 105.826 10.2459C138.344 29.0204 149.486 70.6016 130.712 103.12C111.937 135.638 70.3561 146.78 37.8378 128.006C5.31947 109.231 -5.82234 67.65 12.952 35.1317Z" fill="#EDEDED" stroke="white" stroke-width="3"/>
<path d="M51.465 34.9203L51.465 42.9203" stroke="black" stroke-width="3" stroke-linecap="round"/>
<path d="M82.2172 34.9203L82.2172 42.9203" stroke="black" stroke-width="3" stroke-linecap="round"/>
<path d="M61.8604 45.0773C61.8604 45.0773 64.3329 46.4239 67.8329 46.4239C71.3329 46.4239 73.2716 45.0773 73.2716 45.0773" stroke="black" stroke-width="3" stroke-linecap="round"/>
<path d="M31.0238 79.5945C31.515 79.3419 32.1187 79.5351 32.3713 80.0262L34.7581 84.6676C35.0103 85.1587 34.8165 85.7621 34.3255 86.0146C33.8345 86.2668 33.232 86.0731 32.9793 85.5824L30.5926 80.9411C30.3401 80.4501 30.533 79.8471 31.0238 79.5945ZM23.5449 64.3531C24.0551 64.1427 24.6403 64.3852 24.8512 64.8952L28.7008 74.2197C28.9114 74.7299 28.6678 75.3145 28.1578 75.5255C27.6473 75.7362 27.0623 75.4937 26.8515 74.9833L23.0027 65.6593C22.792 65.149 23.0347 64.564 23.5449 64.3531ZM32.6172 69.5729C33.1315 69.3721 33.7121 69.6266 33.9132 70.1407L36.7791 77.4776C36.9799 77.9918 36.7259 78.5716 36.2118 78.7727C35.6974 78.9737 35.1168 78.7193 34.9158 78.2049L32.0494 70.8689C31.8487 70.3546 32.1029 69.7739 32.6172 69.5729Z" fill="#6B6B6B"/>
<rect x="99.6226" y="11.0612" width="39" height="26" rx="3.5" fill="#E1E2E4" stroke="white" stroke-width="3"/>
<rect x="111.623" y="4.06123" width="15" height="10" rx="2.5" fill="#E1E2E4" stroke="white" stroke-width="3"/>
<circle cx="119.123" cy="25.0612" r="6" stroke="white" stroke-width="3"/>
<circle cx="139.623" cy="23.0612" r="6.5" fill="black"/>
</g>
<defs>
<clipPath id="clip0_601_2215">
<rect width="160" height="73" fill="white"/>
</clipPath>
</defs>
</svg>
