<svg width="160" height="77" viewBox="0 0 160 77" fill="none" xmlns="http://www.w3.org/2000/svg">
<g clip-path="url(#clip0_1036_9753)">
<path d="M12.9519 37.1317C31.7264 4.61341 73.3076 -6.5284 105.826 12.246C138.344 31.0204 149.486 72.6017 130.712 105.12C111.937 137.638 70.356 148.78 37.8376 130.006C5.31934 111.231 -5.82246 69.65 12.9519 37.1317Z" fill="#EAEBEC" stroke="black" stroke-width="3"/>
<path d="M53.5613 53.5L53.5613 45.5C53.5613 44.6716 54.2329 44 55.0613 44C55.8897 44 56.5613 44.6716 56.5613 45.5L56.5613 53.5C56.5613 54.3284 55.8897 55 55.0613 55C54.2329 55 53.5613 54.3284 53.5613 53.5Z" fill="black"/>
<path d="M84.3135 53.5L84.3135 45.5C84.3135 44.6716 84.985 44 85.8135 44C86.6419 44 87.3135 44.6716 87.3135 45.5L87.3135 53.5C87.3135 54.3284 86.6419 55 85.8135 55C84.985 55 84.3135 54.3284 84.3135 53.5Z" fill="black"/>
<path d="M74.724 56.9016C75.4035 56.4382 76.3311 56.6085 76.8012 57.2854C77.2735 57.9657 77.1045 58.9007 76.4242 59.3733L75.5687 58.1408C76.3688 59.2928 76.4203 59.3681 76.4232 59.3733L76.4203 59.3762C76.4188 59.3772 76.4171 59.378 76.4154 59.3791C76.4118 59.3816 76.4073 59.3848 76.4027 59.3879C76.3934 59.3942 76.3817 59.4017 76.3685 59.4104C76.3419 59.4278 76.3073 59.4507 76.265 59.4768C76.1804 59.5288 76.0638 59.5958 75.9174 59.674C75.6246 59.8304 75.2089 60.0284 74.6762 60.2229C73.6091 60.6124 72.0757 60.9875 70.1303 60.9875C68.1908 60.9875 66.541 60.6151 65.3754 60.2434C64.7909 60.057 64.3225 59.8688 63.9935 59.7238C63.829 59.6513 63.6989 59.5892 63.6058 59.5432C63.5594 59.5202 63.5222 59.5009 63.4945 59.4865C63.4807 59.4793 63.4684 59.4738 63.4594 59.469C63.4551 59.4667 63.4518 59.4638 63.4486 59.4621C63.447 59.4613 63.445 59.4609 63.4437 59.4602L63.4418 59.4592L63.4408 59.4582C63.4425 59.4542 63.48 59.385 64.1576 58.1408L63.4398 59.4582C62.7125 59.0619 62.444 58.1505 62.8402 57.4231C63.2365 56.6957 64.147 56.4283 64.8744 56.8244C64.8754 56.8249 64.877 56.8247 64.8783 56.8254C64.8886 56.8307 64.9081 56.84 64.9359 56.8537C64.9917 56.8813 65.0817 56.925 65.2035 56.9787C65.4475 57.0862 65.8164 57.2347 66.2875 57.385C67.2331 57.6865 68.5699 57.9875 70.1303 57.9875C71.6847 57.9875 72.8706 57.6892 73.6478 57.4055C74.0368 57.2635 74.3242 57.1247 74.5043 57.0285C74.5943 56.9805 74.6577 56.9427 74.6928 56.9211C74.7098 56.9106 74.7203 56.904 74.724 56.9016Z" fill="black"/>
<path fill-rule="evenodd" clip-rule="evenodd" d="M31.0236 81.5946C31.5147 81.342 32.1185 81.5352 32.371 82.0264L34.7578 86.6678C35.0101 87.1588 34.8162 87.7622 34.3252 88.0147C33.8343 88.267 33.2318 88.0733 32.9791 87.5826L30.5923 82.9412C30.3398 82.4502 30.5327 81.8473 31.0236 81.5946ZM23.5446 66.3532C24.0549 66.1429 24.6401 66.3853 24.8509 66.8954L28.7005 76.2198C28.9111 76.7301 28.6675 77.3146 28.1575 77.5256C27.6471 77.7363 27.062 77.4938 26.8512 76.9834L23.0025 67.6595C22.7918 67.1491 23.0344 66.5641 23.5446 66.3532ZM32.617 71.5731C33.1312 71.3722 33.7118 71.6268 33.9129 72.1409L36.7789 79.4777C36.9796 79.9919 36.7256 80.5718 36.2116 80.7728C35.6971 80.9738 35.1166 80.7194 34.9156 80.205L32.0492 72.8691C31.8485 72.3547 32.1027 71.774 32.617 71.5731Z" fill="#989BA2"/>
<rect x="99.6226" y="11.0613" width="39" height="26" rx="3.5" fill="#E1E2E4" stroke="black" stroke-width="3"/>
<rect x="111.623" y="4.06128" width="15" height="10" rx="2.5" fill="#E1E2E4" stroke="black" stroke-width="3"/>
<circle cx="119.123" cy="25.0613" r="6" fill="white" stroke="black" stroke-width="3"/>
<path d="M144.061 36C144.061 40.1421 140.703 43.5 136.561 43.5C132.419 43.5 129.061 40.1421 129.061 36C129.061 31.8579 132.419 28.5 136.561 28.5C140.703 28.5 144.061 31.8579 144.061 36Z" fill="#EAEBEC"/>
<path d="M144.061 36C144.061 31.8579 140.703 28.5 136.561 28.5C132.419 28.5 129.061 31.8579 129.061 36C129.061 40.1421 132.419 43.5 136.561 43.5C140.703 43.5 144.061 40.1421 144.061 36ZM146.561 36C146.561 41.5228 142.084 46 136.561 46C131.038 46 126.561 41.5228 126.561 36C126.561 30.4772 131.038 26 136.561 26C142.084 26 146.561 30.4772 146.561 36Z" fill="black"/>
</g>
<defs>
<clipPath id="clip0_1036_9753">
<rect width="160" height="77" fill="white"/>
</clipPath>
</defs>
</svg>
