<svg width="160" height="96" viewBox="0 0 160 96" fill="none" xmlns="http://www.w3.org/2000/svg">
<g clip-path="url(#clip0_1800_8500)">
<path d="M132.173 111.433C112.846 144.908 70.042 156.377 36.5671 137.05C3.09223 117.724 -8.37712 74.9195 10.9496 41.4446C30.2764 7.96967 73.0806 -3.49968 106.555 15.8271C140.03 35.1538 151.5 77.958 132.173 111.433Z" fill="#ECB14A"/>
<path d="M10.95 41.4445C30.2767 7.96975 73.0806 -3.49936 106.555 15.8274C140.03 35.1541 151.499 77.958 132.173 111.433C112.997 144.646 70.7093 156.196 37.3533 137.497L36.5672 137.05C3.35379 117.874 -8.19633 75.5867 10.5027 42.2307L10.95 41.4445ZM105.055 18.425C73.0154 -0.0732622 32.0459 10.9045 13.5476 42.9445C-4.95065 74.9846 6.02716 115.954 38.0672 134.452C70.1072 152.951 111.077 141.973 129.575 109.933C148.073 77.8928 137.095 36.9233 105.055 18.425Z" fill="black"/>
<path d="M82.8552 42.1155C83.5861 41.7257 84.4946 42.0019 84.8845 42.7327C85.2743 43.4636 84.9981 44.3721 84.2673 44.762L78.9158 47.6155L84.196 50.0794C84.9465 50.4298 85.2709 51.3229 84.9206 52.0735C84.5702 52.824 83.6771 53.1484 82.9265 52.7982L74.9265 49.0648C74.4117 48.8243 74.0774 48.3134 74.0622 47.7454C74.0471 47.1774 74.3539 46.6496 74.8552 46.3821L82.8552 42.1155Z" fill="black"/>
<path d="M54.238 41.7327C54.6279 41.0019 55.5364 40.7257 56.2673 41.1155L64.2673 45.3821C64.7687 45.6496 65.0754 46.1774 65.0603 46.7454C65.0451 47.3134 64.7109 47.8243 64.196 48.0648L56.196 51.7982C55.4454 52.1484 54.5523 51.824 54.2019 51.0735C53.8516 50.3229 54.176 49.4298 54.9265 49.0794L60.2058 46.6155L54.8552 43.762C54.1244 43.3721 53.8482 42.4636 54.238 41.7327Z" fill="black"/>
<path d="M76.6963 53.4387L62.6963 52.4387C62.6963 52.4387 61.1963 69.9387 68.1963 70.9387C75.1963 71.9387 76.6963 53.4387 76.6963 53.4387Z" fill="white"/>
<path d="M62.8035 50.9427L76.8035 51.9427C77.2027 51.9713 77.5741 52.1586 77.8347 52.4622C78.0953 52.7659 78.2235 53.1611 78.1912 53.5599V53.5658C78.191 53.5687 78.1906 53.5726 78.1902 53.5775C78.1893 53.5879 78.188 53.6033 78.1863 53.6224C78.183 53.6605 78.1783 53.7156 78.1717 53.7865C78.1583 53.9284 78.1373 54.1342 78.1092 54.3939C78.0528 54.9129 77.9647 55.6498 77.8367 56.5296C77.5815 58.284 77.1643 60.6326 76.5164 62.9652C75.8759 65.271 74.9768 67.6869 73.7029 69.4915C72.4247 71.3022 70.5351 72.7886 67.9842 72.4242C65.5236 72.0727 63.9758 70.2694 63.0281 68.2689C62.0798 66.2669 61.5879 63.7936 61.3308 61.4798C61.0712 59.1434 61.0401 56.8548 61.0721 55.1605C61.0881 54.3108 61.12 53.6042 61.1482 53.1078C61.1624 52.8595 61.1755 52.6632 61.1853 52.5277C61.1902 52.4599 61.1942 52.4069 61.1971 52.3705C61.1985 52.3525 61.1992 52.3384 61.2 52.3285C61.2004 52.3237 61.2007 52.3196 61.201 52.3167C61.2011 52.3153 61.2019 52.3137 61.2019 52.3128C61.2056 52.3128 61.2779 52.3173 62.6961 52.4388L61.2019 52.3109C61.272 51.4938 61.9855 50.8843 62.8035 50.9427ZM64.1062 54.0423C64.0922 54.3868 64.0793 54.7819 64.0711 55.2171C64.0405 56.8353 64.0719 58.9843 64.3123 61.1478C64.5552 63.3337 65 65.4233 65.739 66.9837C66.4787 68.5453 67.3689 69.3048 68.408 69.4535C69.357 69.589 70.28 69.1378 71.2517 67.7611C72.2278 66.3783 73.0163 64.3566 73.6258 62.1624C74.2278 59.9951 74.6231 57.7811 74.8679 56.098C74.9368 55.6249 74.9921 55.1955 75.0379 54.8236L64.1062 54.0423Z" fill="black"/>
<path d="M22.5613 90.9387C14.0613 81.4387 13.531 86.2827 12.8889 94.7965C12.0239 106.265 32.5356 127.339 46.0613 132.439C57.7839 140.049 51.741 128.671 46.0613 121.439C40.3816 114.206 26.156 94.9563 22.5613 90.9387Z" fill="#E8A125"/>
<path d="M116.283 32.5858C104.669 22.1449 97.8909 18.6552 89.0887 16.2451C79.6579 13.6629 85.6753 16.4183 96.0613 22.4388C106.447 28.4592 114.228 41.9161 121.88 48.5493C129.532 55.1825 127.897 43.0268 116.283 32.5858Z" fill="#E8A125"/>
<rect x="107.26" y="14.5946" width="39" height="26" rx="3.5" transform="rotate(15.2893 107.26 14.5946)" fill="#F6D8A6" stroke="black" stroke-width="3"/>
<rect width="18" height="30" transform="translate(119.629 9.16431) rotate(15.2893)" fill="#F6D8A6"/>
<rect x="120.681" y="11.0068" width="15" height="10" rx="2.5" transform="rotate(15.2893 120.681 11.0068)" fill="#F6D8A6" stroke="black" stroke-width="3"/>
<circle cx="122.378" cy="33.2412" r="6" transform="rotate(15.2893 122.378 33.2412)" fill="white" stroke="black" stroke-width="3"/>
<path d="M144.061 51C144.061 55.1421 140.703 58.5 136.561 58.5C132.419 58.5 129.061 55.1421 129.061 51C129.061 46.8579 132.419 43.5 136.561 43.5C140.703 43.5 144.061 46.8579 144.061 51Z" fill="#E8A125"/>
<path d="M144.061 51C144.061 46.8579 140.703 43.5 136.561 43.5C132.419 43.5 129.061 46.8579 129.061 51C129.061 55.1421 132.419 58.5 136.561 58.5C140.703 58.5 144.061 55.1421 144.061 51ZM146.561 51C146.561 56.5228 142.084 61 136.561 61C131.038 61 126.561 56.5228 126.561 51C126.561 45.4772 131.038 41 136.561 41C142.084 41 146.561 45.4772 146.561 51Z" fill="black"/>
</g>
<defs>
<clipPath id="clip0_1800_8500">
<rect width="160" height="96" fill="white"/>
</clipPath>
</defs>
</svg>
