<svg width="24" height="24" viewBox="0 0 24 24" fill="none" xmlns="http://www.w3.org/2000/svg">
<path d="M11.6386 2.27635C11.8754 2.21306 12.1247 2.21306 12.3615 2.27635C12.6423 2.35138 12.8751 2.53318 12.9977 2.62893L13.0327 2.65613L19.8659 7.88141C20.2527 8.17664 20.5789 8.4256 20.8216 8.7499C21.0349 9.03485 21.194 9.35664 21.2907 9.69917C21.4009 10.089 21.4005 10.4993 21.4001 10.9859L21.4 17.3349C21.4 17.8647 21.4 18.3159 21.3698 18.6863C21.338 19.0755 21.2684 19.4541 21.0839 19.816C20.8059 20.3617 20.3623 20.8053 19.8166 21.0834C19.4547 21.2678 19.0761 21.3374 18.6869 21.3692C18.3165 21.3995 17.8653 21.3995 17.3355 21.3994H12.9003V13.9995C12.9003 13.5024 12.4974 13.0995 12.0003 13.0995C11.5033 13.0995 11.1003 13.5024 11.1003 13.9995V21.3994H6.66467C6.13482 21.3995 5.68361 21.3995 5.31319 21.3692C4.92403 21.3374 4.54544 21.2678 4.18351 21.0834C3.63784 20.8053 3.1942 20.3617 2.91617 19.816C2.73176 19.4541 2.66212 19.0755 2.63033 18.6863C2.60006 18.3159 2.60007 17.8647 2.60009 17.3348L2.60003 10.9859C2.59958 10.4993 2.59921 10.089 2.70936 9.69917C2.80615 9.35664 2.96517 9.03485 3.17846 8.7499C3.42122 8.42559 3.7474 8.17664 4.13421 7.88141L10.9674 2.65613L11.0024 2.62893C11.1251 2.53317 11.3578 2.35138 11.6386 2.27635Z" fill="#E8A125"/>
</svg>
