<svg width="160" height="110" viewBox="0 0 160 110" fill="none" xmlns="http://www.w3.org/2000/svg">
<g clip-path="url(#clip0_600_10828)">
<path d="M132.173 121.433C112.846 154.908 70.042 166.377 36.5671 147.05C3.09223 127.724 -8.37712 84.9195 10.9496 51.4446C30.2764 17.9697 73.0806 6.50038 106.555 25.8271C140.03 45.1539 151.5 87.9581 132.173 121.433Z" fill="#E8A125"/>
<path d="M10.95 51.4446C30.2767 17.9698 73.0806 6.50073 106.555 25.8274C140.03 45.1542 151.499 87.9581 132.173 121.433C112.997 154.646 70.7093 166.196 37.3533 147.497L36.5672 147.05C3.35379 127.874 -8.19633 85.5868 10.5027 52.2308L10.95 51.4446ZM105.055 28.4251C73.0154 9.92683 32.0459 20.9046 13.5476 52.9446C-4.95065 84.9846 6.02716 125.954 38.0672 144.452C70.1072 162.951 111.077 151.973 129.575 119.933C148.073 87.8929 137.095 46.9234 105.055 28.4251Z" fill="black"/>
<path d="M82.8553 52.1155C83.5862 51.7257 84.4946 52.0019 84.8846 52.7327C85.2744 53.4636 84.9982 54.3721 84.2674 54.762L78.9158 57.6155L84.1961 60.0794C84.9466 60.4298 85.271 61.3229 84.9207 62.0735C84.5703 62.824 83.6772 63.1484 82.9266 62.7982L74.9266 59.0648C74.4117 58.8243 74.0775 58.3134 74.0623 57.7454C74.0472 57.1774 74.3539 56.6496 74.8553 56.3821L82.8553 52.1155Z" fill="black"/>
<path d="M54.238 51.7327C54.6279 51.0019 55.5364 50.7257 56.2673 51.1155L64.2673 55.3821C64.7687 55.6496 65.0754 56.1774 65.0603 56.7454C65.0451 57.3134 64.7109 57.8243 64.196 58.0648L56.196 61.7982C55.4454 62.1484 54.5523 61.824 54.2019 61.0735C53.8516 60.3229 54.176 59.4298 54.9265 59.0794L60.2058 56.6155L54.8552 53.762C54.1244 53.3721 53.8482 52.4636 54.238 51.7327Z" fill="black"/>
<path d="M76.6963 63.4388L62.6963 62.4388C62.6963 62.4388 61.1963 79.9388 68.1963 80.9388C75.1963 81.9388 76.6963 63.4388 76.6963 63.4388Z" fill="white"/>
<path d="M62.8035 60.9427L76.8035 61.9427C77.2027 61.9713 77.5741 62.1586 77.8347 62.4622C78.0953 62.7659 78.2235 63.1611 78.1912 63.5599V63.5658C78.191 63.5687 78.1906 63.5726 78.1902 63.5775C78.1893 63.5879 78.188 63.6033 78.1863 63.6224C78.183 63.6605 78.1783 63.7156 78.1717 63.7865C78.1583 63.9284 78.1373 64.1342 78.1092 64.3939C78.0528 64.9129 77.9647 65.6498 77.8367 66.5296C77.5815 68.284 77.1643 70.6326 76.5164 72.9652C75.8759 75.271 74.9768 77.6869 73.7029 79.4915C72.4247 81.3022 70.5351 82.7886 67.9842 82.4242C65.5236 82.0727 63.9758 80.2694 63.0281 78.2689C62.0798 76.2669 61.5879 73.7936 61.3308 71.4798C61.0712 69.1434 61.0401 66.8548 61.0721 65.1605C61.0881 64.3108 61.12 63.6042 61.1482 63.1078C61.1624 62.8595 61.1755 62.6632 61.1853 62.5277C61.1902 62.4599 61.1942 62.4069 61.1971 62.3705C61.1985 62.3525 61.1992 62.3384 61.2 62.3285C61.2004 62.3237 61.2007 62.3196 61.201 62.3167C61.2011 62.3153 61.2019 62.3137 61.2019 62.3128C61.2056 62.3128 61.2779 62.3173 62.6961 62.4388L61.2019 62.3109C61.272 61.4938 61.9855 60.8843 62.8035 60.9427ZM64.1062 64.0423C64.0922 64.3868 64.0793 64.7819 64.0711 65.2171C64.0405 66.8353 64.0719 68.9843 64.3123 71.1478C64.5552 73.3337 65 75.4233 65.739 76.9837C66.4787 78.5453 67.3689 79.3048 68.408 79.4535C69.357 79.589 70.28 79.1378 71.2517 77.7611C72.2278 76.3783 73.0163 74.3566 73.6258 72.1624C74.2278 69.9951 74.6231 67.7811 74.8679 66.098C74.9368 65.6249 74.9921 65.1955 75.0379 64.8236L64.1062 64.0423Z" fill="black"/>
<path d="M30.4632 97.3077C30.9543 97.0551 31.5573 97.2482 31.8098 97.7393L34.2141 102.414C34.4664 102.905 34.2725 103.508 33.7815 103.761C33.2904 104.013 32.6873 103.819 32.4348 103.328L30.0315 98.6534C29.7793 98.1624 29.9724 97.5603 30.4632 97.3077ZM32.0676 87.2149C32.582 87.0141 33.1626 87.268 33.3635 87.7823L36.2493 95.1719C36.4502 95.6862 36.1961 96.2658 35.6819 96.4668C35.1676 96.6675 34.5879 96.4137 34.387 95.8995L31.4993 88.5108C31.2983 87.9964 31.5532 87.4159 32.0676 87.2149ZM22.929 81.9571C23.4393 81.7464 24.0247 81.9889 24.2356 82.4991L28.1126 91.8907C28.323 92.4011 28.08 92.9866 27.5696 93.1973C27.0593 93.4078 26.4748 93.1644 26.2639 92.6543L22.387 83.2627C22.1766 82.7526 22.4191 82.168 22.929 81.9571Z" fill="#BD8828"/>
<rect x="114.009" y="2.16288" width="42" height="67" rx="6.5" transform="rotate(15 114.009 2.16288)" fill="#E8A125"/>
<rect x="114.009" y="2.16288" width="42" height="67" rx="6.5" transform="rotate(15 114.009 2.16288)" stroke="black" stroke-width="3"/>
<rect x="119.053" y="12.3144" width="12" height="23" rx="2" transform="rotate(15 119.053 12.3144)" fill="white"/>
<rect x="133.542" y="16.1967" width="12" height="23" rx="2" transform="rotate(15 133.542 16.1967)" fill="white"/>
<rect x="112.065" y="38.3944" width="12" height="23" rx="2" transform="rotate(15 112.065 38.3944)" fill="white"/>
<rect x="126.554" y="42.2767" width="12" height="23" rx="2" transform="rotate(15 126.554 42.2767)" fill="white"/>
<path d="M148.061 74C148.061 78.1421 144.703 81.5 140.561 81.5C136.419 81.5 133.061 78.1421 133.061 74C133.061 69.8579 136.419 66.5 140.561 66.5C144.703 66.5 148.061 69.8579 148.061 74Z" fill="#E8A125"/>
<path d="M148.061 74C148.061 69.8579 144.703 66.5 140.561 66.5C136.419 66.5 133.061 69.8579 133.061 74C133.061 78.1421 136.419 81.5 140.561 81.5C144.703 81.5 148.061 78.1421 148.061 74ZM150.561 74C150.561 79.5228 146.084 84 140.561 84C135.038 84 130.561 79.5228 130.561 74C130.561 68.4772 135.038 64 140.561 64C146.084 64 150.561 68.4772 150.561 74Z" fill="black"/>
</g>
<defs>
<clipPath id="clip0_600_10828">
<rect width="160" height="110" fill="white"/>
</clipPath>
</defs>
</svg>
