<svg width="160" height="102" viewBox="0 0 160 102" fill="none" xmlns="http://www.w3.org/2000/svg">
<g clip-path="url(#clip0_600_10827)">
<path d="M136.561 83C172.783 53.1263 151.654 33.886 136.561 28" stroke="black" stroke-width="3"/>
<path d="M13.3906 43.5705C32.1651 11.0522 73.7463 -0.0896502 106.265 18.6847C138.783 37.4592 149.925 79.0404 131.15 111.559C112.376 144.077 70.7947 155.219 38.2764 136.444C5.75806 117.67 -5.38375 76.0888 13.3906 43.5705Z" fill="#EFB752" stroke="white" stroke-width="3"/>
<path d="M51.9037 43.6752V51.6752" stroke="black" stroke-width="3" stroke-linecap="round"/>
<path d="M82.6559 43.6752V51.6752" stroke="black" stroke-width="3" stroke-linecap="round"/>
<path d="M68.237 56.2547C64.0259 56.8108 62.3346 52.2862 62.3346 52.2862L72.9657 51.6787C72.9657 51.6787 71.9931 55.7586 68.237 56.2547Z" fill="white" stroke="black" stroke-width="3" stroke-linecap="round" stroke-linejoin="round"/>
<path fill-rule="evenodd" clip-rule="evenodd" d="M31.4624 88.3495C31.9536 88.0969 32.5573 88.2901 32.8099 88.7812L35.1967 93.4226C35.4489 93.9137 35.2551 94.5171 34.764 94.7696C34.2731 95.0218 33.6706 94.8281 33.4179 94.3375L31.0311 89.6961C30.7787 89.2051 30.9716 88.6022 31.4624 88.3495ZM23.9835 73.1081C24.4937 72.8977 25.0789 73.1402 25.2897 73.6503L29.1394 82.9747C29.35 83.4849 29.1064 84.0695 28.5963 84.2805C28.0859 84.4912 27.5009 84.2487 27.2901 83.7383L23.4413 74.4143C23.2306 73.904 23.4733 73.319 23.9835 73.1081ZM33.0558 78.3279C33.5701 78.1271 34.1507 78.3816 34.3518 78.8958L37.2177 86.2326C37.4185 86.7468 37.1645 87.3266 36.6504 87.5277C36.136 87.7287 35.5554 87.4743 35.3544 86.9599L32.488 79.6239C32.2873 79.1096 32.5415 78.5289 33.0558 78.3279Z" fill="#CD9733"/>
<rect x="105.26" y="8.59469" width="39" height="26" rx="3.5" transform="rotate(15.2893 105.26 8.59469)" fill="#EFB752" stroke="white" stroke-width="3"/>
<rect x="118.681" y="5.00679" width="15" height="10" rx="2.5" transform="rotate(15.2893 118.681 5.00679)" fill="#EFB752" stroke="white" stroke-width="3"/>
<circle cx="120.378" cy="27.2412" r="6" transform="rotate(15.2893 120.378 27.2412)" stroke="white" stroke-width="3"/>
<circle cx="140.061" cy="31.5" r="6.5" fill="black"/>
</g>
<defs>
<clipPath id="clip0_600_10827">
<rect width="160" height="102" fill="white"/>
</clipPath>
</defs>
</svg>
