<svg width="24" height="24" viewBox="0 0 24 24" fill="none" xmlns="http://www.w3.org/2000/svg">
<path d="M8.63136 3.40912C8.34059 3.34945 8.04488 3.34965 7.69464 3.34988L6.16469 3.34991C5.63482 3.3499 5.18364 3.34988 4.81321 3.38015C4.42405 3.41195 4.04545 3.48158 3.68352 3.66599C3.13785 3.94403 2.69421 4.38767 2.41618 4.93334C2.23177 5.29527 2.16213 5.67387 2.13034 6.06303C2.10007 6.43345 2.10008 6.88462 2.1001 7.41448V16.5853C2.10008 17.1152 2.10007 17.5664 2.13034 17.9368C2.16213 18.326 2.23177 18.7046 2.41618 19.0665C2.69421 19.6122 3.13785 20.0558 3.68352 20.3338C4.04545 20.5182 4.42405 20.5879 4.81321 20.6197C5.18363 20.6499 5.6348 20.6499 6.16466 20.6499H17.8355C18.3653 20.6499 18.8165 20.6499 19.1869 20.6197C19.5761 20.5879 19.9547 20.5182 20.3166 20.3338C20.8623 20.0558 21.3059 19.6122 21.584 19.0665C21.7684 18.7046 21.838 18.326 21.8698 17.9368C21.9001 17.5664 21.9001 17.1152 21.9 16.5853V9.41451C21.9001 8.88465 21.9001 8.43345 21.8698 8.06303C21.838 7.67387 21.7684 7.29527 21.584 6.93334C21.3059 6.38767 20.8623 5.94403 20.3166 5.66599C19.9547 5.48158 19.5761 5.41195 19.1869 5.38015C18.8165 5.34988 18.3653 5.3499 17.8355 5.34991L11.5656 5.34991L10.1362 4.20633C9.86282 3.98735 9.63203 3.80246 9.3677 3.66742C9.13501 3.54854 8.88732 3.46166 8.63136 3.40912Z" fill="#E8A125"/>
</svg>
