<svg width="24" height="24" viewBox="0 0 24 24" fill="none" xmlns="http://www.w3.org/2000/svg">
<path d="M11.9999 2.59961C12.4969 2.59961 12.8998 3.00255 12.8998 3.49961V12.8273L15.8634 9.8637C16.2149 9.51223 16.7848 9.51223 17.1362 9.8637C17.4877 10.2152 17.4877 10.785 17.1362 11.1365L12.6362 15.6365C12.2848 15.988 11.7149 15.988 11.3635 15.6365L6.86347 11.1365C6.512 10.785 6.512 10.2152 6.86347 9.8637C7.21494 9.51223 7.78479 9.51223 8.13626 9.8637L11.0999 12.8273V3.49961C11.0999 3.00255 11.5028 2.59961 11.9999 2.59961Z" fill="#474747"/>
<path d="M21.15 14.8997C21.15 14.4026 20.7471 13.9997 20.2501 13.9997C19.753 13.9997 19.3501 14.4026 19.3501 14.8997V17.4498C19.3501 18.2644 19.339 18.4582 19.2962 18.5897C19.1874 18.9246 18.9249 19.1872 18.59 19.296C18.4585 19.3387 18.2646 19.3498 17.4501 19.3498H6.55011C5.73555 19.3498 5.54172 19.3387 5.4102 19.296C5.07532 19.1872 4.81276 18.9246 4.70396 18.5897C4.66122 18.4582 4.65012 18.2644 4.65012 17.4498V14.8997C4.65012 14.4027 4.24717 13.9997 3.75011 13.9997C3.25305 13.9997 2.8501 14.4027 2.8501 14.8997V17.0852C2.85009 17.615 2.85008 18.0663 2.88034 18.4367C2.91214 18.8259 2.98177 19.2044 3.16618 19.5664C3.44421 20.112 3.88786 20.5557 4.43353 20.8337C4.79546 21.0181 5.17405 21.0878 5.56321 21.1196C5.93362 21.1498 6.38478 21.1498 6.91461 21.1498H17.0855C17.6153 21.1498 18.0665 21.1498 18.4369 21.1196C18.8261 21.0878 19.2047 21.0181 19.5666 20.8337C20.1123 20.5557 20.5559 20.112 20.834 19.5664C21.0184 19.2044 21.088 18.8259 21.1198 18.4367C21.1501 18.0663 21.1501 17.6151 21.15 17.0853V14.8997Z" fill="#474747"/>
</svg>
