<svg width="329" height="317" viewBox="0 0 329 317" fill="none" xmlns="http://www.w3.org/2000/svg">
<ellipse cx="195" cy="297.5" rx="118" ry="19.5" fill="black"/>
<path d="M273.235 234.49C238.723 294.266 162.287 314.747 102.51 280.235C42.7338 245.723 22.2529 169.287 56.7649 109.51C91.2769 49.7338 167.713 29.2529 227.49 63.7649C287.266 98.2769 307.747 174.713 273.235 234.49Z" fill="#E8A125"/>
<path d="M56.7653 109.51C91.2774 49.7338 167.713 29.2533 227.489 63.7653C287.266 98.2774 307.746 174.713 273.234 234.489C238.992 293.799 163.478 314.424 103.914 281.033L102.51 280.234C43.2007 245.992 22.5755 170.478 55.9666 110.914L56.7653 109.51ZM224.811 68.4039C167.596 35.3713 94.4367 54.9745 61.404 112.189C28.3714 169.403 47.9746 242.563 105.189 275.596C162.403 308.628 235.563 289.025 268.596 231.811C301.628 174.596 282.025 101.437 224.811 68.4039Z" fill="black"/>
<path d="M139.279 123.281L129.177 113.18C128.131 112.134 128.131 110.438 129.177 109.392C130.224 108.346 131.92 108.346 132.966 109.392L143.067 119.493C144.113 120.539 144.113 122.235 143.067 123.281C142.021 124.327 140.325 124.327 139.279 123.281Z" fill="black"/>
<path d="M179.177 119.493L189.279 109.392C190.325 108.346 192.021 108.346 193.067 109.392C194.113 110.438 194.113 112.134 193.067 113.18L182.965 123.281C181.919 124.327 180.223 124.327 179.177 123.281C178.131 122.235 178.131 120.539 179.177 119.493Z" fill="black"/>
<path d="M159.079 161.286C152.301 161.286 152.501 122 152.501 122H170.357C170.357 122 170.397 161.286 159.079 161.286Z" fill="white"/>
<path d="M170.357 119.321L170.631 119.335C171.98 119.472 173.034 120.611 173.036 121.997L170.357 122C172.964 121.997 173.034 121.996 173.036 121.997V122.122C173.036 122.201 173.035 122.316 173.034 122.464C173.032 122.761 173.026 123.193 173.015 123.74C172.993 124.835 172.949 126.394 172.861 128.264C172.686 131.995 172.333 136.997 171.615 142.021C170.902 147.003 169.806 152.195 168.076 156.208C166.452 159.974 163.698 163.964 159.08 163.964C156.776 163.964 155.338 162.285 154.553 160.974C153.711 159.568 153.086 157.738 152.596 155.807C151.605 151.9 150.98 146.807 150.578 141.859C150.174 136.879 149.986 131.913 149.898 128.201C149.854 126.343 149.835 124.794 149.827 123.707C149.823 123.164 149.822 122.736 149.822 122.443V121.988C149.829 120.514 151.026 119.322 152.5 119.321H170.357ZM155.194 124.679C155.205 125.617 155.223 126.768 155.254 128.076C155.34 131.73 155.525 136.585 155.918 141.427C156.314 146.3 156.912 151.029 157.789 154.488C158.234 156.24 158.705 157.479 159.149 158.222C159.247 158.385 159.329 158.498 159.39 158.576C160.405 158.401 161.754 157.341 163.157 154.087C164.602 150.734 165.619 146.104 166.311 141.264C166.998 136.468 167.34 131.648 167.511 128.013C167.571 126.732 167.607 125.603 167.632 124.679H155.194Z" fill="black"/>
<path d="M77.5001 197.893C62.3215 180.929 56.0891 190.108 60.2279 204.782C64.3965 219.561 102.276 255.944 119.464 272C140.398 285.591 129.607 265.272 119.464 252.357C109.322 239.442 83.9193 205.067 77.5001 197.893Z" fill="#D19220"/>
<path d="M254.336 104.029C235.938 85.6137 225.2 79.4588 211.256 75.208C196.317 70.6536 201.727 77.5856 218.18 88.2041C234.633 98.8226 251.081 120.485 263.202 132.184C275.324 143.884 272.735 122.444 254.336 104.029Z" fill="#D19220"/>
<g clip-path="url(#clip0_1063_11653)">
<rect x="35.8335" y="18" width="17" height="89" rx="6" transform="rotate(12.7907 35.8335 18)" fill="#2A2A2A"/>
<rect x="35.8335" y="18" width="17" height="56" transform="rotate(12.7907 35.8335 18)" fill="#49E57D"/>
</g>
<rect x="37.3411" y="20.3932" width="13" height="85" rx="4" transform="rotate(12.7907 37.3411 20.3932)" stroke="black" stroke-width="4"/>
<g clip-path="url(#clip1_1063_11653)">
<rect x="312.437" width="17" height="89" rx="6" transform="rotate(20.5448 312.437 0)" fill="#2A2A2A"/>
<rect x="312.437" width="17" height="56" transform="rotate(20.5448 312.437 0)" fill="#49E57D"/>
</g>
<rect x="313.607" y="2.57468" width="13" height="85" rx="4" transform="rotate(20.5448 313.607 2.57468)" stroke="black" stroke-width="4"/>
<path d="M38.5595 109.883C36.7254 117.962 28.6895 123.024 20.6108 121.19C12.5321 119.356 7.46986 111.32 9.30391 103.242C11.138 95.1631 19.1738 90.1008 27.2525 91.9349C35.3312 93.7689 40.3935 101.805 38.5595 109.883Z" fill="#E8A125"/>
<path d="M38.5594 109.883C40.3935 101.805 35.3312 93.7689 27.2525 91.9349C19.1738 90.1008 11.1379 95.1631 9.30384 103.242C7.46979 111.32 12.5321 119.356 20.6108 121.19C28.6895 123.024 36.7254 117.962 38.5594 109.883ZM43.4353 110.99C40.9899 121.762 30.2754 128.512 19.5038 126.066C8.73223 123.621 1.98251 112.906 4.42792 102.135C6.87332 91.3632 17.5878 84.6135 28.3594 87.0589C39.131 89.5043 45.8807 100.219 43.4353 110.99Z" fill="black"/>
<path d="M303.793 88.6018C300.885 96.3592 292.24 100.291 284.483 97.3837C276.725 94.4764 272.793 85.831 275.701 78.0736C278.608 70.3162 287.253 66.3845 295.011 69.2917C302.768 72.199 306.7 80.8444 303.793 88.6018Z" fill="#E8A125"/>
<path d="M303.793 88.6018C306.7 80.8445 302.768 72.199 295.011 69.2918C287.253 66.3845 278.608 70.3163 275.701 78.0736C272.794 85.831 276.725 94.4764 284.483 97.3837C292.24 100.291 300.885 96.3592 303.793 88.6018ZM308.475 90.3565C304.598 100.7 293.071 105.942 282.728 102.066C272.385 98.1893 267.142 86.6621 271.019 76.3189C274.895 65.9758 286.422 60.7334 296.766 64.6098C307.109 68.4861 312.351 80.0134 308.475 90.3565Z" fill="black"/>
<defs>
<clipPath id="clip0_1063_11653">
<rect x="35.8335" y="18" width="17" height="89" rx="6" transform="rotate(12.7907 35.8335 18)" fill="white"/>
</clipPath>
<clipPath id="clip1_1063_11653">
<rect x="312.437" width="17" height="89" rx="6" transform="rotate(20.5448 312.437 0)" fill="white"/>
</clipPath>
</defs>
</svg>
